<svg width="300" height="70" viewBox="0 0 300 70" fill="none" xmlns="http://www.w3.org/2000/svg">
<g filter="url(#filter0_d_287_290)">
<path d="M7 17C7 11.4772 11.4772 7 17 7H277C282.523 7 287 11.4772 287 17V47C287 52.5228 282.523 57 277 57H17C11.4771 57 7 52.5228 7 47V17Z" fill="#F3F9FF"/>
</g>
<path d="M122.768 37.16C122.426 37.16 122.032 37.1387 121.584 37.096C121.146 37.0533 120.714 37 120.288 36.936C119.861 36.872 119.488 36.8187 119.168 36.776L119.296 35.528C119.605 35.56 119.968 35.6027 120.384 35.656C120.81 35.6987 121.226 35.736 121.632 35.768C122.037 35.8 122.384 35.816 122.672 35.816C123.408 35.816 123.952 35.656 124.304 35.336C124.666 35.016 124.848 34.5147 124.848 33.832C124.848 33.4587 124.773 33.1653 124.624 32.952C124.485 32.728 124.245 32.552 123.904 32.424C123.562 32.2853 123.104 32.1627 122.528 32.056C121.738 31.896 121.088 31.704 120.576 31.48C120.064 31.256 119.685 30.9413 119.44 30.536C119.194 30.12 119.072 29.56 119.072 28.856C119.072 28.1093 119.216 27.512 119.504 27.064C119.802 26.616 120.224 26.2907 120.768 26.088C121.322 25.8853 121.968 25.784 122.704 25.784C123.034 25.784 123.408 25.8053 123.824 25.848C124.25 25.88 124.666 25.9227 125.072 25.976C125.488 26.0293 125.845 26.0827 126.144 26.136L126.032 27.4C125.722 27.3573 125.36 27.32 124.944 27.288C124.538 27.2453 124.144 27.208 123.76 27.176C123.376 27.144 123.066 27.128 122.832 27.128C122.096 27.128 121.541 27.2613 121.168 27.528C120.805 27.784 120.624 28.1893 120.624 28.744C120.624 29.1707 120.704 29.496 120.864 29.72C121.024 29.944 121.29 30.12 121.664 30.248C122.037 30.376 122.528 30.5147 123.136 30.664C123.712 30.792 124.202 30.9307 124.608 31.08C125.024 31.2293 125.365 31.416 125.632 31.64C125.898 31.864 126.09 32.1413 126.208 32.472C126.336 32.8027 126.4 33.2187 126.4 33.72C126.4 34.5413 126.25 35.2027 125.952 35.704C125.664 36.2053 125.248 36.5733 124.704 36.808C124.16 37.0427 123.514 37.16 122.768 37.16ZM131.102 37.16C130.281 37.16 129.63 37.0107 129.15 36.712C128.681 36.4027 128.339 35.944 128.126 35.336C127.913 34.728 127.806 33.9653 127.806 33.048C127.806 32.0453 127.945 31.2347 128.222 30.616C128.51 29.9973 128.91 29.544 129.422 29.256C129.934 28.968 130.547 28.824 131.262 28.824C132.361 28.824 133.187 29.1227 133.742 29.72C134.307 30.3067 134.59 31.256 134.59 32.568L134.51 33.576H129.326C129.337 34.344 129.481 34.9253 129.758 35.32C130.035 35.704 130.537 35.896 131.262 35.896C131.571 35.896 131.907 35.8907 132.27 35.88C132.643 35.8587 133.011 35.8373 133.374 35.816C133.737 35.7947 134.046 35.7733 134.302 35.752L134.334 36.872C134.067 36.9147 133.747 36.9573 133.374 37C133.001 37.0533 132.611 37.0907 132.206 37.112C131.811 37.144 131.443 37.16 131.102 37.16ZM129.326 32.472H133.102C133.102 31.5653 132.953 30.9307 132.654 30.568C132.366 30.2053 131.902 30.024 131.262 30.024C130.633 30.024 130.153 30.2107 129.822 30.584C129.491 30.9573 129.326 31.5867 129.326 32.472ZM138.154 37.16C137.397 37.16 136.821 36.952 136.426 36.536C136.032 36.12 135.834 35.5067 135.834 34.696C135.834 34.152 135.93 33.7147 136.122 33.384C136.314 33.0427 136.597 32.7867 136.97 32.616C137.354 32.4453 137.829 32.344 138.394 32.312L140.714 32.088V31.464C140.714 30.9627 140.602 30.6107 140.378 30.408C140.154 30.1947 139.818 30.088 139.37 30.088C139.093 30.088 138.768 30.0987 138.394 30.12C138.021 30.1413 137.653 30.168 137.29 30.2C136.928 30.232 136.602 30.264 136.314 30.296L136.25 29.208C136.517 29.144 136.832 29.0853 137.194 29.032C137.568 28.9787 137.957 28.9307 138.362 28.888C138.768 28.8453 139.141 28.824 139.482 28.824C140.112 28.824 140.629 28.9147 141.034 29.096C141.44 29.2773 141.738 29.56 141.93 29.944C142.122 30.328 142.218 30.824 142.218 31.432V35.368C142.24 35.5813 142.325 35.7413 142.474 35.848C142.634 35.944 142.832 36.008 143.066 36.04L143.018 37.144C142.784 37.144 142.56 37.1333 142.346 37.112C142.144 37.1013 141.957 37.0693 141.786 37.016C141.616 36.9733 141.461 36.9147 141.322 36.84C141.194 36.7547 141.072 36.6587 140.954 36.552C140.762 36.6373 140.512 36.728 140.202 36.824C139.893 36.92 139.562 37 139.21 37.064C138.858 37.128 138.506 37.16 138.154 37.16ZM138.458 35.976C138.725 35.976 138.997 35.9493 139.274 35.896C139.562 35.8427 139.834 35.784 140.09 35.72C140.346 35.6453 140.554 35.5813 140.714 35.528V33.128L138.586 33.336C138.138 33.368 137.818 33.496 137.626 33.72C137.434 33.9333 137.338 34.2427 137.338 34.648C137.338 35.064 137.429 35.3893 137.61 35.624C137.802 35.8587 138.085 35.976 138.458 35.976ZM144.439 37V28.984H145.927V30.024C146.119 29.8853 146.365 29.736 146.663 29.576C146.962 29.416 147.287 29.2667 147.639 29.128C148.002 28.9787 148.359 28.872 148.711 28.808V30.296C148.37 30.36 148.018 30.4507 147.655 30.568C147.303 30.6853 146.973 30.8133 146.663 30.952C146.365 31.08 146.119 31.1973 145.927 31.304V37H144.439ZM153.073 37.16C152.209 37.16 151.532 37.0213 151.041 36.744C150.551 36.456 150.204 35.9973 150.001 35.368C149.799 34.7387 149.697 33.912 149.697 32.888C149.697 31.896 149.809 31.1067 150.033 30.52C150.257 29.9227 150.62 29.4907 151.121 29.224C151.623 28.9573 152.279 28.824 153.089 28.824C153.281 28.824 153.511 28.84 153.777 28.872C154.055 28.8933 154.332 28.9253 154.609 28.968C154.897 29.0107 155.143 29.048 155.345 29.08L155.297 30.296C155.116 30.2747 154.903 30.2533 154.657 30.232C154.412 30.2107 154.177 30.1947 153.953 30.184C153.729 30.1627 153.543 30.152 153.393 30.152C152.817 30.152 152.369 30.2427 152.049 30.424C151.74 30.6053 151.521 30.8933 151.393 31.288C151.276 31.6827 151.217 32.216 151.217 32.888C151.217 33.6133 151.271 34.1947 151.377 34.632C151.495 35.0587 151.708 35.368 152.017 35.56C152.327 35.7413 152.785 35.832 153.393 35.832C153.543 35.832 153.729 35.8267 153.953 35.816C154.188 35.7947 154.428 35.7733 154.673 35.752C154.929 35.7307 155.148 35.7147 155.329 35.704L155.377 36.92C155.164 36.952 154.913 36.984 154.625 37.016C154.348 37.0587 154.071 37.0907 153.793 37.112C153.516 37.144 153.276 37.16 153.073 37.16ZM157.049 37V25.576H158.537V29.384C158.814 29.2667 159.177 29.144 159.625 29.016C160.073 28.888 160.499 28.824 160.905 28.824C161.641 28.824 162.206 28.9573 162.601 29.224C163.006 29.48 163.283 29.9013 163.433 30.488C163.582 31.064 163.657 31.8213 163.657 32.76V37H162.153V32.856C162.153 32.1947 162.115 31.6667 162.041 31.272C161.966 30.8773 161.817 30.5947 161.593 30.424C161.379 30.2427 161.049 30.152 160.601 30.152C160.227 30.152 159.843 30.2 159.449 30.296C159.065 30.392 158.761 30.488 158.537 30.584V37H157.049Z" fill="#574ADD"/>
<defs>
<filter id="filter0_d_287_290" x="0" y="0" width="300" height="70" filterUnits="userSpaceOnUse" color-interpolation-filters="sRGB">
<feFlood flood-opacity="0" result="BackgroundImageFix"/>
<feColorMatrix in="SourceAlpha" type="matrix" values="0 0 0 0 0 0 0 0 0 0 0 0 0 0 0 0 0 0 127 0" result="hardAlpha"/>
<feOffset dx="3" dy="3"/>
<feGaussianBlur stdDeviation="5"/>
<feComposite in2="hardAlpha" operator="out"/>
<feColorMatrix type="matrix" values="0 0 0 0 0.266667 0 0 0 0 0.301961 0 0 0 0 0.333333 0 0 0 1 0"/>
<feBlend mode="normal" in2="BackgroundImageFix" result="effect1_dropShadow_287_290"/>
<feBlend mode="normal" in="SourceGraphic" in2="effect1_dropShadow_287_290" result="shape"/>
</filter>
</defs>
</svg>
