<svg width="290" height="60" viewBox="0 0 290 60" fill="none" xmlns="http://www.w3.org/2000/svg">
<path d="M116.768 32.16C116.426 32.16 116.032 32.1387 115.584 32.096C115.146 32.0533 114.714 32 114.288 31.936C113.861 31.872 113.488 31.8187 113.168 31.776L113.296 30.528C113.605 30.56 113.968 30.6027 114.384 30.656C114.81 30.6987 115.226 30.736 115.632 30.768C116.037 30.8 116.384 30.816 116.672 30.816C117.408 30.816 117.952 30.656 118.304 30.336C118.666 30.016 118.848 29.5147 118.848 28.832C118.848 28.4587 118.773 28.1653 118.624 27.952C118.485 27.728 118.245 27.552 117.904 27.424C117.562 27.2853 117.104 27.1627 116.528 27.056C115.738 26.896 115.088 26.704 114.576 26.48C114.064 26.256 113.685 25.9413 113.44 25.536C113.194 25.12 113.072 24.56 113.072 23.856C113.072 23.1093 113.216 22.512 113.504 22.064C113.802 21.616 114.224 21.2907 114.768 21.088C115.322 20.8853 115.968 20.784 116.704 20.784C117.034 20.784 117.408 20.8053 117.824 20.848C118.25 20.88 118.666 20.9227 119.072 20.976C119.488 21.0293 119.845 21.0827 120.144 21.136L120.032 22.4C119.722 22.3573 119.36 22.32 118.944 22.288C118.538 22.2453 118.144 22.208 117.76 22.176C117.376 22.144 117.066 22.128 116.832 22.128C116.096 22.128 115.541 22.2613 115.168 22.528C114.805 22.784 114.624 23.1893 114.624 23.744C114.624 24.1707 114.704 24.496 114.864 24.72C115.024 24.944 115.29 25.12 115.664 25.248C116.037 25.376 116.528 25.5147 117.136 25.664C117.712 25.792 118.202 25.9307 118.608 26.08C119.024 26.2293 119.365 26.416 119.632 26.64C119.898 26.864 120.09 27.1413 120.208 27.472C120.336 27.8027 120.4 28.2187 120.4 28.72C120.4 29.5413 120.25 30.2027 119.952 30.704C119.664 31.2053 119.248 31.5733 118.704 31.808C118.16 32.0427 117.514 32.16 116.768 32.16ZM125.102 32.16C124.281 32.16 123.63 32.0107 123.15 31.712C122.681 31.4027 122.339 30.944 122.126 30.336C121.913 29.728 121.806 28.9653 121.806 28.048C121.806 27.0453 121.945 26.2347 122.222 25.616C122.51 24.9973 122.91 24.544 123.422 24.256C123.934 23.968 124.547 23.824 125.262 23.824C126.361 23.824 127.187 24.1227 127.742 24.72C128.307 25.3067 128.59 26.256 128.59 27.568L128.51 28.576H123.326C123.337 29.344 123.481 29.9253 123.758 30.32C124.035 30.704 124.537 30.896 125.262 30.896C125.571 30.896 125.907 30.8907 126.27 30.88C126.643 30.8587 127.011 30.8373 127.374 30.816C127.737 30.7947 128.046 30.7733 128.302 30.752L128.334 31.872C128.067 31.9147 127.747 31.9573 127.374 32C127.001 32.0533 126.611 32.0907 126.206 32.112C125.811 32.144 125.443 32.16 125.102 32.16ZM123.326 27.472H127.102C127.102 26.5653 126.953 25.9307 126.654 25.568C126.366 25.2053 125.902 25.024 125.262 25.024C124.633 25.024 124.153 25.2107 123.822 25.584C123.491 25.9573 123.326 26.5867 123.326 27.472ZM132.154 32.16C131.397 32.16 130.821 31.952 130.426 31.536C130.032 31.12 129.834 30.5067 129.834 29.696C129.834 29.152 129.93 28.7147 130.122 28.384C130.314 28.0427 130.597 27.7867 130.97 27.616C131.354 27.4453 131.829 27.344 132.394 27.312L134.714 27.088V26.464C134.714 25.9627 134.602 25.6107 134.378 25.408C134.154 25.1947 133.818 25.088 133.37 25.088C133.093 25.088 132.768 25.0987 132.394 25.12C132.021 25.1413 131.653 25.168 131.29 25.2C130.928 25.232 130.602 25.264 130.314 25.296L130.25 24.208C130.517 24.144 130.832 24.0853 131.194 24.032C131.568 23.9787 131.957 23.9307 132.362 23.888C132.768 23.8453 133.141 23.824 133.482 23.824C134.112 23.824 134.629 23.9147 135.034 24.096C135.44 24.2773 135.738 24.56 135.93 24.944C136.122 25.328 136.218 25.824 136.218 26.432V30.368C136.24 30.5813 136.325 30.7413 136.474 30.848C136.634 30.944 136.832 31.008 137.066 31.04L137.018 32.144C136.784 32.144 136.56 32.1333 136.346 32.112C136.144 32.1013 135.957 32.0693 135.786 32.016C135.616 31.9733 135.461 31.9147 135.322 31.84C135.194 31.7547 135.072 31.6587 134.954 31.552C134.762 31.6373 134.512 31.728 134.202 31.824C133.893 31.92 133.562 32 133.21 32.064C132.858 32.128 132.506 32.16 132.154 32.16ZM132.458 30.976C132.725 30.976 132.997 30.9493 133.274 30.896C133.562 30.8427 133.834 30.784 134.09 30.72C134.346 30.6453 134.554 30.5813 134.714 30.528V28.128L132.586 28.336C132.138 28.368 131.818 28.496 131.626 28.72C131.434 28.9333 131.338 29.2427 131.338 29.648C131.338 30.064 131.429 30.3893 131.61 30.624C131.802 30.8587 132.085 30.976 132.458 30.976ZM138.439 32V23.984H139.927V25.024C140.119 24.8853 140.365 24.736 140.663 24.576C140.962 24.416 141.287 24.2667 141.639 24.128C142.002 23.9787 142.359 23.872 142.711 23.808V25.296C142.37 25.36 142.018 25.4507 141.655 25.568C141.303 25.6853 140.973 25.8133 140.663 25.952C140.365 26.08 140.119 26.1973 139.927 26.304V32H138.439ZM147.073 32.16C146.209 32.16 145.532 32.0213 145.041 31.744C144.551 31.456 144.204 30.9973 144.001 30.368C143.799 29.7387 143.697 28.912 143.697 27.888C143.697 26.896 143.809 26.1067 144.033 25.52C144.257 24.9227 144.62 24.4907 145.121 24.224C145.623 23.9573 146.279 23.824 147.089 23.824C147.281 23.824 147.511 23.84 147.777 23.872C148.055 23.8933 148.332 23.9253 148.609 23.968C148.897 24.0107 149.143 24.048 149.345 24.08L149.297 25.296C149.116 25.2747 148.903 25.2533 148.657 25.232C148.412 25.2107 148.177 25.1947 147.953 25.184C147.729 25.1627 147.543 25.152 147.393 25.152C146.817 25.152 146.369 25.2427 146.049 25.424C145.74 25.6053 145.521 25.8933 145.393 26.288C145.276 26.6827 145.217 27.216 145.217 27.888C145.217 28.6133 145.271 29.1947 145.377 29.632C145.495 30.0587 145.708 30.368 146.017 30.56C146.327 30.7413 146.785 30.832 147.393 30.832C147.543 30.832 147.729 30.8267 147.953 30.816C148.188 30.7947 148.428 30.7733 148.673 30.752C148.929 30.7307 149.148 30.7147 149.329 30.704L149.377 31.92C149.164 31.952 148.913 31.984 148.625 32.016C148.348 32.0587 148.071 32.0907 147.793 32.112C147.516 32.144 147.276 32.16 147.073 32.16ZM151.049 32V20.576H152.537V24.384C152.814 24.2667 153.177 24.144 153.625 24.016C154.073 23.888 154.499 23.824 154.905 23.824C155.641 23.824 156.206 23.9573 156.601 24.224C157.006 24.48 157.283 24.9013 157.433 25.488C157.582 26.064 157.657 26.8213 157.657 27.76V32H156.153V27.856C156.153 27.1947 156.115 26.6667 156.041 26.272C155.966 25.8773 155.817 25.5947 155.593 25.424C155.379 25.2427 155.049 25.152 154.601 25.152C154.227 25.152 153.843 25.2 153.449 25.296C153.065 25.392 152.761 25.488 152.537 25.584V32H151.049Z" fill="#3F3A3A"/>
<g filter="url(#filter0_d_287_347)">
<path d="M1 12C1 6.47715 5.47715 2 11 2H271C276.523 2 281 6.47715 281 12V42C281 47.5228 276.523 52 271 52H11C5.47715 52 1 47.5228 1 42V12Z" stroke="white" stroke-width="1.4" shape-rendering="crispEdges"/>
</g>
<defs>
<filter id="filter0_d_287_347" x="0.300049" y="0.300049" width="289.4" height="59.3999" filterUnits="userSpaceOnUse" color-interpolation-filters="sRGB">
<feFlood flood-opacity="0" result="BackgroundImageFix"/>
<feColorMatrix in="SourceAlpha" type="matrix" values="0 0 0 0 0 0 0 0 0 0 0 0 0 0 0 0 0 0 127 0" result="hardAlpha"/>
<feOffset dx="4" dy="3"/>
<feGaussianBlur stdDeviation="2"/>
<feComposite in2="hardAlpha" operator="out"/>
<feColorMatrix type="matrix" values="0 0 0 0 0.266667 0 0 0 0 0.301961 0 0 0 0 0.333333 0 0 0 1 0"/>
<feBlend mode="normal" in2="BackgroundImageFix" result="effect1_dropShadow_287_347"/>
<feBlend mode="normal" in="SourceGraphic" in2="effect1_dropShadow_287_347" result="shape"/>
</filter>
</defs>
</svg>
