<svg width="71" height="20" viewBox="0 0 71 20" fill="none" xmlns="http://www.w3.org/2000/svg">
<path d="M6.25681 19.208C5.77148 19.208 5.18215 19.182 4.48881 19.13C3.81281 19.078 3.12815 19.0173 2.43481 18.948C1.75881 18.8613 1.16081 18.792 0.640813 18.74L0.770813 17.57C1.29081 17.622 1.88015 17.6827 2.53881 17.752C3.21481 17.8213 3.88215 17.882 4.54081 17.934C5.19948 17.986 5.75415 18.012 6.20481 18.012C7.62615 18.012 8.69215 17.6913 9.40281 17.05C10.1308 16.3913 10.4948 15.3167 10.4948 13.826C10.4948 13.0113 10.3475 12.3787 10.0528 11.928C9.75815 11.46 9.29015 11.1133 8.64881 10.888C8.02481 10.6453 7.19281 10.4373 6.15281 10.264C4.93948 10.056 3.90815 9.80467 3.05881 9.51C2.22681 9.198 1.59415 8.71267 1.16081 8.054C0.727479 7.39533 0.510813 6.45933 0.510813 5.246C0.510813 4.102 0.744813 3.192 1.21281 2.516C1.68081 1.84 2.33948 1.35467 3.18881 1.06C4.03815 0.747999 5.04348 0.592 6.20481 0.592C6.69015 0.592 7.25348 0.618 7.89481 0.669999C8.55348 0.704666 9.19481 0.756666 9.81881 0.825998C10.4601 0.895332 11.0061 0.964665 11.4568 1.034L11.3268 2.204C10.8241 2.13467 10.2435 2.074 9.58481 2.022C8.92615 1.95267 8.29348 1.892 7.68681 1.84C7.09748 1.788 6.62081 1.762 6.25681 1.762C4.83548 1.762 3.74348 2.03067 2.98081 2.568C2.23548 3.10533 1.86281 3.972 1.86281 5.168C1.86281 6.13867 2.02748 6.86667 2.35681 7.352C2.70348 7.82 3.22348 8.16667 3.91681 8.392C4.61015 8.61733 5.49415 8.834 6.56881 9.042C7.45281 9.198 8.22415 9.38 8.88281 9.588C9.54148 9.796 10.0875 10.0733 10.5208 10.42C10.9541 10.7493 11.2835 11.1827 11.5088 11.72C11.7341 12.24 11.8468 12.9073 11.8468 13.722C11.8468 15.0567 11.6301 16.1313 11.1968 16.946C10.7635 17.7433 10.1221 18.324 9.27281 18.688C8.44081 19.0347 7.43548 19.208 6.25681 19.208ZM19.6212 19.234C18.3386 19.234 17.3332 18.974 16.6052 18.454C15.8772 17.934 15.3659 17.1713 15.0712 16.166C14.7766 15.1607 14.6292 13.9473 14.6292 12.526C14.6292 10.8273 14.8632 9.49267 15.3312 8.522C15.7992 7.534 16.4232 6.832 17.2032 6.416C18.0006 5.98267 18.9192 5.766 19.9592 5.766C21.5886 5.766 22.8279 6.24267 23.6772 7.196C24.5439 8.14933 24.9772 9.73533 24.9772 11.954L24.9512 13.02H15.9292C15.9466 14.6667 16.2239 15.932 16.7612 16.816C17.2986 17.6827 18.2779 18.116 19.6992 18.116C20.1672 18.116 20.6872 18.1073 21.2592 18.09C21.8312 18.0553 22.4032 18.0207 22.9752 17.986C23.5472 17.9513 24.0412 17.9167 24.4572 17.882L24.5092 18.948C24.0932 18.9827 23.5906 19.026 23.0012 19.078C22.4292 19.13 21.8399 19.1647 21.2332 19.182C20.6439 19.2167 20.1066 19.234 19.6212 19.234ZM15.9292 11.928H23.6772C23.6772 10.056 23.3739 8.74733 22.7672 8.002C22.1779 7.23933 21.2419 6.858 19.9592 6.858C18.7112 6.858 17.7232 7.248 16.9952 8.028C16.2846 8.79067 15.9292 10.0907 15.9292 11.928ZM30.9554 19.234C29.8461 19.234 28.9794 18.9133 28.3554 18.272C27.7487 17.6307 27.4454 16.6687 27.4454 15.386C27.4454 14.606 27.5754 13.956 27.8354 13.436C28.0954 12.916 28.5027 12.5087 29.0574 12.214C29.6121 11.902 30.3227 11.7027 31.1894 11.616L35.8174 11.122V9.848C35.8174 8.808 35.5921 8.06267 35.1414 7.612C34.6907 7.144 34.0147 6.91 33.1134 6.91C32.6627 6.91 32.1341 6.936 31.5274 6.988C30.9381 7.04 30.3487 7.10067 29.7594 7.17C29.1701 7.222 28.6501 7.274 28.1994 7.326L28.1214 6.26C28.5374 6.19067 29.0401 6.12133 29.6294 6.052C30.2187 5.96533 30.8254 5.896 31.4494 5.844C32.0734 5.792 32.6454 5.766 33.1654 5.766C34.0841 5.766 34.8294 5.922 35.4014 6.234C35.9734 6.52867 36.3981 6.97933 36.6754 7.586C36.9527 8.17533 37.0914 8.92933 37.0914 9.848V17.05C37.1261 17.4313 37.3254 17.7087 37.6894 17.882C38.0534 18.038 38.4521 18.1333 38.8854 18.168L38.8334 19.234C38.5041 19.234 38.1921 19.208 37.8974 19.156C37.6201 19.1213 37.3514 19.052 37.0914 18.948C36.8834 18.8613 36.6841 18.7573 36.4934 18.636C36.3201 18.4973 36.1554 18.3413 35.9994 18.168C35.6354 18.3067 35.1761 18.4627 34.6214 18.636C34.0667 18.8093 33.4687 18.948 32.8274 19.052C32.1861 19.1733 31.5621 19.234 30.9554 19.234ZM31.0594 18.142C31.6314 18.142 32.2121 18.09 32.8014 17.986C33.3907 17.882 33.9541 17.752 34.4914 17.596C35.0287 17.44 35.4707 17.2927 35.8174 17.154V12.188L31.3194 12.63C30.3834 12.7167 29.7247 12.9853 29.3434 13.436C28.9621 13.8867 28.7714 14.528 28.7714 15.36C28.7714 16.244 28.9621 16.9287 29.3434 17.414C29.7421 17.8993 30.3141 18.142 31.0594 18.142ZM41.2012 19V6H42.4492V7.95C42.7786 7.69 43.2032 7.41267 43.7232 7.118C44.2606 6.82333 44.8499 6.546 45.4912 6.286C46.1499 6.026 46.8086 5.844 47.4672 5.74V7.014C46.8606 7.13533 46.2366 7.31733 45.5952 7.56C44.9539 7.80267 44.3559 8.06267 43.8012 8.34C43.2639 8.61733 42.8132 8.86 42.4492 9.068V19H41.2012ZM54.6948 19.234C53.2908 19.234 52.1988 19.0173 51.4188 18.584C50.6388 18.1333 50.1015 17.3967 49.8068 16.374C49.5121 15.334 49.3648 13.956 49.3648 12.24C49.3648 10.6453 49.5381 9.38 49.8848 8.444C50.2315 7.49067 50.8035 6.806 51.6008 6.39C52.3981 5.974 53.4381 5.766 54.7208 5.766C54.9808 5.766 55.3015 5.78333 55.6828 5.818C56.0815 5.83533 56.4888 5.87 56.9048 5.922C57.3208 5.974 57.6761 6.01733 57.9708 6.052L57.9188 7.144C57.6241 7.10933 57.2861 7.07467 56.9048 7.04C56.5235 7.00533 56.1421 6.97933 55.7608 6.962C55.3968 6.92733 55.0935 6.91 54.8508 6.91C53.7761 6.91 52.9355 7.08333 52.3288 7.43C51.7395 7.77667 51.3148 8.34 51.0548 9.12C50.7948 9.9 50.6648 10.94 50.6648 12.24C50.6648 13.6613 50.7688 14.8053 50.9768 15.672C51.2021 16.5213 51.6095 17.1367 52.1988 17.518C52.7881 17.8993 53.6721 18.09 54.8508 18.09C55.0935 18.09 55.3968 18.0813 55.7608 18.064C56.1421 18.0293 56.5321 17.9947 56.9308 17.96C57.3295 17.9253 57.6761 17.8993 57.9708 17.882L58.0228 18.974C57.6935 19.0087 57.3208 19.0433 56.9048 19.078C56.4888 19.13 56.0815 19.1647 55.6828 19.182C55.2841 19.2167 54.9548 19.234 54.6948 19.234ZM61.0821 19V0.124H62.3301V6.754C62.8154 6.52867 63.4654 6.312 64.2801 6.104C65.1121 5.87867 65.9094 5.766 66.6721 5.766C67.8681 5.766 68.7694 5.96533 69.3761 6.364C70.0001 6.74533 70.4247 7.404 70.6501 8.34C70.8754 9.276 70.9881 10.5587 70.9881 12.188V19H69.7141V12.266C69.7141 10.8967 69.6361 9.822 69.4801 9.042C69.3414 8.262 69.0467 7.716 68.5961 7.404C68.1627 7.07467 67.4867 6.91 66.5681 6.91C65.7707 6.91 64.9821 7.02267 64.2021 7.248C63.4221 7.456 62.7981 7.65533 62.3301 7.846V19H61.0821Z" fill="white"/>
</svg>
