<svg width="290" height="60" viewBox="0 0 290 60" fill="none" xmlns="http://www.w3.org/2000/svg">
<g filter="url(#filter0_d_250_577)">
<path d="M1 12C1 6.47715 5.47715 2 11 2H271C276.523 2 281 6.47715 281 12V42C281 47.5228 276.523 52 271 52H11C5.47715 52 1 47.5228 1 42V12Z" stroke="white" stroke-width="1.4" shape-rendering="crispEdges"/>
</g>
<path d="M115.08 32.16C114.739 32.16 114.344 32.1387 113.896 32.096C113.459 32.0533 113.027 32 112.6 31.936C112.173 31.872 111.8 31.8187 111.48 31.776L111.608 30.528C111.917 30.56 112.28 30.6027 112.696 30.656C113.123 30.6987 113.539 30.736 113.944 30.768C114.349 30.8 114.696 30.816 114.984 30.816C115.72 30.816 116.264 30.656 116.616 30.336C116.979 30.016 117.16 29.5147 117.16 28.832C117.16 28.4587 117.085 28.1653 116.936 27.952C116.797 27.728 116.557 27.552 116.216 27.424C115.875 27.2853 115.416 27.1627 114.84 27.056C114.051 26.896 113.4 26.704 112.888 26.48C112.376 26.256 111.997 25.9413 111.752 25.536C111.507 25.12 111.384 24.56 111.384 23.856C111.384 23.1093 111.528 22.512 111.816 22.064C112.115 21.616 112.536 21.2907 113.08 21.088C113.635 20.8853 114.28 20.784 115.016 20.784C115.347 20.784 115.72 20.8053 116.136 20.848C116.563 20.88 116.979 20.9227 117.384 20.976C117.8 21.0293 118.157 21.0827 118.456 21.136L118.344 22.4C118.035 22.3573 117.672 22.32 117.256 22.288C116.851 22.2453 116.456 22.208 116.072 22.176C115.688 22.144 115.379 22.128 115.144 22.128C114.408 22.128 113.853 22.2613 113.48 22.528C113.117 22.784 112.936 23.1893 112.936 23.744C112.936 24.1707 113.016 24.496 113.176 24.72C113.336 24.944 113.603 25.12 113.976 25.248C114.349 25.376 114.84 25.5147 115.448 25.664C116.024 25.792 116.515 25.9307 116.92 26.08C117.336 26.2293 117.677 26.416 117.944 26.64C118.211 26.864 118.403 27.1413 118.52 27.472C118.648 27.8027 118.712 28.2187 118.712 28.72C118.712 29.5413 118.563 30.2027 118.264 30.704C117.976 31.2053 117.56 31.5733 117.016 31.808C116.472 32.0427 115.827 32.16 115.08 32.16ZM120.47 32V23.984H121.958V32H120.47ZM120.47 22.368V20.816H121.958V22.368H120.47ZM127.311 35.728C126.469 35.728 125.786 35.6587 125.263 35.52C124.741 35.3813 124.357 35.136 124.111 34.784C123.866 34.4427 123.743 33.968 123.743 33.36C123.743 33.0507 123.786 32.784 123.871 32.56C123.967 32.3467 124.106 32.1493 124.287 31.968C124.479 31.776 124.714 31.5787 124.991 31.376C124.842 31.2693 124.725 31.1147 124.639 30.912C124.565 30.7093 124.527 30.4853 124.527 30.24C124.527 30.1227 124.591 29.936 124.719 29.68C124.847 29.424 124.975 29.1947 125.103 28.992C124.879 28.8853 124.671 28.7413 124.479 28.56C124.298 28.368 124.149 28.112 124.031 27.792C123.914 27.472 123.855 27.0667 123.855 26.576C123.855 25.584 124.133 24.88 124.687 24.464C125.253 24.0373 126.005 23.824 126.943 23.824C127.231 23.824 127.535 23.8453 127.855 23.888C128.175 23.9307 128.426 23.9787 128.607 24.032L131.055 23.968V25.136L129.631 25.104C129.77 25.2427 129.882 25.4293 129.967 25.664C130.063 25.8987 130.111 26.2027 130.111 26.576C130.111 27.28 129.994 27.8347 129.759 28.24C129.525 28.6347 129.167 28.912 128.687 29.072C128.218 29.2213 127.626 29.296 126.911 29.296C126.837 29.296 126.714 29.2907 126.543 29.28C126.383 29.2587 126.261 29.2427 126.175 29.232C126.111 29.3707 126.047 29.5307 125.983 29.712C125.93 29.8827 125.903 30.0053 125.903 30.08C125.903 30.2613 125.941 30.4 126.015 30.496C126.101 30.592 126.277 30.656 126.543 30.688C126.821 30.72 127.253 30.736 127.839 30.736C128.607 30.736 129.221 30.8053 129.679 30.944C130.138 31.072 130.463 31.3067 130.655 31.648C130.847 31.9787 130.943 32.464 130.943 33.104C130.943 34.032 130.623 34.6987 129.983 35.104C129.343 35.52 128.453 35.728 127.311 35.728ZM127.295 34.528C128.042 34.528 128.591 34.4267 128.943 34.224C129.295 34.0213 129.471 33.6853 129.471 33.216C129.471 32.8533 129.413 32.5867 129.295 32.416C129.189 32.2453 128.997 32.1333 128.719 32.08C128.442 32.0267 128.074 32 127.615 32C127.519 32 127.386 32 127.215 32C127.055 31.9893 126.885 31.984 126.703 31.984C126.533 31.9733 126.378 31.9627 126.239 31.952C126.101 31.9413 126.005 31.936 125.951 31.936C125.653 32.1493 125.445 32.3413 125.327 32.512C125.21 32.6933 125.151 32.9227 125.151 33.2C125.151 33.52 125.215 33.776 125.343 33.968C125.471 34.1707 125.69 34.3147 125.999 34.4C126.309 34.4853 126.741 34.528 127.295 34.528ZM126.943 28.176C127.562 28.176 127.999 28.0533 128.255 27.808C128.522 27.5627 128.655 27.152 128.655 26.576C128.655 26 128.522 25.5893 128.255 25.344C127.999 25.0987 127.562 24.976 126.943 24.976C126.367 24.976 125.951 25.0987 125.695 25.344C125.45 25.5893 125.327 26 125.327 26.576C125.327 27.152 125.45 27.5627 125.695 27.808C125.951 28.0533 126.367 28.176 126.943 28.176ZM132.408 32V23.984H133.896V24.544C134.067 24.4373 134.285 24.3307 134.552 24.224C134.819 24.1173 135.101 24.0267 135.4 23.952C135.699 23.8667 135.987 23.824 136.264 23.824C137.011 23.824 137.581 23.9573 137.976 24.224C138.371 24.48 138.643 24.9013 138.792 25.488C138.952 26.064 139.032 26.8267 139.032 27.776V32H137.528V27.856C137.528 27.1947 137.491 26.6667 137.416 26.272C137.341 25.8773 137.192 25.5947 136.968 25.424C136.744 25.2427 136.408 25.152 135.96 25.152C135.715 25.152 135.459 25.1787 135.192 25.232C134.936 25.2853 134.691 25.3547 134.456 25.44C134.232 25.5253 134.045 25.6053 133.896 25.68V32H132.408ZM148.628 32.16C147.796 32.16 147.081 32.0427 146.484 31.808C145.897 31.5733 145.449 31.1947 145.14 30.672C144.83 30.1493 144.676 29.4507 144.676 28.576V20.976H146.212V28.624C146.212 29.4027 146.425 29.968 146.852 30.32C147.278 30.6613 147.87 30.832 148.628 30.832C149.428 30.832 150.041 30.6613 150.468 30.32C150.894 29.968 151.108 29.4027 151.108 28.624V20.976H152.644V28.576C152.644 29.4293 152.489 30.1227 152.18 30.656C151.87 31.1893 151.417 31.5733 150.82 31.808C150.222 32.0427 149.492 32.16 148.628 32.16ZM154.892 35.488V23.984H156.38V24.544C156.54 24.448 156.748 24.3467 157.004 24.24C157.26 24.1227 157.532 24.0267 157.82 23.952C158.108 23.8667 158.386 23.824 158.652 23.824C159.687 23.824 160.439 24.1547 160.908 24.816C161.378 25.4667 161.612 26.5013 161.612 27.92C161.612 28.9547 161.49 29.7867 161.244 30.416C161.01 31.0347 160.631 31.4827 160.108 31.76C159.596 32.0267 158.93 32.16 158.108 32.16C157.788 32.16 157.463 32.1387 157.132 32.096C156.812 32.0533 156.562 32.016 156.38 31.984V35.488H154.892ZM157.964 30.88C158.498 30.88 158.919 30.7787 159.228 30.576C159.548 30.3733 159.772 30.0533 159.9 29.616C160.028 29.1787 160.092 28.608 160.092 27.904C160.092 26.88 159.943 26.1653 159.644 25.76C159.346 25.344 158.924 25.136 158.38 25.136C158.146 25.136 157.9 25.168 157.644 25.232C157.399 25.2853 157.164 25.3547 156.94 25.44C156.716 25.5147 156.53 25.6 156.38 25.696V30.736C156.54 30.7573 156.77 30.7893 157.068 30.832C157.378 30.864 157.676 30.88 157.964 30.88Z" fill="white"/>
<defs>
<filter id="filter0_d_250_577" x="0.300049" y="0.300003" width="289.4" height="59.4" filterUnits="userSpaceOnUse" color-interpolation-filters="sRGB">
<feFlood flood-opacity="0" result="BackgroundImageFix"/>
<feColorMatrix in="SourceAlpha" type="matrix" values="0 0 0 0 0 0 0 0 0 0 0 0 0 0 0 0 0 0 127 0" result="hardAlpha"/>
<feOffset dx="4" dy="3"/>
<feGaussianBlur stdDeviation="2"/>
<feComposite in2="hardAlpha" operator="out"/>
<feColorMatrix type="matrix" values="0 0 0 0 0.266667 0 0 0 0 0.301961 0 0 0 0 0.333333 0 0 0 1 0"/>
<feBlend mode="normal" in2="BackgroundImageFix" result="effect1_dropShadow_250_577"/>
<feBlend mode="normal" in="SourceGraphic" in2="effect1_dropShadow_250_577" result="shape"/>
</filter>
</defs>
</svg>
