<svg width="288" height="58" viewBox="0 0 288 58" fill="none" xmlns="http://www.w3.org/2000/svg">
<g filter="url(#filter0_d_250_580)">
<path d="M3 11C3 5.47715 7.47715 1 13 1H273C278.523 1 283 5.47715 283 11V41C283 46.5228 278.523 51 273 51H13C7.47715 51 3 46.5228 3 41V11Z" fill="#F3F9FF"/>
</g>
<path d="M117.08 31.16C116.739 31.16 116.344 31.1387 115.896 31.096C115.459 31.0533 115.027 31 114.6 30.936C114.173 30.872 113.8 30.8187 113.48 30.776L113.608 29.528C113.917 29.56 114.28 29.6027 114.696 29.656C115.123 29.6987 115.539 29.736 115.944 29.768C116.349 29.8 116.696 29.816 116.984 29.816C117.72 29.816 118.264 29.656 118.616 29.336C118.979 29.016 119.16 28.5147 119.16 27.832C119.16 27.4587 119.085 27.1653 118.936 26.952C118.797 26.728 118.557 26.552 118.216 26.424C117.875 26.2853 117.416 26.1627 116.84 26.056C116.051 25.896 115.4 25.704 114.888 25.48C114.376 25.256 113.997 24.9413 113.752 24.536C113.507 24.12 113.384 23.56 113.384 22.856C113.384 22.1093 113.528 21.512 113.816 21.064C114.115 20.616 114.536 20.2907 115.08 20.088C115.635 19.8853 116.28 19.784 117.016 19.784C117.347 19.784 117.72 19.8053 118.136 19.848C118.563 19.88 118.979 19.9227 119.384 19.976C119.8 20.0293 120.157 20.0827 120.456 20.136L120.344 21.4C120.035 21.3573 119.672 21.32 119.256 21.288C118.851 21.2453 118.456 21.208 118.072 21.176C117.688 21.144 117.379 21.128 117.144 21.128C116.408 21.128 115.853 21.2613 115.48 21.528C115.117 21.784 114.936 22.1893 114.936 22.744C114.936 23.1707 115.016 23.496 115.176 23.72C115.336 23.944 115.603 24.12 115.976 24.248C116.349 24.376 116.84 24.5147 117.448 24.664C118.024 24.792 118.515 24.9307 118.92 25.08C119.336 25.2293 119.677 25.416 119.944 25.64C120.211 25.864 120.403 26.1413 120.52 26.472C120.648 26.8027 120.712 27.2187 120.712 27.72C120.712 28.5413 120.563 29.2027 120.264 29.704C119.976 30.2053 119.56 30.5733 119.016 30.808C118.472 31.0427 117.827 31.16 117.08 31.16ZM122.47 31V22.984H123.958V31H122.47ZM122.47 21.368V19.816H123.958V21.368H122.47ZM129.311 34.728C128.469 34.728 127.786 34.6587 127.263 34.52C126.741 34.3813 126.357 34.136 126.111 33.784C125.866 33.4427 125.743 32.968 125.743 32.36C125.743 32.0507 125.786 31.784 125.871 31.56C125.967 31.3467 126.106 31.1493 126.287 30.968C126.479 30.776 126.714 30.5787 126.991 30.376C126.842 30.2693 126.725 30.1147 126.639 29.912C126.565 29.7093 126.527 29.4853 126.527 29.24C126.527 29.1227 126.591 28.936 126.719 28.68C126.847 28.424 126.975 28.1947 127.103 27.992C126.879 27.8853 126.671 27.7413 126.479 27.56C126.298 27.368 126.149 27.112 126.031 26.792C125.914 26.472 125.855 26.0667 125.855 25.576C125.855 24.584 126.133 23.88 126.687 23.464C127.253 23.0373 128.005 22.824 128.943 22.824C129.231 22.824 129.535 22.8453 129.855 22.888C130.175 22.9307 130.426 22.9787 130.607 23.032L133.055 22.968V24.136L131.631 24.104C131.77 24.2427 131.882 24.4293 131.967 24.664C132.063 24.8987 132.111 25.2027 132.111 25.576C132.111 26.28 131.994 26.8347 131.759 27.24C131.525 27.6347 131.167 27.912 130.687 28.072C130.218 28.2213 129.626 28.296 128.911 28.296C128.837 28.296 128.714 28.2907 128.543 28.28C128.383 28.2587 128.261 28.2427 128.175 28.232C128.111 28.3707 128.047 28.5307 127.983 28.712C127.93 28.8827 127.903 29.0053 127.903 29.08C127.903 29.2613 127.941 29.4 128.015 29.496C128.101 29.592 128.277 29.656 128.543 29.688C128.821 29.72 129.253 29.736 129.839 29.736C130.607 29.736 131.221 29.8053 131.679 29.944C132.138 30.072 132.463 30.3067 132.655 30.648C132.847 30.9787 132.943 31.464 132.943 32.104C132.943 33.032 132.623 33.6987 131.983 34.104C131.343 34.52 130.453 34.728 129.311 34.728ZM129.295 33.528C130.042 33.528 130.591 33.4267 130.943 33.224C131.295 33.0213 131.471 32.6853 131.471 32.216C131.471 31.8533 131.413 31.5867 131.295 31.416C131.189 31.2453 130.997 31.1333 130.719 31.08C130.442 31.0267 130.074 31 129.615 31C129.519 31 129.386 31 129.215 31C129.055 30.9893 128.885 30.984 128.703 30.984C128.533 30.9733 128.378 30.9627 128.239 30.952C128.101 30.9413 128.005 30.936 127.951 30.936C127.653 31.1493 127.445 31.3413 127.327 31.512C127.21 31.6933 127.151 31.9227 127.151 32.2C127.151 32.52 127.215 32.776 127.343 32.968C127.471 33.1707 127.69 33.3147 127.999 33.4C128.309 33.4853 128.741 33.528 129.295 33.528ZM128.943 27.176C129.562 27.176 129.999 27.0533 130.255 26.808C130.522 26.5627 130.655 26.152 130.655 25.576C130.655 25 130.522 24.5893 130.255 24.344C129.999 24.0987 129.562 23.976 128.943 23.976C128.367 23.976 127.951 24.0987 127.695 24.344C127.45 24.5893 127.327 25 127.327 25.576C127.327 26.152 127.45 26.5627 127.695 26.808C127.951 27.0533 128.367 27.176 128.943 27.176ZM134.408 31V22.984H135.896V23.544C136.067 23.4373 136.285 23.3307 136.552 23.224C136.819 23.1173 137.101 23.0267 137.4 22.952C137.699 22.8667 137.987 22.824 138.264 22.824C139.011 22.824 139.581 22.9573 139.976 23.224C140.371 23.48 140.643 23.9013 140.792 24.488C140.952 25.064 141.032 25.8267 141.032 26.776V31H139.528V26.856C139.528 26.1947 139.491 25.6667 139.416 25.272C139.341 24.8773 139.192 24.5947 138.968 24.424C138.744 24.2427 138.408 24.152 137.96 24.152C137.715 24.152 137.459 24.1787 137.192 24.232C136.936 24.2853 136.691 24.3547 136.456 24.44C136.232 24.5253 136.045 24.6053 135.896 24.68V31H134.408ZM150.628 31.16C149.796 31.16 149.081 31.0427 148.484 30.808C147.897 30.5733 147.449 30.1947 147.14 29.672C146.83 29.1493 146.676 28.4507 146.676 27.576V19.976H148.212V27.624C148.212 28.4027 148.425 28.968 148.852 29.32C149.278 29.6613 149.87 29.832 150.628 29.832C151.428 29.832 152.041 29.6613 152.468 29.32C152.894 28.968 153.108 28.4027 153.108 27.624V19.976H154.644V27.576C154.644 28.4293 154.489 29.1227 154.18 29.656C153.87 30.1893 153.417 30.5733 152.82 30.808C152.222 31.0427 151.492 31.16 150.628 31.16ZM156.892 34.488V22.984H158.38V23.544C158.54 23.448 158.748 23.3467 159.004 23.24C159.26 23.1227 159.532 23.0267 159.82 22.952C160.108 22.8667 160.386 22.824 160.652 22.824C161.687 22.824 162.439 23.1547 162.908 23.816C163.378 24.4667 163.612 25.5013 163.612 26.92C163.612 27.9547 163.49 28.7867 163.244 29.416C163.01 30.0347 162.631 30.4827 162.108 30.76C161.596 31.0267 160.93 31.16 160.108 31.16C159.788 31.16 159.463 31.1387 159.132 31.096C158.812 31.0533 158.562 31.016 158.38 30.984V34.488H156.892ZM159.964 29.88C160.498 29.88 160.919 29.7787 161.228 29.576C161.548 29.3733 161.772 29.0533 161.9 28.616C162.028 28.1787 162.092 27.608 162.092 26.904C162.092 25.88 161.943 25.1653 161.644 24.76C161.346 24.344 160.924 24.136 160.38 24.136C160.146 24.136 159.9 24.168 159.644 24.232C159.399 24.2853 159.164 24.3547 158.94 24.44C158.716 24.5147 158.53 24.6 158.38 24.696V29.736C158.54 29.7573 158.77 29.7893 159.068 29.832C159.378 29.864 159.676 29.88 159.964 29.88Z" fill="#3F3A3A"/>
<defs>
<filter id="filter0_d_250_580" x="0" y="0" width="288" height="58" filterUnits="userSpaceOnUse" color-interpolation-filters="sRGB">
<feFlood flood-opacity="0" result="BackgroundImageFix"/>
<feColorMatrix in="SourceAlpha" type="matrix" values="0 0 0 0 0 0 0 0 0 0 0 0 0 0 0 0 0 0 127 0" result="hardAlpha"/>
<feOffset dx="1" dy="3"/>
<feGaussianBlur stdDeviation="2"/>
<feComposite in2="hardAlpha" operator="out"/>
<feColorMatrix type="matrix" values="0 0 0 0 0.266667 0 0 0 0 0.3 0 0 0 0 0.333333 0 0 0 0.71 0"/>
<feBlend mode="normal" in2="BackgroundImageFix" result="effect1_dropShadow_250_580"/>
<feBlend mode="normal" in="SourceGraphic" in2="effect1_dropShadow_250_580" result="shape"/>
</filter>
</defs>
</svg>
