<svg width="290" height="60" viewBox="0 0 290 60" fill="none" xmlns="http://www.w3.org/2000/svg">
<g filter="url(#filter0_d_250_579)">
<path d="M1 12C1 6.47715 5.47715 2 11 2H271C276.523 2 281 6.47715 281 12V42C281 47.5228 276.523 52 271 52H11C5.47715 52 1 47.5228 1 42V12Z" stroke="white" stroke-width="1.4" shape-rendering="crispEdges"/>
</g>
<path d="M119.342 32V20.976H120.878V30.656H125.566V32H119.342ZM130.022 32.16C129.126 32.16 128.422 32.0107 127.91 31.712C127.398 31.4027 127.035 30.9333 126.822 30.304C126.608 29.6747 126.502 28.8747 126.502 27.904C126.502 26.976 126.614 26.2133 126.838 25.616C127.072 25.0187 127.446 24.5707 127.958 24.272C128.48 23.9733 129.168 23.824 130.022 23.824C130.886 23.824 131.574 23.9733 132.086 24.272C132.598 24.5707 132.966 25.0187 133.19 25.616C133.424 26.2133 133.542 26.976 133.542 27.904C133.542 28.8747 133.435 29.6747 133.222 30.304C133.019 30.9333 132.662 31.4027 132.15 31.712C131.638 32.0107 130.928 32.16 130.022 32.16ZM130.022 30.896C130.587 30.896 131.014 30.7947 131.302 30.592C131.59 30.3893 131.782 30.0693 131.878 29.632C131.974 29.184 132.022 28.608 132.022 27.904C132.022 27.2107 131.963 26.6613 131.846 26.256C131.728 25.84 131.526 25.5413 131.238 25.36C130.95 25.1787 130.544 25.088 130.022 25.088C129.51 25.088 129.104 25.1787 128.806 25.36C128.518 25.5413 128.315 25.84 128.198 26.256C128.08 26.6613 128.022 27.2107 128.022 27.904C128.022 28.608 128.07 29.184 128.166 29.632C128.262 30.0693 128.448 30.3893 128.726 30.592C129.014 30.7947 129.446 30.896 130.022 30.896ZM138.585 35.728C137.742 35.728 137.06 35.6587 136.537 35.52C136.014 35.3813 135.63 35.136 135.385 34.784C135.14 34.4427 135.017 33.968 135.017 33.36C135.017 33.0507 135.06 32.784 135.145 32.56C135.241 32.3467 135.38 32.1493 135.561 31.968C135.753 31.776 135.988 31.5787 136.265 31.376C136.116 31.2693 135.998 31.1147 135.913 30.912C135.838 30.7093 135.801 30.4853 135.801 30.24C135.801 30.1227 135.865 29.936 135.993 29.68C136.121 29.424 136.249 29.1947 136.377 28.992C136.153 28.8853 135.945 28.7413 135.753 28.56C135.572 28.368 135.422 28.112 135.305 27.792C135.188 27.472 135.129 27.0667 135.129 26.576C135.129 25.584 135.406 24.88 135.961 24.464C136.526 24.0373 137.278 23.824 138.217 23.824C138.505 23.824 138.809 23.8453 139.129 23.888C139.449 23.9307 139.7 23.9787 139.881 24.032L142.329 23.968V25.136L140.905 25.104C141.044 25.2427 141.156 25.4293 141.241 25.664C141.337 25.8987 141.385 26.2027 141.385 26.576C141.385 27.28 141.268 27.8347 141.033 28.24C140.798 28.6347 140.441 28.912 139.961 29.072C139.492 29.2213 138.9 29.296 138.185 29.296C138.11 29.296 137.988 29.2907 137.817 29.28C137.657 29.2587 137.534 29.2427 137.449 29.232C137.385 29.3707 137.321 29.5307 137.257 29.712C137.204 29.8827 137.177 30.0053 137.177 30.08C137.177 30.2613 137.214 30.4 137.289 30.496C137.374 30.592 137.55 30.656 137.817 30.688C138.094 30.72 138.526 30.736 139.113 30.736C139.881 30.736 140.494 30.8053 140.953 30.944C141.412 31.072 141.737 31.3067 141.929 31.648C142.121 31.9787 142.217 32.464 142.217 33.104C142.217 34.032 141.897 34.6987 141.257 35.104C140.617 35.52 139.726 35.728 138.585 35.728ZM138.569 34.528C139.316 34.528 139.865 34.4267 140.217 34.224C140.569 34.0213 140.745 33.6853 140.745 33.216C140.745 32.8533 140.686 32.5867 140.569 32.416C140.462 32.2453 140.27 32.1333 139.993 32.08C139.716 32.0267 139.348 32 138.889 32C138.793 32 138.66 32 138.489 32C138.329 31.9893 138.158 31.984 137.977 31.984C137.806 31.9733 137.652 31.9627 137.513 31.952C137.374 31.9413 137.278 31.936 137.225 31.936C136.926 32.1493 136.718 32.3413 136.601 32.512C136.484 32.6933 136.425 32.9227 136.425 33.2C136.425 33.52 136.489 33.776 136.617 33.968C136.745 34.1707 136.964 34.3147 137.273 34.4C137.582 34.4853 138.014 34.528 138.569 34.528ZM138.217 28.176C138.836 28.176 139.273 28.0533 139.529 27.808C139.796 27.5627 139.929 27.152 139.929 26.576C139.929 26 139.796 25.5893 139.529 25.344C139.273 25.0987 138.836 24.976 138.217 24.976C137.641 24.976 137.225 25.0987 136.969 25.344C136.724 25.5893 136.601 26 136.601 26.576C136.601 27.152 136.724 27.5627 136.969 27.808C137.225 28.0533 137.641 28.176 138.217 28.176ZM143.681 32V23.984H145.169V32H143.681ZM143.681 22.368V20.816H145.169V22.368H143.681ZM147.306 32V23.984H148.794V24.544C148.965 24.4373 149.184 24.3307 149.45 24.224C149.717 24.1173 150 24.0267 150.298 23.952C150.597 23.8667 150.885 23.824 151.162 23.824C151.909 23.824 152.48 23.9573 152.874 24.224C153.269 24.48 153.541 24.9013 153.69 25.488C153.85 26.064 153.93 26.8267 153.93 27.776V32H152.426V27.856C152.426 27.1947 152.389 26.6667 152.314 26.272C152.24 25.8773 152.09 25.5947 151.866 25.424C151.642 25.2427 151.306 25.152 150.858 25.152C150.613 25.152 150.357 25.1787 150.09 25.232C149.834 25.2853 149.589 25.3547 149.354 25.44C149.13 25.5253 148.944 25.6053 148.794 25.68V32H147.306Z" fill="white"/>
<defs>
<filter id="filter0_d_250_579" x="0.300049" y="0.300003" width="289.4" height="59.4" filterUnits="userSpaceOnUse" color-interpolation-filters="sRGB">
<feFlood flood-opacity="0" result="BackgroundImageFix"/>
<feColorMatrix in="SourceAlpha" type="matrix" values="0 0 0 0 0 0 0 0 0 0 0 0 0 0 0 0 0 0 127 0" result="hardAlpha"/>
<feOffset dx="4" dy="3"/>
<feGaussianBlur stdDeviation="2"/>
<feComposite in2="hardAlpha" operator="out"/>
<feColorMatrix type="matrix" values="0 0 0 0 0.266667 0 0 0 0 0.301961 0 0 0 0 0.333333 0 0 0 1 0"/>
<feBlend mode="normal" in2="BackgroundImageFix" result="effect1_dropShadow_250_579"/>
<feBlend mode="normal" in="SourceGraphic" in2="effect1_dropShadow_250_579" result="shape"/>
</filter>
</defs>
</svg>
