<svg width="288" height="58" viewBox="0 0 288 58" fill="none" xmlns="http://www.w3.org/2000/svg">
<g filter="url(#filter0_d_250_578)">
<path d="M3 11C3 5.47715 7.47715 1 13 1H273C278.523 1 283 5.47715 283 11V41C283 46.5228 278.523 51 273 51H13C7.47715 51 3 46.5228 3 41V11Z" fill="#F3F9FF"/>
</g>
<path d="M121.342 31V19.976H122.878V29.656H127.566V31H121.342ZM132.022 31.16C131.126 31.16 130.422 31.0107 129.91 30.712C129.398 30.4027 129.035 29.9333 128.822 29.304C128.608 28.6747 128.502 27.8747 128.502 26.904C128.502 25.976 128.614 25.2133 128.838 24.616C129.072 24.0187 129.446 23.5707 129.958 23.272C130.48 22.9733 131.168 22.824 132.022 22.824C132.886 22.824 133.574 22.9733 134.086 23.272C134.598 23.5707 134.966 24.0187 135.19 24.616C135.424 25.2133 135.542 25.976 135.542 26.904C135.542 27.8747 135.435 28.6747 135.222 29.304C135.019 29.9333 134.662 30.4027 134.15 30.712C133.638 31.0107 132.928 31.16 132.022 31.16ZM132.022 29.896C132.587 29.896 133.014 29.7947 133.302 29.592C133.59 29.3893 133.782 29.0693 133.878 28.632C133.974 28.184 134.022 27.608 134.022 26.904C134.022 26.2107 133.963 25.6613 133.846 25.256C133.728 24.84 133.526 24.5413 133.238 24.36C132.95 24.1787 132.544 24.088 132.022 24.088C131.51 24.088 131.104 24.1787 130.806 24.36C130.518 24.5413 130.315 24.84 130.198 25.256C130.08 25.6613 130.022 26.2107 130.022 26.904C130.022 27.608 130.07 28.184 130.166 28.632C130.262 29.0693 130.448 29.3893 130.726 29.592C131.014 29.7947 131.446 29.896 132.022 29.896ZM140.585 34.728C139.742 34.728 139.06 34.6587 138.537 34.52C138.014 34.3813 137.63 34.136 137.385 33.784C137.14 33.4427 137.017 32.968 137.017 32.36C137.017 32.0507 137.06 31.784 137.145 31.56C137.241 31.3467 137.38 31.1493 137.561 30.968C137.753 30.776 137.988 30.5787 138.265 30.376C138.116 30.2693 137.998 30.1147 137.913 29.912C137.838 29.7093 137.801 29.4853 137.801 29.24C137.801 29.1227 137.865 28.936 137.993 28.68C138.121 28.424 138.249 28.1947 138.377 27.992C138.153 27.8853 137.945 27.7413 137.753 27.56C137.572 27.368 137.422 27.112 137.305 26.792C137.188 26.472 137.129 26.0667 137.129 25.576C137.129 24.584 137.406 23.88 137.961 23.464C138.526 23.0373 139.278 22.824 140.217 22.824C140.505 22.824 140.809 22.8453 141.129 22.888C141.449 22.9307 141.7 22.9787 141.881 23.032L144.329 22.968V24.136L142.905 24.104C143.044 24.2427 143.156 24.4293 143.241 24.664C143.337 24.8987 143.385 25.2027 143.385 25.576C143.385 26.28 143.268 26.8347 143.033 27.24C142.798 27.6347 142.441 27.912 141.961 28.072C141.492 28.2213 140.9 28.296 140.185 28.296C140.11 28.296 139.988 28.2907 139.817 28.28C139.657 28.2587 139.534 28.2427 139.449 28.232C139.385 28.3707 139.321 28.5307 139.257 28.712C139.204 28.8827 139.177 29.0053 139.177 29.08C139.177 29.2613 139.214 29.4 139.289 29.496C139.374 29.592 139.55 29.656 139.817 29.688C140.094 29.72 140.526 29.736 141.113 29.736C141.881 29.736 142.494 29.8053 142.953 29.944C143.412 30.072 143.737 30.3067 143.929 30.648C144.121 30.9787 144.217 31.464 144.217 32.104C144.217 33.032 143.897 33.6987 143.257 34.104C142.617 34.52 141.726 34.728 140.585 34.728ZM140.569 33.528C141.316 33.528 141.865 33.4267 142.217 33.224C142.569 33.0213 142.745 32.6853 142.745 32.216C142.745 31.8533 142.686 31.5867 142.569 31.416C142.462 31.2453 142.27 31.1333 141.993 31.08C141.716 31.0267 141.348 31 140.889 31C140.793 31 140.66 31 140.489 31C140.329 30.9893 140.158 30.984 139.977 30.984C139.806 30.9733 139.652 30.9627 139.513 30.952C139.374 30.9413 139.278 30.936 139.225 30.936C138.926 31.1493 138.718 31.3413 138.601 31.512C138.484 31.6933 138.425 31.9227 138.425 32.2C138.425 32.52 138.489 32.776 138.617 32.968C138.745 33.1707 138.964 33.3147 139.273 33.4C139.582 33.4853 140.014 33.528 140.569 33.528ZM140.217 27.176C140.836 27.176 141.273 27.0533 141.529 26.808C141.796 26.5627 141.929 26.152 141.929 25.576C141.929 25 141.796 24.5893 141.529 24.344C141.273 24.0987 140.836 23.976 140.217 23.976C139.641 23.976 139.225 24.0987 138.969 24.344C138.724 24.5893 138.601 25 138.601 25.576C138.601 26.152 138.724 26.5627 138.969 26.808C139.225 27.0533 139.641 27.176 140.217 27.176ZM145.681 31V22.984H147.169V31H145.681ZM145.681 21.368V19.816H147.169V21.368H145.681ZM149.306 31V22.984H150.794V23.544C150.965 23.4373 151.184 23.3307 151.45 23.224C151.717 23.1173 152 23.0267 152.298 22.952C152.597 22.8667 152.885 22.824 153.162 22.824C153.909 22.824 154.48 22.9573 154.874 23.224C155.269 23.48 155.541 23.9013 155.69 24.488C155.85 25.064 155.93 25.8267 155.93 26.776V31H154.426V26.856C154.426 26.1947 154.389 25.6667 154.314 25.272C154.24 24.8773 154.09 24.5947 153.866 24.424C153.642 24.2427 153.306 24.152 152.858 24.152C152.613 24.152 152.357 24.1787 152.09 24.232C151.834 24.2853 151.589 24.3547 151.354 24.44C151.13 24.5253 150.944 24.6053 150.794 24.68V31H149.306Z" fill="#3F3A3A"/>
<defs>
<filter id="filter0_d_250_578" x="0" y="0" width="288" height="58" filterUnits="userSpaceOnUse" color-interpolation-filters="sRGB">
<feFlood flood-opacity="0" result="BackgroundImageFix"/>
<feColorMatrix in="SourceAlpha" type="matrix" values="0 0 0 0 0 0 0 0 0 0 0 0 0 0 0 0 0 0 127 0" result="hardAlpha"/>
<feOffset dx="1" dy="3"/>
<feGaussianBlur stdDeviation="2"/>
<feComposite in2="hardAlpha" operator="out"/>
<feColorMatrix type="matrix" values="0 0 0 0 0.266667 0 0 0 0 0.3 0 0 0 0 0.333333 0 0 0 0.71 0"/>
<feBlend mode="normal" in2="BackgroundImageFix" result="effect1_dropShadow_250_578"/>
<feBlend mode="normal" in="SourceGraphic" in2="effect1_dropShadow_250_578" result="shape"/>
</filter>
</defs>
</svg>
