<svg width="111" height="20" viewBox="0 0 111 20" fill="none" xmlns="http://www.w3.org/2000/svg">
<path d="M0.613586 19V1.242H4.20159V8.652H11.0916V1.242H14.6796V19H11.0916V11.668H4.20159V19H0.613586ZM23.0254 19.286C21.5867 19.286 20.4427 19.0433 19.5934 18.558C18.7614 18.0727 18.1634 17.336 17.7994 16.348C17.4354 15.36 17.2534 14.1207 17.2534 12.63C17.2534 11.018 17.4787 9.70067 17.9294 8.678C18.3974 7.65533 19.0734 6.90133 19.9574 6.416C20.8414 5.91333 21.9334 5.662 23.2334 5.662C25.1574 5.662 26.6047 6.14733 27.5754 7.118C28.5634 8.08867 29.0574 9.62267 29.0574 11.72L28.9014 13.644H20.7374C20.7547 14.6147 20.954 15.3427 21.3354 15.828C21.7167 16.3133 22.3754 16.556 23.3114 16.556C23.8487 16.556 24.438 16.5473 25.0794 16.53C25.7207 16.4953 26.3534 16.4607 26.9774 16.426C27.6187 16.3913 28.1647 16.3567 28.6154 16.322L28.6934 18.74C28.2601 18.8093 27.7141 18.8873 27.0554 18.974C26.3967 19.0607 25.7121 19.13 25.0014 19.182C24.308 19.2513 23.6494 19.286 23.0254 19.286ZM20.7374 11.434H25.5994C25.5994 10.2553 25.4087 9.432 25.0274 8.964C24.6634 8.496 24.0654 8.262 23.2334 8.262C22.4187 8.262 21.7947 8.50467 21.3614 8.99C20.9454 9.47533 20.7374 10.29 20.7374 11.434ZM34.7628 19.286C33.4108 19.286 32.3881 18.948 31.6948 18.272C31.0188 17.5787 30.6808 16.5387 30.6808 15.152C30.6808 14.1813 30.8541 13.4273 31.2008 12.89C31.5474 12.3353 32.0588 11.9367 32.7348 11.694C33.4281 11.434 34.2688 11.278 35.2568 11.226L38.4288 10.94V10.16C38.4288 9.536 38.2728 9.10267 37.9608 8.86C37.6488 8.6 37.1894 8.47 36.5828 8.47C36.0974 8.47 35.5341 8.48733 34.8928 8.522C34.2688 8.55667 33.6448 8.6 33.0208 8.652C32.4141 8.704 31.8854 8.756 31.4348 8.808L31.3308 6.364C31.7814 6.26 32.3188 6.156 32.9428 6.052C33.5841 5.93067 34.2514 5.83533 34.9448 5.766C35.6381 5.69667 36.2794 5.662 36.8688 5.662C37.9781 5.662 38.9054 5.80067 39.6508 6.078C40.3961 6.35533 40.9594 6.81467 41.3408 7.456C41.7221 8.08 41.9128 8.92933 41.9128 10.004V15.958C41.9474 16.2007 42.0774 16.3913 42.3028 16.53C42.5281 16.6513 42.7881 16.738 43.0828 16.79L43.0048 19.182C42.5888 19.1993 42.1814 19.208 41.7828 19.208C41.3841 19.208 41.0461 19.182 40.7688 19.13C40.3701 19.078 40.0234 18.974 39.7288 18.818C39.4514 18.662 39.2261 18.4973 39.0528 18.324C38.7754 18.4453 38.4028 18.584 37.9348 18.74C37.4668 18.896 36.9554 19.026 36.4008 19.13C35.8634 19.234 35.3174 19.286 34.7628 19.286ZM35.5948 16.712C35.9241 16.712 36.2708 16.6773 36.6348 16.608C36.9988 16.5387 37.3368 16.4607 37.6488 16.374C37.9781 16.27 38.2381 16.1747 38.4288 16.088V13.098L35.7768 13.332C35.2048 13.384 34.7888 13.5573 34.5288 13.852C34.2861 14.1293 34.1648 14.528 34.1648 15.048C34.1648 15.568 34.2774 15.9753 34.5028 16.27C34.7454 16.5647 35.1094 16.712 35.5948 16.712ZM45.0701 19V0.618H48.5281V19H45.0701ZM57.3616 19V1.242H64.1476C65.5343 1.242 66.6956 1.44133 67.6316 1.84C68.585 2.22133 69.3476 2.78467 69.9196 3.53C70.4916 4.27533 70.899 5.17667 71.1416 6.234C71.4016 7.29133 71.5316 8.496 71.5316 9.848C71.5316 11.2173 71.4103 12.4567 71.1676 13.566C70.9423 14.6753 70.5523 15.6373 69.9976 16.452C69.443 17.2667 68.6976 17.8993 67.7616 18.35C66.8256 18.7833 65.6556 19 64.2516 19H57.3616ZM60.9496 15.984H64.0436C64.8583 15.984 65.517 15.828 66.0196 15.516C66.5223 15.204 66.9036 14.7707 67.1636 14.216C67.441 13.644 67.623 12.994 67.7096 12.266C67.8136 11.5207 67.8656 10.7147 67.8656 9.848C67.8656 9.016 67.8136 8.262 67.7096 7.586C67.6056 6.89267 67.415 6.30333 67.1376 5.818C66.8776 5.31533 66.4963 4.934 65.9936 4.674C65.5083 4.39667 64.8583 4.258 64.0436 4.258H60.9496V15.984ZM79.291 19.286C77.8523 19.286 76.7083 19.0433 75.859 18.558C75.027 18.0727 74.429 17.336 74.065 16.348C73.701 15.36 73.519 14.1207 73.519 12.63C73.519 11.018 73.7443 9.70067 74.195 8.678C74.663 7.65533 75.339 6.90133 76.223 6.416C77.107 5.91333 78.199 5.662 79.499 5.662C81.423 5.662 82.8703 6.14733 83.841 7.118C84.829 8.08867 85.323 9.62267 85.323 11.72L85.167 13.644H77.003C77.0203 14.6147 77.2197 15.3427 77.601 15.828C77.9823 16.3133 78.641 16.556 79.577 16.556C80.1143 16.556 80.7037 16.5473 81.345 16.53C81.9863 16.4953 82.619 16.4607 83.243 16.426C83.8843 16.3913 84.4303 16.3567 84.881 16.322L84.959 18.74C84.5257 18.8093 83.9797 18.8873 83.321 18.974C82.6623 19.0607 81.9777 19.13 81.267 19.182C80.5737 19.2513 79.915 19.286 79.291 19.286ZM77.003 11.434H81.865C81.865 10.2553 81.6743 9.432 81.293 8.964C80.929 8.496 80.331 8.262 79.499 8.262C78.6843 8.262 78.0603 8.50467 77.627 8.99C77.211 9.47533 77.003 10.29 77.003 11.434ZM92.9524 19.286C91.4617 19.286 90.2917 19.0607 89.4424 18.61C88.6104 18.142 88.021 17.3967 87.6744 16.374C87.345 15.3513 87.1804 14.008 87.1804 12.344C87.1804 10.6973 87.371 9.38867 87.7524 8.418C88.1337 7.43 88.749 6.728 89.5984 6.312C90.465 5.87867 91.5917 5.662 92.9784 5.662C93.3424 5.662 93.767 5.688 94.2524 5.74C94.7377 5.792 95.2231 5.86133 95.7084 5.948C96.211 6.01733 96.6357 6.08667 96.9824 6.156L96.8524 8.938C96.5231 8.90333 96.1504 8.87733 95.7344 8.86C95.3184 8.82533 94.9111 8.79933 94.5124 8.782C94.131 8.74733 93.819 8.73 93.5764 8.73C92.831 8.73 92.2417 8.85133 91.8084 9.094C91.3924 9.31933 91.0977 9.70067 90.9244 10.238C90.7684 10.758 90.6904 11.46 90.6904 12.344C90.6904 13.2973 90.7684 14.06 90.9244 14.632C91.0804 15.204 91.3577 15.6113 91.7564 15.854C92.1724 16.0967 92.779 16.218 93.5764 16.218C93.819 16.218 94.1397 16.2093 94.5384 16.192C94.937 16.1573 95.3444 16.1227 95.7604 16.088C96.1937 16.0533 96.575 16.0273 96.9044 16.01L97.0084 18.792C96.6617 18.8613 96.2457 18.9307 95.7604 19C95.275 19.0867 94.781 19.156 94.2784 19.208C93.7931 19.26 93.3511 19.286 92.9524 19.286ZM99.2513 19V0.618H102.709V10.862L104.243 10.81L106.947 5.948H110.561L107.259 12.084L110.743 19H107.103L104.295 13.826L102.709 13.904V19H99.2513Z" fill="white"/>
</svg>
