<svg width="107" height="14" viewBox="0 0 107 14" fill="none" xmlns="http://www.w3.org/2000/svg">
<path d="M0.159891 10L2.80589 0.325999H5.22789L7.85989 10H6.73989L6.05389 7.55H1.96589L1.27989 10H0.159891ZM2.20389 6.556H5.81589L4.37389 1.278H3.64589L2.20389 6.556ZM9.18573 10V3H10.2637V3.49C10.4224 3.39667 10.6184 3.30333 10.8517 3.21C11.0944 3.11667 11.3511 3.03733 11.6217 2.972C11.8924 2.89733 12.1537 2.86 12.4057 2.86C13.0497 2.86 13.5397 2.97667 13.8757 3.21C14.2211 3.434 14.4591 3.798 14.5897 4.302C14.7204 4.806 14.7857 5.46867 14.7857 6.29V10H13.6937V6.332C13.6937 5.72533 13.6564 5.24 13.5817 4.876C13.5164 4.512 13.3764 4.25067 13.1617 4.092C12.9564 3.924 12.6391 3.84 12.2097 3.84C11.9764 3.84 11.7337 3.868 11.4817 3.924C11.2391 3.97067 11.0104 4.036 10.7957 4.12C10.5811 4.19467 10.4037 4.26933 10.2637 4.344V10H9.18573ZM18.9414 10L21.3774 0.438H24.7514L27.1734 10H25.2414L24.7094 8.068H21.3634L20.8594 10H18.9414ZM21.6714 6.514H24.4294L23.3514 2.006H22.7634L21.6714 6.514ZM27.8357 10V8.418L31.0137 4.624H27.8357V2.972H33.4637V4.498L30.2577 8.348H33.4777V10H27.8357ZM36.9592 10.154C36.3526 10.154 35.8812 10.028 35.5452 9.776C35.2186 9.51467 34.9852 9.12267 34.8452 8.6C34.7146 8.07733 34.6492 7.41933 34.6492 6.626V2.972H36.5112V6.542C36.5112 7.03667 36.5346 7.42867 36.5812 7.718C36.6372 8.00733 36.7446 8.21267 36.9032 8.334C37.0619 8.45533 37.2906 8.516 37.5892 8.516C37.8786 8.516 38.1492 8.47867 38.4012 8.404C38.6532 8.32933 38.8539 8.25467 39.0032 8.18V2.972H40.8652V10H39.0172V9.566C38.6999 9.74333 38.3826 9.888 38.0652 10C37.7572 10.1027 37.3886 10.154 36.9592 10.154ZM42.4028 10V2.972H44.2648V3.798C44.4235 3.67667 44.6195 3.55067 44.8528 3.42C45.0861 3.28 45.3381 3.154 45.6088 3.042C45.8888 2.92067 46.1548 2.84133 46.4068 2.804V4.61C46.1641 4.64733 45.9075 4.71267 45.6368 4.806C45.3661 4.89 45.1095 4.98333 44.8668 5.086C44.6335 5.18867 44.4328 5.282 44.2648 5.366V10H42.4028ZM47.3794 10V2.972H49.2414V10H47.3794ZM47.3794 1.852V0.255999H49.2554V1.852H47.3794ZM53.2613 10.168C52.748 10.168 52.3327 10.0933 52.0153 9.944C51.698 9.79467 51.4693 9.538 51.3293 9.174C51.1987 8.80067 51.1333 8.28267 51.1333 7.62V4.526H50.3073V2.972H51.1333V1.11H52.9953V2.972H54.7873V4.526H52.9953V7.13C52.9953 7.494 53.0093 7.77867 53.0373 7.984C53.0747 8.18933 53.1493 8.334 53.2613 8.418C53.3733 8.502 53.546 8.544 53.7793 8.544C53.8447 8.544 53.9427 8.53933 54.0733 8.53C54.204 8.52067 54.3347 8.51133 54.4653 8.502C54.596 8.49267 54.7033 8.48333 54.7873 8.474L54.8433 9.972C54.6193 10.0093 54.3487 10.0513 54.0313 10.098C53.7233 10.1447 53.4667 10.168 53.2613 10.168ZM58.6706 10.154C57.8959 10.154 57.2799 10.0233 56.8226 9.762C56.3746 9.50067 56.0526 9.104 55.8566 8.572C55.6606 8.04 55.5626 7.37267 55.5626 6.57C55.5626 5.702 55.6839 4.99267 55.9266 4.442C56.1786 3.89133 56.5426 3.48533 57.0186 3.224C57.4946 2.95333 58.0826 2.818 58.7826 2.818C59.8186 2.818 60.5979 3.07933 61.1206 3.602C61.6526 4.12467 61.9186 4.95067 61.9186 6.08L61.8346 7.116H57.4386C57.4479 7.63867 57.5553 8.03067 57.7606 8.292C57.9659 8.55333 58.3206 8.684 58.8246 8.684C59.1139 8.684 59.4313 8.67933 59.7766 8.67C60.1219 8.65133 60.4626 8.63267 60.7986 8.614C61.1439 8.59533 61.4379 8.57667 61.6806 8.558L61.7226 9.86C61.4893 9.89733 61.1953 9.93933 60.8406 9.986C60.4859 10.0327 60.1173 10.07 59.7346 10.098C59.3613 10.1353 59.0066 10.154 58.6706 10.154ZM57.4386 5.926H60.0566C60.0566 5.29133 59.9539 4.848 59.7486 4.596C59.5526 4.344 59.2306 4.218 58.7826 4.218C58.3439 4.218 58.0079 4.34867 57.7746 4.61C57.5506 4.87133 57.4386 5.31 57.4386 5.926ZM66.6252 10V0.325999H70.1672C70.8766 0.325999 71.4599 0.442666 71.9172 0.676C72.3746 0.9 72.7152 1.24533 72.9392 1.712C73.1632 2.16933 73.2752 2.75267 73.2752 3.462C73.2752 4.162 73.1632 4.75933 72.9392 5.254C72.7152 5.73933 72.3746 6.11267 71.9172 6.374C71.4599 6.626 70.8766 6.752 70.1672 6.752H67.7452V10H66.6252ZM67.7452 5.772H70.1672C70.8579 5.772 71.3572 5.57133 71.6652 5.17C71.9732 4.76867 72.1272 4.19933 72.1272 3.462C72.1272 2.71533 71.9732 2.16933 71.6652 1.824C71.3572 1.47867 70.8579 1.306 70.1672 1.306H67.7452V5.772ZM74.7424 10V3H75.8204V3.938C75.9977 3.81667 76.2217 3.686 76.4924 3.546C76.763 3.39667 77.0617 3.25667 77.3884 3.126C77.715 2.99533 78.0417 2.902 78.3684 2.846V3.952C78.051 4.01733 77.729 4.106 77.4024 4.218C77.0757 4.32067 76.7724 4.43267 76.4924 4.554C76.2217 4.67533 75.9977 4.78267 75.8204 4.876V10H74.7424ZM82.2839 10.14C81.4999 10.14 80.8886 10.0047 80.4499 9.734C80.0206 9.46333 79.7172 9.05267 79.5399 8.502C79.3719 7.95133 79.2879 7.256 79.2879 6.416C79.2879 5.61333 79.3812 4.95067 79.5679 4.428C79.7639 3.90533 80.0812 3.51333 80.5199 3.252C80.9586 2.99067 81.5466 2.86 82.2839 2.86C83.0306 2.86 83.6232 2.99067 84.0619 3.252C84.5006 3.51333 84.8132 3.90533 84.9999 4.428C85.1959 4.95067 85.2939 5.61333 85.2939 6.416C85.2939 7.256 85.2052 7.95133 85.0279 8.502C84.8599 9.05267 84.5566 9.46333 84.1179 9.734C83.6886 10.0047 83.0772 10.14 82.2839 10.14ZM82.2839 9.202C82.8252 9.202 83.2312 9.10867 83.5019 8.922C83.7726 8.726 83.9499 8.42267 84.0339 8.012C84.1272 7.60133 84.1739 7.06933 84.1739 6.416C84.1739 5.772 84.1179 5.25867 84.0059 4.876C83.8939 4.49333 83.7026 4.218 83.4319 4.05C83.1612 3.882 82.7786 3.798 82.2839 3.798C81.7986 3.798 81.4159 3.882 81.1359 4.05C80.8652 4.218 80.6739 4.49333 80.5619 4.876C80.4499 5.25867 80.3939 5.772 80.3939 6.416C80.3939 7.06933 80.4359 7.60133 80.5199 8.012C80.6132 8.42267 80.7952 8.726 81.0659 8.922C81.3366 9.10867 81.7426 9.202 82.2839 9.202ZM85.76 13.122L85.326 12.282C85.6807 12.0767 85.9654 11.89 86.18 11.722C86.404 11.5633 86.572 11.4 86.684 11.232C86.8054 11.064 86.8894 10.868 86.936 10.644C86.9827 10.42 87.006 10.14 87.006 9.804V3H88.098V9.818C88.098 10.2473 88.0607 10.616 87.986 10.924C87.9207 11.2413 87.7994 11.5213 87.622 11.764C87.454 12.0067 87.216 12.2307 86.908 12.436C86.6094 12.6507 86.2267 12.8793 85.76 13.122ZM87.006 1.46V0.199999H88.098V1.46H87.006ZM92.5739 10.14C91.8739 10.14 91.3186 10.0047 90.9079 9.734C90.5066 9.46333 90.2172 9.062 90.0399 8.53C89.8626 7.998 89.7739 7.33533 89.7739 6.542C89.7739 5.65533 89.8952 4.946 90.1379 4.414C90.3806 3.87267 90.7212 3.48067 91.1599 3.238C91.5986 2.986 92.1166 2.86 92.7139 2.86C93.6472 2.86 94.3519 3.12133 94.8279 3.644C95.3039 4.15733 95.5419 4.988 95.5419 6.136L95.4859 6.962H90.8799C90.8892 7.69 91.0246 8.24067 91.2859 8.614C91.5472 8.98733 92.0186 9.174 92.6999 9.174C92.9612 9.174 93.2459 9.16933 93.5539 9.16C93.8712 9.14133 94.1839 9.12267 94.4919 9.104C94.7999 9.08533 95.0612 9.06667 95.2759 9.048L95.3039 9.902C95.0799 9.93933 94.8046 9.97667 94.4779 10.014C94.1606 10.0513 93.8339 10.0793 93.4979 10.098C93.1619 10.126 92.8539 10.14 92.5739 10.14ZM90.8799 6.08H94.4499C94.4499 5.22133 94.3099 4.624 94.0299 4.288C93.7592 3.94267 93.3206 3.77 92.7139 3.77C92.1259 3.77 91.6732 3.94733 91.3559 4.302C91.0386 4.65667 90.8799 5.24933 90.8799 6.08ZM99.7542 10.14C99.0169 10.14 98.4383 10.0187 98.0183 9.776C97.5983 9.524 97.2996 9.12267 97.1223 8.572C96.9543 8.02133 96.8703 7.29333 96.8703 6.388C96.8703 5.53867 96.9636 4.85733 97.1503 4.344C97.3463 3.82133 97.6589 3.44333 98.0883 3.21C98.5176 2.97667 99.0776 2.86 99.7683 2.86C99.9269 2.86 100.118 2.874 100.342 2.902C100.576 2.92067 100.814 2.94867 101.056 2.986C101.299 3.014 101.509 3.042 101.686 3.07L101.644 3.966C101.486 3.94733 101.304 3.92867 101.098 3.91C100.893 3.89133 100.692 3.87733 100.496 3.868C100.3 3.84933 100.137 3.84 100.006 3.84C99.4743 3.84 99.0589 3.924 98.7603 4.092C98.4709 4.26 98.2656 4.53067 98.1443 4.904C98.0323 5.268 97.9763 5.76267 97.9763 6.388C97.9763 7.06933 98.0276 7.61533 98.1303 8.026C98.2329 8.42733 98.4289 8.71667 98.7183 8.894C99.0076 9.07133 99.4369 9.16 100.006 9.16C100.137 9.16 100.3 9.15533 100.496 9.146C100.702 9.12733 100.907 9.10867 101.112 9.09C101.327 9.07133 101.514 9.05733 101.672 9.048L101.7 9.944C101.514 9.972 101.299 10 101.056 10.028C100.814 10.056 100.576 10.0793 100.342 10.098C100.109 10.126 99.9129 10.14 99.7542 10.14ZM105.558 10.154C105.073 10.154 104.685 10.0793 104.396 9.93C104.116 9.78067 103.915 9.524 103.794 9.16C103.673 8.78667 103.612 8.264 103.612 7.592V3.938H102.618V3H103.612V0.857999H104.69V3H106.888V3.938H104.69V7.27C104.69 7.76467 104.709 8.152 104.746 8.432C104.793 8.70267 104.886 8.894 105.026 9.006C105.166 9.118 105.385 9.174 105.684 9.174C105.777 9.174 105.899 9.16933 106.048 9.16C106.197 9.15067 106.347 9.14133 106.496 9.132C106.655 9.11333 106.795 9.09933 106.916 9.09L106.986 10C106.781 10.028 106.538 10.0607 106.258 10.098C105.978 10.1353 105.745 10.154 105.558 10.154Z" fill="white"/>
</svg>
