<svg width="288" height="58" viewBox="0 0 288 58" fill="none" xmlns="http://www.w3.org/2000/svg">
<g filter="url(#filter0_d_238_513)">
<path d="M4 12C4 6.47715 8.47715 2 14 2H274C279.523 2 284 6.47715 284 12V42C284 47.5228 279.523 52 274 52H14C8.47715 52 4 47.5228 4 42V12Z" fill="#F3F9FF"/>
</g>
<path d="M117.08 32.16C116.739 32.16 116.344 32.1387 115.896 32.096C115.459 32.0533 115.027 32 114.6 31.936C114.173 31.872 113.8 31.8187 113.48 31.776L113.608 30.528C113.917 30.56 114.28 30.6027 114.696 30.656C115.123 30.6987 115.539 30.736 115.944 30.768C116.349 30.8 116.696 30.816 116.984 30.816C117.72 30.816 118.264 30.656 118.616 30.336C118.979 30.016 119.16 29.5147 119.16 28.832C119.16 28.4587 119.085 28.1653 118.936 27.952C118.797 27.728 118.557 27.552 118.216 27.424C117.875 27.2853 117.416 27.1627 116.84 27.056C116.051 26.896 115.4 26.704 114.888 26.48C114.376 26.256 113.997 25.9413 113.752 25.536C113.507 25.12 113.384 24.56 113.384 23.856C113.384 23.1093 113.528 22.512 113.816 22.064C114.115 21.616 114.536 21.2907 115.08 21.088C115.635 20.8853 116.28 20.784 117.016 20.784C117.347 20.784 117.72 20.8053 118.136 20.848C118.563 20.88 118.979 20.9227 119.384 20.976C119.8 21.0293 120.157 21.0827 120.456 21.136L120.344 22.4C120.035 22.3573 119.672 22.32 119.256 22.288C118.851 22.2453 118.456 22.208 118.072 22.176C117.688 22.144 117.379 22.128 117.144 22.128C116.408 22.128 115.853 22.2613 115.48 22.528C115.117 22.784 114.936 23.1893 114.936 23.744C114.936 24.1707 115.016 24.496 115.176 24.72C115.336 24.944 115.603 25.12 115.976 25.248C116.349 25.376 116.84 25.5147 117.448 25.664C118.024 25.792 118.515 25.9307 118.92 26.08C119.336 26.2293 119.677 26.416 119.944 26.64C120.211 26.864 120.403 27.1413 120.52 27.472C120.648 27.8027 120.712 28.2187 120.712 28.72C120.712 29.5413 120.563 30.2027 120.264 30.704C119.976 31.2053 119.56 31.5733 119.016 31.808C118.472 32.0427 117.827 32.16 117.08 32.16ZM122.47 32V23.984H123.958V32H122.47ZM122.47 22.368V20.816H123.958V22.368H122.47ZM129.311 35.728C128.469 35.728 127.786 35.6587 127.263 35.52C126.741 35.3813 126.357 35.136 126.111 34.784C125.866 34.4427 125.743 33.968 125.743 33.36C125.743 33.0507 125.786 32.784 125.871 32.56C125.967 32.3467 126.106 32.1493 126.287 31.968C126.479 31.776 126.714 31.5787 126.991 31.376C126.842 31.2693 126.725 31.1147 126.639 30.912C126.565 30.7093 126.527 30.4853 126.527 30.24C126.527 30.1227 126.591 29.936 126.719 29.68C126.847 29.424 126.975 29.1947 127.103 28.992C126.879 28.8853 126.671 28.7413 126.479 28.56C126.298 28.368 126.149 28.112 126.031 27.792C125.914 27.472 125.855 27.0667 125.855 26.576C125.855 25.584 126.133 24.88 126.687 24.464C127.253 24.0373 128.005 23.824 128.943 23.824C129.231 23.824 129.535 23.8453 129.855 23.888C130.175 23.9307 130.426 23.9787 130.607 24.032L133.055 23.968V25.136L131.631 25.104C131.77 25.2427 131.882 25.4293 131.967 25.664C132.063 25.8987 132.111 26.2027 132.111 26.576C132.111 27.28 131.994 27.8347 131.759 28.24C131.525 28.6347 131.167 28.912 130.687 29.072C130.218 29.2213 129.626 29.296 128.911 29.296C128.837 29.296 128.714 29.2907 128.543 29.28C128.383 29.2587 128.261 29.2427 128.175 29.232C128.111 29.3707 128.047 29.5307 127.983 29.712C127.93 29.8827 127.903 30.0053 127.903 30.08C127.903 30.2613 127.941 30.4 128.015 30.496C128.101 30.592 128.277 30.656 128.543 30.688C128.821 30.72 129.253 30.736 129.839 30.736C130.607 30.736 131.221 30.8053 131.679 30.944C132.138 31.072 132.463 31.3067 132.655 31.648C132.847 31.9787 132.943 32.464 132.943 33.104C132.943 34.032 132.623 34.6987 131.983 35.104C131.343 35.52 130.453 35.728 129.311 35.728ZM129.295 34.528C130.042 34.528 130.591 34.4267 130.943 34.224C131.295 34.0213 131.471 33.6853 131.471 33.216C131.471 32.8533 131.413 32.5867 131.295 32.416C131.189 32.2453 130.997 32.1333 130.719 32.08C130.442 32.0267 130.074 32 129.615 32C129.519 32 129.386 32 129.215 32C129.055 31.9893 128.885 31.984 128.703 31.984C128.533 31.9733 128.378 31.9627 128.239 31.952C128.101 31.9413 128.005 31.936 127.951 31.936C127.653 32.1493 127.445 32.3413 127.327 32.512C127.21 32.6933 127.151 32.9227 127.151 33.2C127.151 33.52 127.215 33.776 127.343 33.968C127.471 34.1707 127.69 34.3147 127.999 34.4C128.309 34.4853 128.741 34.528 129.295 34.528ZM128.943 28.176C129.562 28.176 129.999 28.0533 130.255 27.808C130.522 27.5627 130.655 27.152 130.655 26.576C130.655 26 130.522 25.5893 130.255 25.344C129.999 25.0987 129.562 24.976 128.943 24.976C128.367 24.976 127.951 25.0987 127.695 25.344C127.45 25.5893 127.327 26 127.327 26.576C127.327 27.152 127.45 27.5627 127.695 27.808C127.951 28.0533 128.367 28.176 128.943 28.176ZM134.408 32V23.984H135.896V24.544C136.067 24.4373 136.285 24.3307 136.552 24.224C136.819 24.1173 137.101 24.0267 137.4 23.952C137.699 23.8667 137.987 23.824 138.264 23.824C139.011 23.824 139.581 23.9573 139.976 24.224C140.371 24.48 140.643 24.9013 140.792 25.488C140.952 26.064 141.032 26.8267 141.032 27.776V32H139.528V27.856C139.528 27.1947 139.491 26.6667 139.416 26.272C139.341 25.8773 139.192 25.5947 138.968 25.424C138.744 25.2427 138.408 25.152 137.96 25.152C137.715 25.152 137.459 25.1787 137.192 25.232C136.936 25.2853 136.691 25.3547 136.456 25.44C136.232 25.5253 136.045 25.6053 135.896 25.68V32H134.408ZM150.628 32.16C149.796 32.16 149.081 32.0427 148.484 31.808C147.897 31.5733 147.449 31.1947 147.14 30.672C146.83 30.1493 146.676 29.4507 146.676 28.576V20.976H148.212V28.624C148.212 29.4027 148.425 29.968 148.852 30.32C149.278 30.6613 149.87 30.832 150.628 30.832C151.428 30.832 152.041 30.6613 152.468 30.32C152.894 29.968 153.108 29.4027 153.108 28.624V20.976H154.644V28.576C154.644 29.4293 154.489 30.1227 154.18 30.656C153.87 31.1893 153.417 31.5733 152.82 31.808C152.222 32.0427 151.492 32.16 150.628 32.16ZM156.892 35.488V23.984H158.38V24.544C158.54 24.448 158.748 24.3467 159.004 24.24C159.26 24.1227 159.532 24.0267 159.82 23.952C160.108 23.8667 160.386 23.824 160.652 23.824C161.687 23.824 162.439 24.1547 162.908 24.816C163.378 25.4667 163.612 26.5013 163.612 27.92C163.612 28.9547 163.49 29.7867 163.244 30.416C163.01 31.0347 162.631 31.4827 162.108 31.76C161.596 32.0267 160.93 32.16 160.108 32.16C159.788 32.16 159.463 32.1387 159.132 32.096C158.812 32.0533 158.562 32.016 158.38 31.984V35.488H156.892ZM159.964 30.88C160.498 30.88 160.919 30.7787 161.228 30.576C161.548 30.3733 161.772 30.0533 161.9 29.616C162.028 29.1787 162.092 28.608 162.092 27.904C162.092 26.88 161.943 26.1653 161.644 25.76C161.346 25.344 160.924 25.136 160.38 25.136C160.146 25.136 159.9 25.168 159.644 25.232C159.399 25.2853 159.164 25.3547 158.94 25.44C158.716 25.5147 158.53 25.6 158.38 25.696V30.736C158.54 30.7573 158.77 30.7893 159.068 30.832C159.378 30.864 159.676 30.88 159.964 30.88Z" fill="#584CDE" fill-opacity="0.988235"/>
<defs>
<filter id="filter0_d_238_513" x="0" y="0" width="288" height="58" filterUnits="userSpaceOnUse" color-interpolation-filters="sRGB">
<feFlood flood-opacity="0" result="BackgroundImageFix"/>
<feColorMatrix in="SourceAlpha" type="matrix" values="0 0 0 0 0 0 0 0 0 0 0 0 0 0 0 0 0 0 127 0" result="hardAlpha"/>
<feOffset dy="2"/>
<feGaussianBlur stdDeviation="2"/>
<feComposite in2="hardAlpha" operator="out"/>
<feColorMatrix type="matrix" values="0 0 0 0 0.266667 0 0 0 0 0.301961 0 0 0 0 0.333333 0 0 0 1 0"/>
<feBlend mode="normal" in2="BackgroundImageFix" result="effect1_dropShadow_238_513"/>
<feBlend mode="normal" in="SourceGraphic" in2="effect1_dropShadow_238_513" result="shape"/>
</filter>
</defs>
</svg>
