<svg width="290" height="60" viewBox="0 0 290 60" fill="none" xmlns="http://www.w3.org/2000/svg">
<path d="M114.08 32.16C113.739 32.16 113.344 32.1387 112.896 32.096C112.459 32.0533 112.027 32 111.6 31.936C111.173 31.872 110.8 31.8187 110.48 31.776L110.608 30.528C110.917 30.56 111.28 30.6027 111.696 30.656C112.123 30.6987 112.539 30.736 112.944 30.768C113.349 30.8 113.696 30.816 113.984 30.816C114.72 30.816 115.264 30.656 115.616 30.336C115.979 30.016 116.16 29.5147 116.16 28.832C116.16 28.4587 116.085 28.1653 115.936 27.952C115.797 27.728 115.557 27.552 115.216 27.424C114.875 27.2853 114.416 27.1627 113.84 27.056C113.051 26.896 112.4 26.704 111.888 26.48C111.376 26.256 110.997 25.9413 110.752 25.536C110.507 25.12 110.384 24.56 110.384 23.856C110.384 23.1093 110.528 22.512 110.816 22.064C111.115 21.616 111.536 21.2907 112.08 21.088C112.635 20.8853 113.28 20.784 114.016 20.784C114.347 20.784 114.72 20.8053 115.136 20.848C115.563 20.88 115.979 20.9227 116.384 20.976C116.8 21.0293 117.157 21.0827 117.456 21.136L117.344 22.4C117.035 22.3573 116.672 22.32 116.256 22.288C115.851 22.2453 115.456 22.208 115.072 22.176C114.688 22.144 114.379 22.128 114.144 22.128C113.408 22.128 112.853 22.2613 112.48 22.528C112.117 22.784 111.936 23.1893 111.936 23.744C111.936 24.1707 112.016 24.496 112.176 24.72C112.336 24.944 112.603 25.12 112.976 25.248C113.349 25.376 113.84 25.5147 114.448 25.664C115.024 25.792 115.515 25.9307 115.92 26.08C116.336 26.2293 116.677 26.416 116.944 26.64C117.211 26.864 117.403 27.1413 117.52 27.472C117.648 27.8027 117.712 28.2187 117.712 28.72C117.712 29.5413 117.563 30.2027 117.264 30.704C116.976 31.2053 116.56 31.5733 116.016 31.808C115.472 32.0427 114.827 32.16 114.08 32.16ZM119.47 32V23.984H120.958V32H119.47ZM119.47 22.368V20.816H120.958V22.368H119.47ZM126.311 35.728C125.469 35.728 124.786 35.6587 124.263 35.52C123.741 35.3813 123.357 35.136 123.111 34.784C122.866 34.4427 122.743 33.968 122.743 33.36C122.743 33.0507 122.786 32.784 122.871 32.56C122.967 32.3467 123.106 32.1493 123.287 31.968C123.479 31.776 123.714 31.5787 123.991 31.376C123.842 31.2693 123.725 31.1147 123.639 30.912C123.565 30.7093 123.527 30.4853 123.527 30.24C123.527 30.1227 123.591 29.936 123.719 29.68C123.847 29.424 123.975 29.1947 124.103 28.992C123.879 28.8853 123.671 28.7413 123.479 28.56C123.298 28.368 123.149 28.112 123.031 27.792C122.914 27.472 122.855 27.0667 122.855 26.576C122.855 25.584 123.133 24.88 123.687 24.464C124.253 24.0373 125.005 23.824 125.943 23.824C126.231 23.824 126.535 23.8453 126.855 23.888C127.175 23.9307 127.426 23.9787 127.607 24.032L130.055 23.968V25.136L128.631 25.104C128.77 25.2427 128.882 25.4293 128.967 25.664C129.063 25.8987 129.111 26.2027 129.111 26.576C129.111 27.28 128.994 27.8347 128.759 28.24C128.525 28.6347 128.167 28.912 127.687 29.072C127.218 29.2213 126.626 29.296 125.911 29.296C125.837 29.296 125.714 29.2907 125.543 29.28C125.383 29.2587 125.261 29.2427 125.175 29.232C125.111 29.3707 125.047 29.5307 124.983 29.712C124.93 29.8827 124.903 30.0053 124.903 30.08C124.903 30.2613 124.941 30.4 125.015 30.496C125.101 30.592 125.277 30.656 125.543 30.688C125.821 30.72 126.253 30.736 126.839 30.736C127.607 30.736 128.221 30.8053 128.679 30.944C129.138 31.072 129.463 31.3067 129.655 31.648C129.847 31.9787 129.943 32.464 129.943 33.104C129.943 34.032 129.623 34.6987 128.983 35.104C128.343 35.52 127.453 35.728 126.311 35.728ZM126.295 34.528C127.042 34.528 127.591 34.4267 127.943 34.224C128.295 34.0213 128.471 33.6853 128.471 33.216C128.471 32.8533 128.413 32.5867 128.295 32.416C128.189 32.2453 127.997 32.1333 127.719 32.08C127.442 32.0267 127.074 32 126.615 32C126.519 32 126.386 32 126.215 32C126.055 31.9893 125.885 31.984 125.703 31.984C125.533 31.9733 125.378 31.9627 125.239 31.952C125.101 31.9413 125.005 31.936 124.951 31.936C124.653 32.1493 124.445 32.3413 124.327 32.512C124.21 32.6933 124.151 32.9227 124.151 33.2C124.151 33.52 124.215 33.776 124.343 33.968C124.471 34.1707 124.69 34.3147 124.999 34.4C125.309 34.4853 125.741 34.528 126.295 34.528ZM125.943 28.176C126.562 28.176 126.999 28.0533 127.255 27.808C127.522 27.5627 127.655 27.152 127.655 26.576C127.655 26 127.522 25.5893 127.255 25.344C126.999 25.0987 126.562 24.976 125.943 24.976C125.367 24.976 124.951 25.0987 124.695 25.344C124.45 25.5893 124.327 26 124.327 26.576C124.327 27.152 124.45 27.5627 124.695 27.808C124.951 28.0533 125.367 28.176 125.943 28.176ZM131.408 32V23.984H132.896V24.544C133.067 24.4373 133.285 24.3307 133.552 24.224C133.819 24.1173 134.101 24.0267 134.4 23.952C134.699 23.8667 134.987 23.824 135.264 23.824C136.011 23.824 136.581 23.9573 136.976 24.224C137.371 24.48 137.643 24.9013 137.792 25.488C137.952 26.064 138.032 26.8267 138.032 27.776V32H136.528V27.856C136.528 27.1947 136.491 26.6667 136.416 26.272C136.341 25.8773 136.192 25.5947 135.968 25.424C135.744 25.2427 135.408 25.152 134.96 25.152C134.715 25.152 134.459 25.1787 134.192 25.232C133.936 25.2853 133.691 25.3547 133.456 25.44C133.232 25.5253 133.045 25.6053 132.896 25.68V32H131.408ZM147.628 32.16C146.796 32.16 146.081 32.0427 145.484 31.808C144.897 31.5733 144.449 31.1947 144.14 30.672C143.83 30.1493 143.676 29.4507 143.676 28.576V20.976H145.212V28.624C145.212 29.4027 145.425 29.968 145.852 30.32C146.278 30.6613 146.87 30.832 147.628 30.832C148.428 30.832 149.041 30.6613 149.468 30.32C149.894 29.968 150.108 29.4027 150.108 28.624V20.976H151.644V28.576C151.644 29.4293 151.489 30.1227 151.18 30.656C150.87 31.1893 150.417 31.5733 149.82 31.808C149.222 32.0427 148.492 32.16 147.628 32.16ZM153.892 35.488V23.984H155.38V24.544C155.54 24.448 155.748 24.3467 156.004 24.24C156.26 24.1227 156.532 24.0267 156.82 23.952C157.108 23.8667 157.386 23.824 157.652 23.824C158.687 23.824 159.439 24.1547 159.908 24.816C160.378 25.4667 160.612 26.5013 160.612 27.92C160.612 28.9547 160.49 29.7867 160.244 30.416C160.01 31.0347 159.631 31.4827 159.108 31.76C158.596 32.0267 157.93 32.16 157.108 32.16C156.788 32.16 156.463 32.1387 156.132 32.096C155.812 32.0533 155.562 32.016 155.38 31.984V35.488H153.892ZM156.964 30.88C157.498 30.88 157.919 30.7787 158.228 30.576C158.548 30.3733 158.772 30.0533 158.9 29.616C159.028 29.1787 159.092 28.608 159.092 27.904C159.092 26.88 158.943 26.1653 158.644 25.76C158.346 25.344 157.924 25.136 157.38 25.136C157.146 25.136 156.9 25.168 156.644 25.232C156.399 25.2853 156.164 25.3547 155.94 25.44C155.716 25.5147 155.53 25.6 155.38 25.696V30.736C155.54 30.7573 155.77 30.7893 156.068 30.832C156.378 30.864 156.676 30.88 156.964 30.88Z" fill="#3F3A3A" fill-opacity="0.988235"/>
<g filter="url(#filter0_d_287_422)">
<path d="M1 12C1 6.47715 5.47715 2 11 2H271C276.523 2 281 6.47715 281 12V42C281 47.5228 276.523 52 271 52H11C5.47715 52 1 47.5228 1 42V12Z" stroke="white" stroke-width="1.4" shape-rendering="crispEdges"/>
</g>
<defs>
<filter id="filter0_d_287_422" x="0.300049" y="0.300049" width="289.4" height="59.3999" filterUnits="userSpaceOnUse" color-interpolation-filters="sRGB">
<feFlood flood-opacity="0" result="BackgroundImageFix"/>
<feColorMatrix in="SourceAlpha" type="matrix" values="0 0 0 0 0 0 0 0 0 0 0 0 0 0 0 0 0 0 127 0" result="hardAlpha"/>
<feOffset dx="4" dy="3"/>
<feGaussianBlur stdDeviation="2"/>
<feComposite in2="hardAlpha" operator="out"/>
<feColorMatrix type="matrix" values="0 0 0 0 0.266667 0 0 0 0 0.301961 0 0 0 0 0.333333 0 0 0 1 0"/>
<feBlend mode="normal" in2="BackgroundImageFix" result="effect1_dropShadow_287_422"/>
<feBlend mode="normal" in="SourceGraphic" in2="effect1_dropShadow_287_422" result="shape"/>
</filter>
</defs>
</svg>
