<svg width="218" height="15" viewBox="0 0 218 15" fill="none" xmlns="http://www.w3.org/2000/svg">
<path d="M6.81925 8.348H3.02725L2.05525 11H0.85525L4.27525 1.796H5.57125L9.00325 11H7.80325L6.81925 8.348ZM6.42325 7.304L4.92325 3.248L3.42325 7.304H6.42325ZM12.0923 11.156C11.4923 11.156 11.0603 11.036 10.7963 10.796C10.5323 10.556 10.4003 10.152 10.4003 9.584V0.848H11.5283V9.284C11.5283 9.604 11.5763 9.824 11.6723 9.944C11.7763 10.056 11.9683 10.112 12.2483 10.112C12.4723 10.112 12.6723 10.088 12.8483 10.04V11.072C12.5283 11.128 12.2763 11.156 12.0923 11.156ZM17.6403 4.22V5.276H17.3643C16.6763 5.276 16.0083 5.552 15.3603 6.104V11H14.2323V4.364H15.3603V5.108C16.0163 4.516 16.6843 4.22 17.3643 4.22H17.6403ZM19.8519 7.772C19.8679 8.508 20.0519 9.096 20.4039 9.536C20.7559 9.976 21.3159 10.196 22.0839 10.196C22.6679 10.196 23.3079 10.032 24.0039 9.704L24.3519 10.64C23.6239 11.016 22.8359 11.204 21.9879 11.204C21.2839 11.204 20.6839 11.056 20.1879 10.76C19.6919 10.464 19.3159 10.052 19.0599 9.524C18.8039 8.996 18.6759 8.38 18.6759 7.676C18.6759 6.932 18.8079 6.3 19.0719 5.78C19.3439 5.252 19.7079 4.852 20.1639 4.58C20.6199 4.308 21.1319 4.172 21.6999 4.172C22.5719 4.172 23.2559 4.444 23.7519 4.988C24.2479 5.532 24.4959 6.312 24.4959 7.328V7.772H19.8519ZM21.6999 5.18C20.7079 5.18 20.1159 5.728 19.9239 6.824H23.3079C23.2679 6.264 23.1159 5.852 22.8519 5.588C22.5879 5.316 22.2039 5.18 21.6999 5.18ZM28.1434 4.364C28.8474 4.364 29.3834 4.484 29.7514 4.724C30.1194 4.956 30.3634 5.272 30.4834 5.672C30.6034 6.064 30.6634 6.56 30.6634 7.16V11H29.5354V10.34C29.2314 10.628 28.9274 10.836 28.6234 10.964C28.3194 11.092 27.9914 11.156 27.6394 11.156C27.2234 11.156 26.8474 11.068 26.5114 10.892C26.1754 10.708 25.9074 10.448 25.7074 10.112C25.5154 9.768 25.4194 9.364 25.4194 8.9C25.4194 8.18 25.6434 7.624 26.0914 7.232C26.5394 6.832 27.1434 6.632 27.9034 6.632C28.5034 6.632 29.0434 6.764 29.5234 7.028C29.5154 6.636 29.4754 6.324 29.4034 6.092C29.3314 5.86 29.1834 5.684 28.9594 5.564C28.7354 5.436 28.4034 5.372 27.9634 5.372H27.0754V4.364H28.1434ZM27.7954 10.184C28.0674 10.184 28.3514 10.12 28.6474 9.992C28.9514 9.864 29.2474 9.672 29.5354 9.416V7.904C29.0874 7.68 28.5994 7.568 28.0714 7.568C27.6474 7.568 27.2914 7.672 27.0034 7.88C26.7154 8.08 26.5714 8.42 26.5714 8.9C26.5714 9.348 26.6914 9.676 26.9314 9.884C27.1794 10.084 27.4674 10.184 27.7954 10.184ZM38.1173 0.848V11H36.9893V10.4C36.3573 10.936 35.7173 11.204 35.0693 11.204C34.1733 11.204 33.4573 10.904 32.9213 10.304C32.3853 9.704 32.1173 8.832 32.1173 7.688C32.1173 6.544 32.3853 5.672 32.9213 5.072C33.4573 4.472 34.1733 4.172 35.0693 4.172C35.7093 4.172 36.3493 4.444 36.9893 4.988V0.848H38.1173ZM35.2133 10.16C35.7893 10.16 36.3813 9.912 36.9893 9.416V5.972C36.3973 5.476 35.8053 5.228 35.2133 5.228C34.5813 5.228 34.1013 5.436 33.7733 5.852C33.4533 6.268 33.2933 6.88 33.2933 7.688C33.2933 8.496 33.4533 9.112 33.7733 9.536C34.1013 9.952 34.5813 10.16 35.2133 10.16ZM45.6231 4.364L42.6831 12.068C42.4751 12.612 42.2871 13.016 42.1191 13.28C41.9511 13.544 41.7511 13.732 41.5191 13.844C41.2951 13.956 40.9831 14.012 40.5831 14.012C40.3511 14.012 40.1151 13.98 39.8751 13.916V12.896C40.0831 12.944 40.2911 12.968 40.4991 12.968C40.7711 12.968 40.9831 12.888 41.1351 12.728C41.2951 12.568 41.4671 12.252 41.6511 11.78L41.9631 10.976L39.4431 4.364H40.6191L42.5271 9.5L44.4831 4.364H45.6231ZM52.7321 4.22C53.5481 4.22 54.1521 4.436 54.5441 4.868C54.9441 5.3 55.1441 6.012 55.1441 7.004V11H54.0161V7.004C54.0161 6.38 53.9081 5.936 53.6921 5.672C53.4841 5.408 53.1121 5.276 52.5761 5.276C51.9521 5.276 51.3281 5.548 50.7041 6.092V11H49.5761V0.848H50.7041V5.072C51.3521 4.504 52.0281 4.22 52.7321 4.22ZM59.2802 4.364C59.9842 4.364 60.5202 4.484 60.8882 4.724C61.2562 4.956 61.5002 5.272 61.6202 5.672C61.7402 6.064 61.8002 6.56 61.8002 7.16V11H60.6722V10.34C60.3682 10.628 60.0642 10.836 59.7602 10.964C59.4562 11.092 59.1282 11.156 58.7762 11.156C58.3602 11.156 57.9842 11.068 57.6482 10.892C57.3122 10.708 57.0442 10.448 56.8442 10.112C56.6522 9.768 56.5562 9.364 56.5562 8.9C56.5562 8.18 56.7802 7.624 57.2282 7.232C57.6762 6.832 58.2802 6.632 59.0402 6.632C59.6402 6.632 60.1802 6.764 60.6602 7.028C60.6522 6.636 60.6122 6.324 60.5402 6.092C60.4682 5.86 60.3202 5.684 60.0962 5.564C59.8722 5.436 59.5402 5.372 59.1002 5.372H58.2122V4.364H59.2802ZM58.9322 10.184C59.2042 10.184 59.4882 10.12 59.7842 9.992C60.0882 9.864 60.3842 9.672 60.6722 9.416V7.904C60.2242 7.68 59.7362 7.568 59.2082 7.568C58.7842 7.568 58.4282 7.672 58.1402 7.88C57.8522 8.08 57.7082 8.42 57.7082 8.9C57.7082 9.348 57.8282 9.676 58.0682 9.884C58.3162 10.084 58.6042 10.184 58.9322 10.184ZM69.158 4.364L66.65 11.108H65.354L62.822 4.364H63.998L66.002 9.86L67.982 4.364H69.158ZM71.2503 7.772C71.2663 8.508 71.4503 9.096 71.8023 9.536C72.1543 9.976 72.7143 10.196 73.4823 10.196C74.0663 10.196 74.7063 10.032 75.4023 9.704L75.7503 10.64C75.0223 11.016 74.2343 11.204 73.3863 11.204C72.6823 11.204 72.0823 11.056 71.5863 10.76C71.0903 10.464 70.7143 10.052 70.4583 9.524C70.2023 8.996 70.0743 8.38 70.0743 7.676C70.0743 6.932 70.2063 6.3 70.4703 5.78C70.7423 5.252 71.1063 4.852 71.5623 4.58C72.0183 4.308 72.5303 4.172 73.0983 4.172C73.9703 4.172 74.6543 4.444 75.1503 4.988C75.6463 5.532 75.8943 6.312 75.8943 7.328V7.772H71.2503ZM73.0983 5.18C72.1063 5.18 71.5143 5.728 71.3223 6.824H74.7063C74.6663 6.264 74.5143 5.852 74.2503 5.588C73.9863 5.316 73.6023 5.18 73.0983 5.18ZM82.1786 4.364C82.8826 4.364 83.4186 4.484 83.7866 4.724C84.1546 4.956 84.3986 5.272 84.5186 5.672C84.6386 6.064 84.6986 6.56 84.6986 7.16V11H83.5706V10.34C83.2666 10.628 82.9626 10.836 82.6586 10.964C82.3546 11.092 82.0266 11.156 81.6746 11.156C81.2586 11.156 80.8826 11.068 80.5466 10.892C80.2106 10.708 79.9426 10.448 79.7426 10.112C79.5506 9.768 79.4546 9.364 79.4546 8.9C79.4546 8.18 79.6786 7.624 80.1266 7.232C80.5746 6.832 81.1786 6.632 81.9386 6.632C82.5386 6.632 83.0786 6.764 83.5586 7.028C83.5506 6.636 83.5106 6.324 83.4386 6.092C83.3666 5.86 83.2186 5.684 82.9946 5.564C82.7706 5.436 82.4386 5.372 81.9986 5.372H81.1106V4.364H82.1786ZM81.8306 10.184C82.1026 10.184 82.3866 10.12 82.6826 9.992C82.9866 9.864 83.2826 9.672 83.5706 9.416V7.904C83.1226 7.68 82.6346 7.568 82.1066 7.568C81.6826 7.568 81.3266 7.672 81.0386 7.88C80.7506 8.08 80.6066 8.42 80.6066 8.9C80.6066 9.348 80.7266 9.676 80.9666 9.884C81.2146 10.084 81.5026 10.184 81.8306 10.184ZM89.7165 4.22C90.5325 4.22 91.1365 4.436 91.5285 4.868C91.9285 5.3 92.1285 6.012 92.1285 7.004V11H91.0005V7.004C91.0005 6.38 90.8925 5.936 90.6765 5.672C90.4685 5.408 90.0965 5.276 89.5605 5.276C88.9365 5.276 88.3125 5.548 87.6885 6.092V11H86.5605V4.364H87.6885V5.072C88.3445 4.504 89.0205 4.22 89.7165 4.22ZM98.9013 4.364C99.6053 4.364 100.141 4.484 100.509 4.724C100.877 4.956 101.121 5.272 101.241 5.672C101.361 6.064 101.421 6.56 101.421 7.16V11H100.293V10.34C99.9893 10.628 99.6853 10.836 99.3813 10.964C99.0773 11.092 98.7493 11.156 98.3973 11.156C97.9813 11.156 97.6053 11.068 97.2693 10.892C96.9333 10.708 96.6653 10.448 96.4653 10.112C96.2733 9.768 96.1772 9.364 96.1772 8.9C96.1772 8.18 96.4013 7.624 96.8493 7.232C97.2973 6.832 97.9013 6.632 98.6613 6.632C99.2613 6.632 99.8013 6.764 100.281 7.028C100.273 6.636 100.233 6.324 100.161 6.092C100.089 5.86 99.9413 5.684 99.7173 5.564C99.4933 5.436 99.1613 5.372 98.7213 5.372H97.8333V4.364H98.9013ZM98.5533 10.184C98.8253 10.184 99.1093 10.12 99.4053 9.992C99.7093 9.864 100.005 9.672 100.293 9.416V7.904C99.8453 7.68 99.3573 7.568 98.8293 7.568C98.4053 7.568 98.0493 7.672 97.7613 7.88C97.4733 8.08 97.3293 8.42 97.3293 8.9C97.3293 9.348 97.4493 9.676 97.6893 9.884C97.9373 10.084 98.2253 10.184 98.5533 10.184ZM106.091 11.204C105.059 11.196 104.263 10.876 103.703 10.244C103.151 9.612 102.875 8.756 102.875 7.676C102.875 6.596 103.151 5.744 103.703 5.12C104.263 4.496 105.059 4.18 106.091 4.172C106.451 4.172 106.759 4.2 107.015 4.256C107.279 4.304 107.559 4.388 107.855 4.508V5.6C107.567 5.464 107.291 5.368 107.027 5.312C106.771 5.256 106.487 5.228 106.175 5.228C105.431 5.236 104.891 5.46 104.555 5.9C104.219 6.332 104.051 6.92 104.051 7.664C104.051 8.424 104.219 9.028 104.555 9.476C104.891 9.924 105.423 10.152 106.151 10.16C106.719 10.16 107.339 9.988 108.011 9.644L108.371 10.628C107.643 11.012 106.883 11.204 106.091 11.204ZM112.642 11.204C111.61 11.196 110.814 10.876 110.254 10.244C109.702 9.612 109.426 8.756 109.426 7.676C109.426 6.596 109.702 5.744 110.254 5.12C110.814 4.496 111.61 4.18 112.642 4.172C113.002 4.172 113.31 4.2 113.566 4.256C113.83 4.304 114.11 4.388 114.406 4.508V5.6C114.118 5.464 113.842 5.368 113.578 5.312C113.322 5.256 113.038 5.228 112.726 5.228C111.982 5.236 111.442 5.46 111.106 5.9C110.77 6.332 110.602 6.92 110.602 7.664C110.602 8.424 110.77 9.028 111.106 9.476C111.442 9.924 111.974 10.152 112.702 10.16C113.27 10.16 113.89 9.988 114.562 9.644L114.922 10.628C114.194 11.012 113.434 11.204 112.642 11.204ZM119.253 11.204C118.549 11.204 117.949 11.052 117.453 10.748C116.965 10.436 116.597 10.016 116.349 9.488C116.101 8.952 115.977 8.352 115.977 7.688C115.977 7.024 116.101 6.428 116.349 5.9C116.597 5.364 116.965 4.944 117.453 4.64C117.949 4.328 118.549 4.172 119.253 4.172C119.957 4.172 120.553 4.328 121.041 4.64C121.537 4.944 121.905 5.364 122.145 5.9C122.393 6.428 122.517 7.024 122.517 7.688C122.517 8.352 122.393 8.952 122.145 9.488C121.905 10.016 121.537 10.436 121.041 10.748C120.553 11.052 119.957 11.204 119.253 11.204ZM119.253 10.184C119.917 10.184 120.429 9.952 120.789 9.488C121.157 9.024 121.341 8.424 121.341 7.688C121.341 6.952 121.157 6.356 120.789 5.9C120.429 5.436 119.917 5.204 119.253 5.204C118.589 5.204 118.073 5.436 117.705 5.9C117.337 6.356 117.153 6.952 117.153 7.688C117.153 8.424 117.337 9.024 117.705 9.488C118.073 9.952 118.589 10.184 119.253 10.184ZM129.779 4.364V11H128.651V10.292C127.995 10.86 127.319 11.144 126.623 11.144C125.807 11.144 125.199 10.928 124.799 10.496C124.407 10.064 124.211 9.356 124.211 8.372V4.364H125.339V8.372C125.339 8.996 125.443 9.44 125.651 9.704C125.867 9.968 126.243 10.1 126.779 10.1C127.403 10.1 128.027 9.828 128.651 9.284V4.364H129.779ZM135.091 4.22C135.907 4.22 136.511 4.436 136.903 4.868C137.303 5.3 137.503 6.012 137.503 7.004V11H136.375V7.004C136.375 6.38 136.267 5.936 136.051 5.672C135.843 5.408 135.471 5.276 134.935 5.276C134.311 5.276 133.687 5.548 133.063 6.092V11H131.935V4.364H133.063V5.072C133.719 4.504 134.395 4.22 135.091 4.22ZM140.956 5.492V9.284C140.956 9.604 141.004 9.824 141.1 9.944C141.204 10.056 141.392 10.112 141.664 10.112C141.904 10.112 142.16 10.08 142.432 10.016V11.036C142.072 11.116 141.752 11.156 141.472 11.156C140.864 11.156 140.436 11.032 140.188 10.784C139.948 10.536 139.828 10.12 139.828 9.536V5.492H138.964V4.448H139.828V2.168H140.956V4.448H142.492V5.492H140.956ZM145.264 7.676C145.264 7.356 145.304 7.084 145.384 6.86C145.472 6.628 145.588 6.432 145.732 6.272C145.876 6.112 146.08 5.92 146.344 5.696L146.764 5.336C147.004 5.12 147.172 4.928 147.268 4.76C147.364 4.584 147.412 4.372 147.412 4.124C147.412 3.684 147.276 3.348 147.004 3.116C146.74 2.876 146.38 2.756 145.924 2.756C145.188 2.756 144.492 2.924 143.836 3.26V2.18C144.516 1.884 145.24 1.736 146.008 1.736C146.768 1.736 147.388 1.94 147.868 2.348C148.348 2.748 148.588 3.32 148.588 4.064C148.588 4.52 148.5 4.896 148.324 5.192C148.148 5.48 147.896 5.764 147.568 6.044L147.232 6.332C146.912 6.612 146.696 6.84 146.584 7.016C146.472 7.192 146.416 7.436 146.416 7.748V8.24H145.264V7.676ZM145.216 9.104H146.464V11H145.216V9.104ZM158.379 9.548V11H153.147V1.904H154.815V9.548H158.379ZM162.871 11.204C162.127 11.204 161.495 11.048 160.975 10.736C160.455 10.424 160.063 10 159.799 9.464C159.543 8.92 159.415 8.312 159.415 7.64C159.415 6.976 159.543 6.376 159.799 5.84C160.063 5.304 160.455 4.88 160.975 4.568C161.495 4.256 162.127 4.1 162.871 4.1C163.607 4.1 164.231 4.256 164.743 4.568C165.263 4.88 165.651 5.304 165.907 5.84C166.171 6.376 166.303 6.976 166.303 7.64C166.303 8.312 166.171 8.92 165.907 9.464C165.651 10 165.263 10.424 164.743 10.736C164.231 11.048 163.607 11.204 162.871 11.204ZM162.871 9.8C163.439 9.8 163.875 9.608 164.179 9.224C164.483 8.832 164.635 8.304 164.635 7.64C164.635 6.976 164.483 6.452 164.179 6.068C163.875 5.684 163.439 5.492 162.871 5.492C162.295 5.492 161.851 5.684 161.539 6.068C161.235 6.452 161.083 6.976 161.083 7.64C161.083 8.304 161.235 8.832 161.539 9.224C161.851 9.608 162.295 9.8 162.871 9.8ZM173.875 4.292V11.06C173.875 11.956 173.631 12.672 173.143 13.208C172.655 13.744 171.899 14.012 170.875 14.012C170.307 14.012 169.803 13.98 169.363 13.916C168.923 13.852 168.499 13.74 168.091 13.58V12.056C168.483 12.224 168.879 12.348 169.279 12.428C169.687 12.516 170.055 12.56 170.383 12.56C171.103 12.56 171.595 12.428 171.859 12.164C172.131 11.9 172.267 11.492 172.267 10.94V10.232C171.659 10.72 171.035 10.964 170.395 10.964C169.475 10.964 168.739 10.676 168.187 10.1C167.635 9.524 167.359 8.664 167.359 7.52C167.359 6.776 167.487 6.148 167.743 5.636C168.007 5.124 168.367 4.74 168.823 4.484C169.279 4.228 169.803 4.1 170.395 4.1C171.043 4.1 171.667 4.34 172.267 4.82V4.292H173.875ZM170.695 9.512C171.231 9.512 171.755 9.308 172.267 8.9V6.152C171.739 5.744 171.215 5.54 170.695 5.54C170.151 5.54 169.739 5.712 169.459 6.056C169.179 6.4 169.039 6.888 169.039 7.52C169.039 8.208 169.175 8.712 169.447 9.032C169.727 9.352 170.143 9.512 170.695 9.512ZM175.702 1.316H177.31V3.128H175.702V1.316ZM175.702 4.292H177.31V11H175.702V4.292ZM182.794 4.148C183.658 4.148 184.298 4.368 184.714 4.808C185.138 5.248 185.35 5.964 185.35 6.956V11H183.742V6.956C183.742 6.484 183.646 6.14 183.454 5.924C183.27 5.7 182.946 5.588 182.482 5.588C181.938 5.588 181.39 5.824 180.838 6.296V11H179.23V4.292H180.838V4.916C181.446 4.404 182.098 4.148 182.794 4.148ZM197.419 1.904V11H195.547L191.671 4.616V11H190.003V1.904H191.887L195.751 8.288V1.904H197.419ZM202.539 11.204C201.795 11.204 201.163 11.048 200.643 10.736C200.123 10.424 199.731 10 199.467 9.464C199.211 8.92 199.083 8.312 199.083 7.64C199.083 6.976 199.211 6.376 199.467 5.84C199.731 5.304 200.123 4.88 200.643 4.568C201.163 4.256 201.795 4.1 202.539 4.1C203.275 4.1 203.899 4.256 204.411 4.568C204.931 4.88 205.319 5.304 205.575 5.84C205.839 6.376 205.971 6.976 205.971 7.64C205.971 8.312 205.839 8.92 205.575 9.464C205.319 10 204.931 10.424 204.411 10.736C203.899 11.048 203.275 11.204 202.539 11.204ZM202.539 9.8C203.107 9.8 203.543 9.608 203.847 9.224C204.151 8.832 204.303 8.304 204.303 7.64C204.303 6.976 204.151 6.452 203.847 6.068C203.543 5.684 203.107 5.492 202.539 5.492C201.963 5.492 201.519 5.684 201.207 6.068C200.903 6.452 200.751 6.976 200.751 7.64C200.751 8.304 200.903 8.832 201.207 9.224C201.519 9.608 201.963 9.8 202.539 9.8ZM217.143 4.292L215.271 11.108H213.411L211.995 6.56L210.591 11.108H208.731L206.847 4.292H208.503L209.679 9.104L211.047 4.292H212.943L214.323 9.104L215.487 4.292H217.143Z" fill="white"/>
</svg>
