<svg width="203" height="15" viewBox="0 0 203 15" fill="none" xmlns="http://www.w3.org/2000/svg">
<path d="M3.38417 1.904C4.88017 1.904 6.00817 2.292 6.76817 3.068C7.53617 3.836 7.92017 4.968 7.92017 6.464C7.92017 7.968 7.54017 9.1 6.78017 9.86C6.02017 10.62 4.88817 11 3.38417 11H0.360172V1.904H3.38417ZM6.72017 6.428C6.72017 5.228 6.44017 4.344 5.88017 3.776C5.32017 3.208 4.48817 2.924 3.38417 2.924H1.52417V9.98H3.38417C4.49617 9.98 5.32817 9.696 5.88017 9.128C6.44017 8.56 6.72017 7.66 6.72017 6.428ZM12.575 11.204C11.871 11.204 11.271 11.052 10.775 10.748C10.287 10.436 9.91895 10.016 9.67095 9.488C9.42295 8.952 9.29895 8.352 9.29895 7.688C9.29895 7.024 9.42295 6.428 9.67095 5.9C9.91895 5.364 10.287 4.944 10.775 4.64C11.271 4.328 11.871 4.172 12.575 4.172C13.279 4.172 13.875 4.328 14.363 4.64C14.859 4.944 15.227 5.364 15.467 5.9C15.715 6.428 15.839 7.024 15.839 7.688C15.839 8.352 15.715 8.952 15.467 9.488C15.227 10.016 14.859 10.436 14.363 10.748C13.875 11.052 13.279 11.204 12.575 11.204ZM12.575 10.184C13.239 10.184 13.751 9.952 14.111 9.488C14.479 9.024 14.663 8.424 14.663 7.688C14.663 6.952 14.479 6.356 14.111 5.9C13.751 5.436 13.239 5.204 12.575 5.204C11.911 5.204 11.395 5.436 11.027 5.9C10.659 6.356 10.475 6.952 10.475 7.688C10.475 8.424 10.659 9.024 11.027 9.488C11.395 9.952 11.911 10.184 12.575 10.184ZM20.7497 4.22C21.5657 4.22 22.1697 4.436 22.5617 4.868C22.9617 5.3 23.1617 6.012 23.1617 7.004V11H22.0337V7.004C22.0337 6.38 21.9257 5.936 21.7097 5.672C21.5017 5.408 21.1297 5.276 20.5937 5.276C19.9697 5.276 19.3457 5.548 18.7217 6.092V11H17.5937V4.364H18.7217V5.072C19.3777 4.504 20.0537 4.22 20.7497 4.22ZM25.5817 1.904H26.7817L25.9057 5.648H24.8617L25.5817 1.904ZM30.0239 5.492V9.284C30.0239 9.604 30.0719 9.824 30.1679 9.944C30.2719 10.056 30.4599 10.112 30.7319 10.112C30.9719 10.112 31.2279 10.08 31.4999 10.016V11.036C31.1399 11.116 30.8199 11.156 30.5399 11.156C29.9319 11.156 29.5039 11.032 29.2559 10.784C29.0159 10.536 28.8959 10.12 28.8959 9.536V5.492H28.0319V4.448H28.8959V2.168H30.0239V4.448H31.5599V5.492H30.0239ZM41.5739 4.22C42.3899 4.22 42.9939 4.436 43.3859 4.868C43.7859 5.3 43.9859 6.012 43.9859 7.004V11H42.8579V7.004C42.8579 6.38 42.7499 5.936 42.5339 5.672C42.3259 5.408 41.9539 5.276 41.4179 5.276C40.7939 5.276 40.1699 5.548 39.5459 6.092V11H38.4179V0.848H39.5459V5.072C40.1939 4.504 40.8699 4.22 41.5739 4.22ZM48.122 4.364C48.826 4.364 49.362 4.484 49.73 4.724C50.098 4.956 50.342 5.272 50.462 5.672C50.582 6.064 50.642 6.56 50.642 7.16V11H49.514V10.34C49.21 10.628 48.906 10.836 48.602 10.964C48.298 11.092 47.97 11.156 47.618 11.156C47.202 11.156 46.826 11.068 46.49 10.892C46.154 10.708 45.886 10.448 45.686 10.112C45.494 9.768 45.398 9.364 45.398 8.9C45.398 8.18 45.622 7.624 46.07 7.232C46.518 6.832 47.122 6.632 47.882 6.632C48.482 6.632 49.022 6.764 49.502 7.028C49.494 6.636 49.454 6.324 49.382 6.092C49.31 5.86 49.162 5.684 48.938 5.564C48.714 5.436 48.382 5.372 47.942 5.372H47.054V4.364H48.122ZM47.774 10.184C48.046 10.184 48.33 10.12 48.626 9.992C48.93 9.864 49.226 9.672 49.514 9.416V7.904C49.066 7.68 48.578 7.568 48.05 7.568C47.626 7.568 47.27 7.672 46.982 7.88C46.694 8.08 46.55 8.42 46.55 8.9C46.55 9.348 46.67 9.676 46.91 9.884C47.158 10.084 47.446 10.184 47.774 10.184ZM57.9998 4.364L55.4918 11.108H54.1958L51.6638 4.364H52.8398L54.8438 9.86L56.8238 4.364H57.9998ZM60.0921 7.772C60.1081 8.508 60.2921 9.096 60.6441 9.536C60.9961 9.976 61.5561 10.196 62.3241 10.196C62.9081 10.196 63.5481 10.032 64.2441 9.704L64.5921 10.64C63.8641 11.016 63.0761 11.204 62.2281 11.204C61.5241 11.204 60.9241 11.056 60.4281 10.76C59.9321 10.464 59.5561 10.052 59.3001 9.524C59.0441 8.996 58.9161 8.38 58.9161 7.676C58.9161 6.932 59.0481 6.3 59.3121 5.78C59.5841 5.252 59.9481 4.852 60.4041 4.58C60.8601 4.308 61.3721 4.172 61.9401 4.172C62.8121 4.172 63.4961 4.444 63.9921 4.988C64.4881 5.532 64.7361 6.312 64.7361 7.328V7.772H60.0921ZM61.9401 5.18C60.9481 5.18 60.3561 5.728 60.1641 6.824H63.5481C63.5081 6.264 63.3561 5.852 63.0921 5.588C62.8281 5.316 62.4441 5.18 61.9401 5.18ZM71.0204 4.364C71.7244 4.364 72.2604 4.484 72.6284 4.724C72.9964 4.956 73.2404 5.272 73.3604 5.672C73.4804 6.064 73.5404 6.56 73.5404 7.16V11H72.4124V10.34C72.1084 10.628 71.8044 10.836 71.5004 10.964C71.1964 11.092 70.8684 11.156 70.5164 11.156C70.1004 11.156 69.7244 11.068 69.3884 10.892C69.0524 10.708 68.7844 10.448 68.5844 10.112C68.3924 9.768 68.2964 9.364 68.2964 8.9C68.2964 8.18 68.5204 7.624 68.9684 7.232C69.4164 6.832 70.0204 6.632 70.7804 6.632C71.3804 6.632 71.9204 6.764 72.4004 7.028C72.3924 6.636 72.3524 6.324 72.2804 6.092C72.2084 5.86 72.0604 5.684 71.8364 5.564C71.6124 5.436 71.2804 5.372 70.8404 5.372H69.9524V4.364H71.0204ZM70.6724 10.184C70.9444 10.184 71.2284 10.12 71.5244 9.992C71.8284 9.864 72.1244 9.672 72.4124 9.416V7.904C71.9644 7.68 71.4764 7.568 70.9484 7.568C70.5244 7.568 70.1684 7.672 69.8804 7.88C69.5924 8.08 69.4484 8.42 69.4484 8.9C69.4484 9.348 69.5684 9.676 69.8084 9.884C70.0564 10.084 70.3444 10.184 70.6724 10.184ZM78.2103 11.204C77.1783 11.196 76.3823 10.876 75.8223 10.244C75.2703 9.612 74.9943 8.756 74.9943 7.676C74.9943 6.596 75.2703 5.744 75.8223 5.12C76.3823 4.496 77.1783 4.18 78.2103 4.172C78.5703 4.172 78.8783 4.2 79.1343 4.256C79.3983 4.304 79.6783 4.388 79.9743 4.508V5.6C79.6863 5.464 79.4103 5.368 79.1463 5.312C78.8903 5.256 78.6063 5.228 78.2943 5.228C77.5503 5.236 77.0103 5.46 76.6743 5.9C76.3383 6.332 76.1703 6.92 76.1703 7.664C76.1703 8.424 76.3383 9.028 76.6743 9.476C77.0103 9.924 77.5423 10.152 78.2703 10.16C78.8383 10.16 79.4583 9.988 80.1303 9.644L80.4903 10.628C79.7623 11.012 79.0023 11.204 78.2103 11.204ZM84.761 11.204C83.729 11.196 82.933 10.876 82.373 10.244C81.821 9.612 81.545 8.756 81.545 7.676C81.545 6.596 81.821 5.744 82.373 5.12C82.933 4.496 83.729 4.18 84.761 4.172C85.121 4.172 85.429 4.2 85.685 4.256C85.949 4.304 86.229 4.388 86.525 4.508V5.6C86.237 5.464 85.961 5.368 85.697 5.312C85.441 5.256 85.157 5.228 84.845 5.228C84.101 5.236 83.561 5.46 83.225 5.9C82.889 6.332 82.721 6.92 82.721 7.664C82.721 8.424 82.889 9.028 83.225 9.476C83.561 9.924 84.093 10.152 84.821 10.16C85.389 10.16 86.009 9.988 86.681 9.644L87.041 10.628C86.313 11.012 85.553 11.204 84.761 11.204ZM91.3718 11.204C90.6678 11.204 90.0678 11.052 89.5718 10.748C89.0838 10.436 88.7158 10.016 88.4678 9.488C88.2198 8.952 88.0958 8.352 88.0958 7.688C88.0958 7.024 88.2198 6.428 88.4678 5.9C88.7158 5.364 89.0838 4.944 89.5718 4.64C90.0678 4.328 90.6678 4.172 91.3718 4.172C92.0758 4.172 92.6718 4.328 93.1598 4.64C93.6558 4.944 94.0238 5.364 94.2638 5.9C94.5118 6.428 94.6358 7.024 94.6358 7.688C94.6358 8.352 94.5118 8.952 94.2638 9.488C94.0238 10.016 93.6558 10.436 93.1598 10.748C92.6718 11.052 92.0758 11.204 91.3718 11.204ZM91.3718 10.184C92.0358 10.184 92.5478 9.952 92.9078 9.488C93.2758 9.024 93.4598 8.424 93.4598 7.688C93.4598 6.952 93.2758 6.356 92.9078 5.9C92.5478 5.436 92.0358 5.204 91.3718 5.204C90.7078 5.204 90.1918 5.436 89.8238 5.9C89.4558 6.356 89.2718 6.952 89.2718 7.688C89.2718 8.424 89.4558 9.024 89.8238 9.488C90.1918 9.952 90.7078 10.184 91.3718 10.184ZM101.899 4.364V11H100.771V10.292C100.115 10.86 99.4385 11.144 98.7425 11.144C97.9265 11.144 97.3185 10.928 96.9185 10.496C96.5265 10.064 96.3305 9.356 96.3305 8.372V4.364H97.4585V8.372C97.4585 8.996 97.5625 9.44 97.7705 9.704C97.9865 9.968 98.3625 10.1 98.8985 10.1C99.5225 10.1 100.147 9.828 100.771 9.284V4.364H101.899ZM107.211 4.22C108.027 4.22 108.631 4.436 109.023 4.868C109.423 5.3 109.623 6.012 109.623 7.004V11H108.495V7.004C108.495 6.38 108.387 5.936 108.171 5.672C107.963 5.408 107.591 5.276 107.055 5.276C106.431 5.276 105.807 5.548 105.183 6.092V11H104.055V4.364H105.183V5.072C105.839 4.504 106.515 4.22 107.211 4.22ZM113.075 5.492V9.284C113.075 9.604 113.123 9.824 113.219 9.944C113.323 10.056 113.511 10.112 113.783 10.112C114.023 10.112 114.279 10.08 114.551 10.016V11.036C114.191 11.116 113.871 11.156 113.591 11.156C112.983 11.156 112.555 11.032 112.307 10.784C112.067 10.536 111.947 10.12 111.947 9.536V5.492H111.083V4.448H111.947V2.168H113.075V4.448H114.611V5.492H113.075ZM117.383 7.676C117.383 7.356 117.423 7.084 117.503 6.86C117.591 6.628 117.707 6.432 117.851 6.272C117.995 6.112 118.199 5.92 118.463 5.696L118.883 5.336C119.123 5.12 119.291 4.928 119.387 4.76C119.483 4.584 119.531 4.372 119.531 4.124C119.531 3.684 119.395 3.348 119.123 3.116C118.859 2.876 118.499 2.756 118.043 2.756C117.307 2.756 116.611 2.924 115.955 3.26V2.18C116.635 1.884 117.359 1.736 118.127 1.736C118.887 1.736 119.507 1.94 119.987 2.348C120.467 2.748 120.707 3.32 120.707 4.064C120.707 4.52 120.619 4.896 120.443 5.192C120.267 5.48 120.015 5.764 119.687 6.044L119.351 6.332C119.031 6.612 118.815 6.84 118.703 7.016C118.591 7.192 118.535 7.436 118.535 7.748V8.24H117.383V7.676ZM117.335 9.104H118.583V11H117.335V9.104Z" fill="white"/>
<path d="M128.086 11.204C126.878 11.204 125.802 10.98 124.858 10.532V9.02C125.826 9.524 126.902 9.776 128.086 9.776C128.654 9.776 129.07 9.668 129.334 9.452C129.598 9.236 129.734 8.948 129.742 8.588C129.742 8.236 129.618 7.972 129.37 7.796C129.13 7.62 128.746 7.46 128.218 7.316L127.402 7.088C126.938 6.96 126.534 6.808 126.19 6.632C125.846 6.448 125.558 6.184 125.326 5.84C125.094 5.488 124.978 5.036 124.978 4.484C124.978 3.588 125.246 2.908 125.782 2.444C126.318 1.972 127.074 1.736 128.05 1.736C128.634 1.736 129.146 1.792 129.586 1.904C130.034 2.008 130.49 2.168 130.954 2.384V3.848C130.082 3.392 129.114 3.164 128.05 3.164C127.106 3.164 126.634 3.56 126.634 4.352C126.642 4.704 126.75 4.964 126.958 5.132C127.174 5.3 127.542 5.452 128.062 5.588L128.89 5.816C129.394 5.952 129.822 6.116 130.174 6.308C130.526 6.5 130.818 6.776 131.05 7.136C131.282 7.488 131.398 7.948 131.398 8.516C131.39 9.348 131.09 10.004 130.498 10.484C129.914 10.964 129.11 11.204 128.086 11.204ZM132.997 1.316H134.605V3.128H132.997V1.316ZM132.997 4.292H134.605V11H132.997V4.292ZM142.584 4.292V11.06C142.584 11.956 142.34 12.672 141.852 13.208C141.364 13.744 140.608 14.012 139.584 14.012C139.016 14.012 138.512 13.98 138.072 13.916C137.632 13.852 137.208 13.74 136.8 13.58V12.056C137.192 12.224 137.588 12.348 137.988 12.428C138.396 12.516 138.764 12.56 139.092 12.56C139.812 12.56 140.304 12.428 140.568 12.164C140.84 11.9 140.976 11.492 140.976 10.94V10.232C140.368 10.72 139.744 10.964 139.104 10.964C138.184 10.964 137.448 10.676 136.896 10.1C136.344 9.524 136.068 8.664 136.068 7.52C136.068 6.776 136.196 6.148 136.452 5.636C136.716 5.124 137.076 4.74 137.532 4.484C137.988 4.228 138.512 4.1 139.104 4.1C139.752 4.1 140.376 4.34 140.976 4.82V4.292H142.584ZM139.404 9.512C139.94 9.512 140.464 9.308 140.976 8.9V6.152C140.448 5.744 139.924 5.54 139.404 5.54C138.86 5.54 138.448 5.712 138.168 6.056C137.888 6.4 137.748 6.888 137.748 7.52C137.748 8.208 137.884 8.712 138.156 9.032C138.436 9.352 138.852 9.512 139.404 9.512ZM147.975 4.148C148.839 4.148 149.479 4.368 149.895 4.808C150.319 5.248 150.531 5.964 150.531 6.956V11H148.923V6.956C148.923 6.484 148.827 6.14 148.635 5.924C148.451 5.7 148.127 5.588 147.663 5.588C147.119 5.588 146.571 5.824 146.019 6.296V11H144.411V4.292H146.019V4.916C146.627 4.404 147.279 4.148 147.975 4.148ZM158.88 11.204C157.64 11.204 156.712 10.892 156.096 10.268C155.48 9.644 155.172 8.764 155.172 7.628V1.904H156.828V7.628C156.828 9.06 157.512 9.776 158.88 9.776C160.248 9.776 160.932 9.06 160.932 7.628V1.904H162.588V7.628C162.588 8.772 162.28 9.656 161.664 10.28C161.056 10.896 160.128 11.204 158.88 11.204ZM168.129 4.1C168.721 4.1 169.245 4.232 169.701 4.496C170.165 4.76 170.525 5.16 170.781 5.696C171.037 6.224 171.165 6.876 171.165 7.652C171.165 8.428 171.037 9.084 170.781 9.62C170.525 10.148 170.165 10.544 169.701 10.808C169.245 11.072 168.721 11.204 168.129 11.204C167.489 11.204 166.865 10.96 166.257 10.472V13.808H164.649V4.292H166.257V4.82C166.857 4.34 167.481 4.1 168.129 4.1ZM167.829 9.752C168.373 9.752 168.785 9.576 169.065 9.224C169.345 8.864 169.485 8.34 169.485 7.652C169.485 6.964 169.345 6.44 169.065 6.08C168.785 5.72 168.373 5.54 167.829 5.54C167.309 5.54 166.785 5.744 166.257 6.152V9.14C166.769 9.548 167.293 9.752 167.829 9.752ZM182.874 1.904V11H181.002L177.126 4.616V11H175.458V1.904H177.342L181.206 8.288V1.904H182.874ZM187.994 11.204C187.25 11.204 186.618 11.048 186.098 10.736C185.578 10.424 185.186 10 184.922 9.464C184.666 8.92 184.538 8.312 184.538 7.64C184.538 6.976 184.666 6.376 184.922 5.84C185.186 5.304 185.578 4.88 186.098 4.568C186.618 4.256 187.25 4.1 187.994 4.1C188.73 4.1 189.354 4.256 189.866 4.568C190.386 4.88 190.774 5.304 191.03 5.84C191.294 6.376 191.426 6.976 191.426 7.64C191.426 8.312 191.294 8.92 191.03 9.464C190.774 10 190.386 10.424 189.866 10.736C189.354 11.048 188.73 11.204 187.994 11.204ZM187.994 9.8C188.562 9.8 188.998 9.608 189.302 9.224C189.606 8.832 189.758 8.304 189.758 7.64C189.758 6.976 189.606 6.452 189.302 6.068C188.998 5.684 188.562 5.492 187.994 5.492C187.418 5.492 186.974 5.684 186.662 6.068C186.358 6.452 186.206 6.976 186.206 7.64C186.206 8.304 186.358 8.832 186.662 9.224C186.974 9.608 187.418 9.8 187.994 9.8ZM202.599 4.292L200.727 11.108H198.867L197.451 6.56L196.047 11.108H194.187L192.303 4.292H193.959L195.135 9.104L196.503 4.292H198.399L199.779 9.104L200.943 4.292H202.599Z" fill="#3F3A3A"/>
</svg>
