<svg width="290" height="60" viewBox="0 0 290 60" fill="none" xmlns="http://www.w3.org/2000/svg">
<path d="M118.342 32V20.976H119.878V30.656H124.566V32H118.342ZM129.022 32.16C128.126 32.16 127.422 32.0107 126.91 31.712C126.398 31.4027 126.035 30.9333 125.822 30.304C125.608 29.6747 125.502 28.8747 125.502 27.904C125.502 26.976 125.614 26.2133 125.838 25.616C126.072 25.0187 126.446 24.5707 126.958 24.272C127.48 23.9733 128.168 23.824 129.022 23.824C129.886 23.824 130.574 23.9733 131.086 24.272C131.598 24.5707 131.966 25.0187 132.19 25.616C132.424 26.2133 132.542 26.976 132.542 27.904C132.542 28.8747 132.435 29.6747 132.222 30.304C132.019 30.9333 131.662 31.4027 131.15 31.712C130.638 32.0107 129.928 32.16 129.022 32.16ZM129.022 30.896C129.587 30.896 130.014 30.7947 130.302 30.592C130.59 30.3893 130.782 30.0693 130.878 29.632C130.974 29.184 131.022 28.608 131.022 27.904C131.022 27.2107 130.963 26.6613 130.846 26.256C130.728 25.84 130.526 25.5413 130.238 25.36C129.95 25.1787 129.544 25.088 129.022 25.088C128.51 25.088 128.104 25.1787 127.806 25.36C127.518 25.5413 127.315 25.84 127.198 26.256C127.08 26.6613 127.022 27.2107 127.022 27.904C127.022 28.608 127.07 29.184 127.166 29.632C127.262 30.0693 127.448 30.3893 127.726 30.592C128.014 30.7947 128.446 30.896 129.022 30.896ZM137.585 35.728C136.742 35.728 136.06 35.6587 135.537 35.52C135.014 35.3813 134.63 35.136 134.385 34.784C134.14 34.4427 134.017 33.968 134.017 33.36C134.017 33.0507 134.06 32.784 134.145 32.56C134.241 32.3467 134.38 32.1493 134.561 31.968C134.753 31.776 134.988 31.5787 135.265 31.376C135.116 31.2693 134.998 31.1147 134.913 30.912C134.838 30.7093 134.801 30.4853 134.801 30.24C134.801 30.1227 134.865 29.936 134.993 29.68C135.121 29.424 135.249 29.1947 135.377 28.992C135.153 28.8853 134.945 28.7413 134.753 28.56C134.572 28.368 134.422 28.112 134.305 27.792C134.188 27.472 134.129 27.0667 134.129 26.576C134.129 25.584 134.406 24.88 134.961 24.464C135.526 24.0373 136.278 23.824 137.217 23.824C137.505 23.824 137.809 23.8453 138.129 23.888C138.449 23.9307 138.7 23.9787 138.881 24.032L141.329 23.968V25.136L139.905 25.104C140.044 25.2427 140.156 25.4293 140.241 25.664C140.337 25.8987 140.385 26.2027 140.385 26.576C140.385 27.28 140.268 27.8347 140.033 28.24C139.798 28.6347 139.441 28.912 138.961 29.072C138.492 29.2213 137.9 29.296 137.185 29.296C137.11 29.296 136.988 29.2907 136.817 29.28C136.657 29.2587 136.534 29.2427 136.449 29.232C136.385 29.3707 136.321 29.5307 136.257 29.712C136.204 29.8827 136.177 30.0053 136.177 30.08C136.177 30.2613 136.214 30.4 136.289 30.496C136.374 30.592 136.55 30.656 136.817 30.688C137.094 30.72 137.526 30.736 138.113 30.736C138.881 30.736 139.494 30.8053 139.953 30.944C140.412 31.072 140.737 31.3067 140.929 31.648C141.121 31.9787 141.217 32.464 141.217 33.104C141.217 34.032 140.897 34.6987 140.257 35.104C139.617 35.52 138.726 35.728 137.585 35.728ZM137.569 34.528C138.316 34.528 138.865 34.4267 139.217 34.224C139.569 34.0213 139.745 33.6853 139.745 33.216C139.745 32.8533 139.686 32.5867 139.569 32.416C139.462 32.2453 139.27 32.1333 138.993 32.08C138.716 32.0267 138.348 32 137.889 32C137.793 32 137.66 32 137.489 32C137.329 31.9893 137.158 31.984 136.977 31.984C136.806 31.9733 136.652 31.9627 136.513 31.952C136.374 31.9413 136.278 31.936 136.225 31.936C135.926 32.1493 135.718 32.3413 135.601 32.512C135.484 32.6933 135.425 32.9227 135.425 33.2C135.425 33.52 135.489 33.776 135.617 33.968C135.745 34.1707 135.964 34.3147 136.273 34.4C136.582 34.4853 137.014 34.528 137.569 34.528ZM137.217 28.176C137.836 28.176 138.273 28.0533 138.529 27.808C138.796 27.5627 138.929 27.152 138.929 26.576C138.929 26 138.796 25.5893 138.529 25.344C138.273 25.0987 137.836 24.976 137.217 24.976C136.641 24.976 136.225 25.0987 135.969 25.344C135.724 25.5893 135.601 26 135.601 26.576C135.601 27.152 135.724 27.5627 135.969 27.808C136.225 28.0533 136.641 28.176 137.217 28.176ZM142.681 32V23.984H144.169V32H142.681ZM142.681 22.368V20.816H144.169V22.368H142.681ZM146.306 32V23.984H147.794V24.544C147.965 24.4373 148.184 24.3307 148.45 24.224C148.717 24.1173 149 24.0267 149.298 23.952C149.597 23.8667 149.885 23.824 150.162 23.824C150.909 23.824 151.48 23.9573 151.874 24.224C152.269 24.48 152.541 24.9013 152.69 25.488C152.85 26.064 152.93 26.8267 152.93 27.776V32H151.426V27.856C151.426 27.1947 151.389 26.6667 151.314 26.272C151.24 25.8773 151.09 25.5947 150.866 25.424C150.642 25.2427 150.306 25.152 149.858 25.152C149.613 25.152 149.357 25.1787 149.09 25.232C148.834 25.2853 148.589 25.3547 148.354 25.44C148.13 25.5253 147.944 25.6053 147.794 25.68V32H146.306Z" fill="#3F3A3A"/>
<g filter="url(#filter0_d_271_7)">
<path d="M1 12C1 6.47715 5.47715 2 11 2H271C276.523 2 281 6.47715 281 12V42C281 47.5228 276.523 52 271 52H11C5.47715 52 1 47.5228 1 42V12Z" stroke="white" stroke-width="1.4" shape-rendering="crispEdges"/>
</g>
<defs>
<filter id="filter0_d_271_7" x="0.300049" y="0.299988" width="289.4" height="59.4" filterUnits="userSpaceOnUse" color-interpolation-filters="sRGB">
<feFlood flood-opacity="0" result="BackgroundImageFix"/>
<feColorMatrix in="SourceAlpha" type="matrix" values="0 0 0 0 0 0 0 0 0 0 0 0 0 0 0 0 0 0 127 0" result="hardAlpha"/>
<feOffset dx="4" dy="3"/>
<feGaussianBlur stdDeviation="2"/>
<feComposite in2="hardAlpha" operator="out"/>
<feColorMatrix type="matrix" values="0 0 0 0 0.266667 0 0 0 0 0.301961 0 0 0 0 0.333333 0 0 0 1 0"/>
<feBlend mode="normal" in2="BackgroundImageFix" result="effect1_dropShadow_271_7"/>
<feBlend mode="normal" in="SourceGraphic" in2="effect1_dropShadow_271_7" result="shape"/>
</filter>
</defs>
</svg>
