<svg width="114" height="15" viewBox="0 0 114 15" fill="none" xmlns="http://www.w3.org/2000/svg">
<path d="M0.830801 11V0.634999H7.0558V1.7H2.0308V5.69H6.2758V6.755H2.0308V11H0.830801ZM11.4263 11.15C10.5863 11.15 9.93131 11.005 9.46131 10.715C9.00131 10.425 8.67631 9.985 8.48631 9.395C8.30631 8.805 8.21631 8.06 8.21631 7.16C8.21631 6.3 8.31631 5.59 8.51631 5.03C8.72631 4.47 9.06631 4.05 9.53631 3.77C10.0063 3.49 10.6363 3.35 11.4263 3.35C12.2263 3.35 12.8613 3.49 13.3313 3.77C13.8013 4.05 14.1363 4.47 14.3363 5.03C14.5463 5.59 14.6513 6.3 14.6513 7.16C14.6513 8.06 14.5563 8.805 14.3663 9.395C14.1863 9.985 13.8613 10.425 13.3913 10.715C12.9313 11.005 12.2763 11.15 11.4263 11.15ZM11.4263 10.145C12.0063 10.145 12.4413 10.045 12.7313 9.845C13.0213 9.635 13.2113 9.31 13.3013 8.87C13.4013 8.43 13.4513 7.86 13.4513 7.16C13.4513 6.47 13.3913 5.92 13.2713 5.51C13.1513 5.1 12.9463 4.805 12.6563 4.625C12.3663 4.445 11.9563 4.355 11.4263 4.355C10.9063 4.355 10.4963 4.445 10.1963 4.625C9.90631 4.805 9.70131 5.1 9.58131 5.51C9.46131 5.92 9.40131 6.47 9.40131 7.16C9.40131 7.86 9.44631 8.43 9.53631 8.87C9.63631 9.31 9.83131 9.635 10.1213 9.845C10.4113 10.045 10.8463 10.145 11.4263 10.145ZM16.4858 11V3.5H17.6408V4.505C17.8308 4.375 18.0708 4.235 18.3608 4.085C18.6508 3.925 18.9708 3.775 19.3208 3.635C19.6708 3.495 20.0208 3.395 20.3708 3.335V4.52C20.0308 4.59 19.6858 4.685 19.3358 4.805C18.9858 4.915 18.6608 5.035 18.3608 5.165C18.0708 5.295 17.8308 5.41 17.6408 5.51V11H16.4858ZM24.581 14.525C23.801 14.525 23.171 14.455 22.691 14.315C22.221 14.185 21.876 13.955 21.656 13.625C21.446 13.295 21.341 12.845 21.341 12.275C21.341 11.985 21.386 11.735 21.476 11.525C21.566 11.325 21.696 11.14 21.866 10.97C22.046 10.79 22.266 10.605 22.526 10.415C22.396 10.315 22.291 10.175 22.211 9.995C22.141 9.805 22.106 9.595 22.106 9.365C22.106 9.255 22.161 9.08 22.271 8.84C22.391 8.59 22.506 8.37 22.616 8.18C22.406 8.08 22.211 7.945 22.031 7.775C21.861 7.595 21.721 7.355 21.611 7.055C21.501 6.755 21.446 6.375 21.446 5.915C21.446 4.995 21.706 4.34 22.226 3.95C22.746 3.55 23.421 3.35 24.251 3.35C24.521 3.35 24.806 3.37 25.106 3.41C25.406 3.45 25.641 3.495 25.811 3.545L28.046 3.485V4.475L26.636 4.445C26.776 4.585 26.891 4.77 26.981 5C27.081 5.23 27.131 5.535 27.131 5.915C27.131 6.565 27.021 7.075 26.801 7.445C26.581 7.815 26.256 8.075 25.826 8.225C25.396 8.375 24.856 8.45 24.206 8.45C24.136 8.45 24.016 8.445 23.846 8.435C23.686 8.415 23.566 8.4 23.486 8.39C23.426 8.53 23.366 8.69 23.306 8.87C23.246 9.05 23.216 9.175 23.216 9.245C23.216 9.435 23.251 9.58 23.321 9.68C23.391 9.78 23.551 9.845 23.801 9.875C24.061 9.905 24.466 9.92 25.016 9.92C25.736 9.92 26.311 9.98 26.741 10.1C27.171 10.22 27.476 10.44 27.656 10.76C27.846 11.07 27.941 11.525 27.941 12.125C27.941 12.975 27.646 13.585 27.056 13.955C26.466 14.335 25.641 14.525 24.581 14.525ZM24.596 13.535C25.336 13.535 25.881 13.43 26.231 13.22C26.581 13.01 26.756 12.665 26.756 12.185C26.756 11.815 26.696 11.54 26.576 11.36C26.466 11.19 26.276 11.075 26.006 11.015C25.736 10.965 25.376 10.94 24.926 10.94C24.836 10.94 24.711 10.94 24.551 10.94C24.391 10.93 24.226 10.925 24.056 10.925C23.886 10.915 23.731 10.905 23.591 10.895C23.461 10.885 23.371 10.88 23.321 10.88C23.011 11.1 22.796 11.295 22.676 11.465C22.556 11.645 22.496 11.88 22.496 12.17C22.496 12.5 22.556 12.765 22.676 12.965C22.796 13.165 23.006 13.31 23.306 13.4C23.616 13.49 24.046 13.535 24.596 13.535ZM24.251 7.52C24.871 7.52 25.311 7.4 25.571 7.16C25.831 6.91 25.961 6.495 25.961 5.915C25.961 5.335 25.831 4.92 25.571 4.67C25.311 4.42 24.871 4.295 24.251 4.295C23.671 4.295 23.251 4.42 22.991 4.67C22.741 4.92 22.616 5.335 22.616 5.915C22.616 6.495 22.741 6.91 22.991 7.16C23.251 7.4 23.671 7.52 24.251 7.52ZM32.2857 11.15C31.4457 11.15 30.7907 11.005 30.3207 10.715C29.8607 10.425 29.5357 9.985 29.3457 9.395C29.1657 8.805 29.0757 8.06 29.0757 7.16C29.0757 6.3 29.1757 5.59 29.3757 5.03C29.5857 4.47 29.9257 4.05 30.3957 3.77C30.8657 3.49 31.4957 3.35 32.2857 3.35C33.0857 3.35 33.7207 3.49 34.1907 3.77C34.6607 4.05 34.9957 4.47 35.1957 5.03C35.4057 5.59 35.5107 6.3 35.5107 7.16C35.5107 8.06 35.4157 8.805 35.2257 9.395C35.0457 9.985 34.7207 10.425 34.2507 10.715C33.7907 11.005 33.1357 11.15 32.2857 11.15ZM32.2857 10.145C32.8657 10.145 33.3007 10.045 33.5907 9.845C33.8807 9.635 34.0707 9.31 34.1607 8.87C34.2607 8.43 34.3107 7.86 34.3107 7.16C34.3107 6.47 34.2507 5.92 34.1307 5.51C34.0107 5.1 33.8057 4.805 33.5157 4.625C33.2257 4.445 32.8157 4.355 32.2857 4.355C31.7657 4.355 31.3557 4.445 31.0557 4.625C30.7657 4.805 30.5607 5.1 30.4407 5.51C30.3207 5.92 30.2607 6.47 30.2607 7.16C30.2607 7.86 30.3057 8.43 30.3957 8.87C30.4957 9.31 30.6907 9.635 30.9807 9.845C31.2707 10.045 31.7057 10.145 32.2857 10.145ZM39.8051 11.165C39.2851 11.165 38.8701 11.085 38.5601 10.925C38.2601 10.765 38.0451 10.49 37.9151 10.1C37.7851 9.7 37.7201 9.14 37.7201 8.42V4.505H36.6551V3.5H37.7201V1.205H38.8751V3.5H41.2301V4.505H38.8751V8.075C38.8751 8.605 38.8951 9.02 38.9351 9.32C38.9851 9.61 39.0851 9.815 39.2351 9.935C39.3851 10.055 39.6201 10.115 39.9401 10.115C40.0401 10.115 40.1701 10.11 40.3301 10.1C40.4901 10.09 40.6501 10.08 40.8101 10.07C40.9801 10.05 41.1301 10.035 41.2601 10.025L41.3351 11C41.1151 11.03 40.8551 11.065 40.5551 11.105C40.2551 11.145 40.0051 11.165 39.8051 11.165ZM46.0798 11V0.634999H49.8748C50.6348 0.634999 51.2598 0.76 51.7498 1.01C52.2398 1.25 52.6048 1.62 52.8448 2.12C53.0848 2.61 53.2048 3.235 53.2048 3.995C53.2048 4.745 53.0848 5.385 52.8448 5.915C52.6048 6.435 52.2398 6.835 51.7498 7.115C51.2598 7.385 50.6348 7.52 49.8748 7.52H47.2798V11H46.0798ZM47.2798 6.47H49.8748C50.6148 6.47 51.1498 6.255 51.4798 5.825C51.8098 5.395 51.9748 4.785 51.9748 3.995C51.9748 3.195 51.8098 2.61 51.4798 2.24C51.1498 1.87 50.6148 1.685 49.8748 1.685H47.2798V6.47ZM56.4118 11.15C55.7218 11.15 55.1968 10.955 54.8368 10.565C54.4768 10.175 54.2968 9.605 54.2968 8.855C54.2968 8.365 54.3818 7.965 54.5518 7.655C54.7218 7.345 54.9768 7.11 55.3168 6.95C55.6668 6.78 56.0968 6.675 56.6068 6.635L58.9168 6.41V5.765C58.9168 5.255 58.8018 4.895 58.5718 4.685C58.3518 4.475 58.0218 4.37 57.5818 4.37C57.3318 4.37 57.0318 4.38 56.6818 4.4C56.3418 4.42 56.0018 4.445 55.6618 4.475C55.3218 4.505 55.0218 4.535 54.7618 4.565L54.7018 3.68C54.9418 3.63 55.2318 3.58 55.5718 3.53C55.9118 3.48 56.2668 3.44 56.6368 3.41C57.0068 3.37 57.3468 3.35 57.6568 3.35C58.2268 3.35 58.6918 3.44 59.0518 3.62C59.4118 3.79 59.6718 4.055 59.8318 4.415C60.0018 4.765 60.0868 5.215 60.0868 5.765V9.56C60.1068 9.78 60.1918 9.94 60.3418 10.04C60.5018 10.14 60.7018 10.205 60.9418 10.235L60.8968 11.15C60.6768 11.15 60.4768 11.135 60.2968 11.105C60.1168 11.085 59.9468 11.05 59.7868 11C59.6568 10.95 59.5318 10.89 59.4118 10.82C59.3018 10.75 59.1918 10.665 59.0818 10.565C58.8918 10.645 58.6468 10.73 58.3468 10.82C58.0568 10.91 57.7418 10.985 57.4018 11.045C57.0718 11.115 56.7418 11.15 56.4118 11.15ZM56.6068 10.175C56.8768 10.175 57.1568 10.15 57.4468 10.1C57.7368 10.05 58.0118 9.99 58.2718 9.92C58.5318 9.85 58.7468 9.785 58.9168 9.725V7.28L56.7418 7.49C56.2918 7.53 55.9668 7.66 55.7668 7.88C55.5768 8.1 55.4818 8.415 55.4818 8.825C55.4818 9.245 55.5768 9.575 55.7668 9.815C55.9568 10.055 56.2368 10.175 56.6068 10.175ZM64.6461 11.15C64.4161 11.15 64.1361 11.135 63.8061 11.105C63.4861 11.075 63.1661 11.04 62.8461 11C62.5261 10.95 62.2411 10.905 61.9911 10.865L62.0511 9.86C62.3011 9.89 62.5811 9.925 62.8911 9.965C63.2111 10.005 63.5211 10.04 63.8211 10.07C64.1211 10.09 64.3611 10.1 64.5411 10.1C64.9511 10.1 65.2911 10.065 65.5611 9.995C65.8311 9.915 66.0361 9.785 66.1761 9.605C66.3161 9.425 66.3861 9.17 66.3861 8.84C66.3861 8.59 66.3311 8.395 66.2211 8.255C66.1211 8.115 65.9261 8 65.6361 7.91C65.3561 7.82 64.9461 7.735 64.4061 7.655C63.8461 7.565 63.3761 7.455 62.9961 7.325C62.6261 7.185 62.3511 6.98 62.1711 6.71C61.9911 6.44 61.9011 6.055 61.9011 5.555C61.9011 4.995 62.0311 4.555 62.2911 4.235C62.5511 3.915 62.8861 3.69 63.2961 3.56C63.7161 3.42 64.1511 3.35 64.6011 3.35C64.8811 3.35 65.1861 3.365 65.5161 3.395C65.8561 3.425 66.1861 3.465 66.5061 3.515C66.8261 3.555 67.1011 3.595 67.3311 3.635L67.3011 4.64C67.0611 4.6 66.7811 4.565 66.4611 4.535C66.1411 4.495 65.8211 4.465 65.5011 4.445C65.1811 4.415 64.9011 4.4 64.6611 4.4C64.3611 4.4 64.0911 4.435 63.8511 4.505C63.6111 4.565 63.4211 4.675 63.2811 4.835C63.1411 4.995 63.0711 5.22 63.0711 5.51C63.0711 5.73 63.1211 5.91 63.2211 6.05C63.3211 6.18 63.5111 6.29 63.7911 6.38C64.0711 6.47 64.4761 6.56 65.0061 6.65C65.6261 6.75 66.1211 6.875 66.4911 7.025C66.8711 7.175 67.1461 7.385 67.3161 7.655C67.4861 7.925 67.5711 8.305 67.5711 8.795C67.5711 9.675 67.3111 10.29 66.7911 10.64C66.2711 10.98 65.5561 11.15 64.6461 11.15ZM71.6334 11.15C71.4034 11.15 71.1234 11.135 70.7934 11.105C70.4734 11.075 70.1534 11.04 69.8334 11C69.5134 10.95 69.2284 10.905 68.9784 10.865L69.0384 9.86C69.2884 9.89 69.5684 9.925 69.8784 9.965C70.1984 10.005 70.5084 10.04 70.8084 10.07C71.1084 10.09 71.3484 10.1 71.5284 10.1C71.9384 10.1 72.2784 10.065 72.5484 9.995C72.8184 9.915 73.0234 9.785 73.1634 9.605C73.3034 9.425 73.3734 9.17 73.3734 8.84C73.3734 8.59 73.3184 8.395 73.2084 8.255C73.1084 8.115 72.9134 8 72.6234 7.91C72.3434 7.82 71.9334 7.735 71.3934 7.655C70.8334 7.565 70.3634 7.455 69.9834 7.325C69.6134 7.185 69.3384 6.98 69.1584 6.71C68.9784 6.44 68.8884 6.055 68.8884 5.555C68.8884 4.995 69.0184 4.555 69.2784 4.235C69.5384 3.915 69.8734 3.69 70.2834 3.56C70.7034 3.42 71.1384 3.35 71.5884 3.35C71.8684 3.35 72.1734 3.365 72.5034 3.395C72.8434 3.425 73.1734 3.465 73.4934 3.515C73.8134 3.555 74.0884 3.595 74.3184 3.635L74.2884 4.64C74.0484 4.6 73.7684 4.565 73.4484 4.535C73.1284 4.495 72.8084 4.465 72.4884 4.445C72.1684 4.415 71.8884 4.4 71.6484 4.4C71.3484 4.4 71.0784 4.435 70.8384 4.505C70.5984 4.565 70.4084 4.675 70.2684 4.835C70.1284 4.995 70.0584 5.22 70.0584 5.51C70.0584 5.73 70.1084 5.91 70.2084 6.05C70.3084 6.18 70.4984 6.29 70.7784 6.38C71.0584 6.47 71.4634 6.56 71.9934 6.65C72.6134 6.75 73.1084 6.875 73.4784 7.025C73.8584 7.175 74.1334 7.385 74.3034 7.655C74.4734 7.925 74.5584 8.305 74.5584 8.795C74.5584 9.675 74.2984 10.29 73.7784 10.64C73.2584 10.98 72.5434 11.15 71.6334 11.15ZM77.4357 11L75.6657 3.5H76.8357L78.3057 9.995H78.5607L80.3157 3.65H81.5307L83.2857 9.995H83.5407L85.0107 3.5H86.1807L84.4107 11H82.4757L80.9157 5.195L79.3707 11H77.4357ZM90.6011 11.15C89.7611 11.15 89.1061 11.005 88.6361 10.715C88.1761 10.425 87.8511 9.985 87.6611 9.395C87.4811 8.805 87.3911 8.06 87.3911 7.16C87.3911 6.3 87.4911 5.59 87.6911 5.03C87.9011 4.47 88.2411 4.05 88.7111 3.77C89.1811 3.49 89.8111 3.35 90.6011 3.35C91.4011 3.35 92.0361 3.49 92.5061 3.77C92.9761 4.05 93.3111 4.47 93.5111 5.03C93.7211 5.59 93.8261 6.3 93.8261 7.16C93.8261 8.06 93.7311 8.805 93.5411 9.395C93.3611 9.985 93.0361 10.425 92.5661 10.715C92.1061 11.005 91.4511 11.15 90.6011 11.15ZM90.6011 10.145C91.1811 10.145 91.6161 10.045 91.9061 9.845C92.1961 9.635 92.3861 9.31 92.4761 8.87C92.5761 8.43 92.6261 7.86 92.6261 7.16C92.6261 6.47 92.5661 5.92 92.4461 5.51C92.3261 5.1 92.1211 4.805 91.8311 4.625C91.5411 4.445 91.1311 4.355 90.6011 4.355C90.0811 4.355 89.6711 4.445 89.3711 4.625C89.0811 4.805 88.8761 5.1 88.7561 5.51C88.6361 5.92 88.5761 6.47 88.5761 7.16C88.5761 7.86 88.6211 8.43 88.7111 8.87C88.8111 9.31 89.0061 9.635 89.2961 9.845C89.5861 10.045 90.0211 10.145 90.6011 10.145ZM95.6606 11V3.5H96.8156V4.505C97.0056 4.375 97.2456 4.235 97.5356 4.085C97.8256 3.925 98.1456 3.775 98.4956 3.635C98.8456 3.495 99.1956 3.395 99.5456 3.335V4.52C99.2056 4.59 98.8606 4.685 98.5106 4.805C98.1606 4.915 97.8356 5.035 97.5356 5.165C97.2456 5.295 97.0056 5.41 96.8156 5.51V11H95.6606ZM103.231 11.15C102.931 11.15 102.646 11.115 102.376 11.045C102.106 10.985 101.856 10.875 101.626 10.715C101.406 10.555 101.211 10.335 101.041 10.055C100.871 9.765 100.741 9.395 100.651 8.945C100.561 8.495 100.516 7.95 100.516 7.31C100.516 6.42 100.621 5.685 100.831 5.105C101.041 4.515 101.376 4.075 101.836 3.785C102.296 3.495 102.906 3.35 103.666 3.35C103.956 3.35 104.281 3.375 104.641 3.425C105.001 3.465 105.281 3.505 105.481 3.545V0.245H106.651V11H105.496V10.505C105.336 10.595 105.126 10.69 104.866 10.79C104.616 10.89 104.346 10.975 104.056 11.045C103.776 11.115 103.501 11.15 103.231 11.15ZM103.381 10.1C103.641 10.1 103.901 10.07 104.161 10.01C104.431 9.95 104.681 9.88 104.911 9.8C105.141 9.71 105.331 9.63 105.481 9.56V4.535C105.361 4.515 105.196 4.495 104.986 4.475C104.776 4.445 104.556 4.42 104.326 4.4C104.106 4.38 103.906 4.37 103.726 4.37C103.216 4.37 102.816 4.48 102.526 4.7C102.236 4.92 102.026 5.25 101.896 5.69C101.776 6.12 101.716 6.66 101.716 7.31C101.716 7.91 101.761 8.395 101.851 8.765C101.941 9.125 102.061 9.405 102.211 9.605C102.371 9.795 102.551 9.925 102.751 9.995C102.951 10.065 103.161 10.1 103.381 10.1ZM110.135 7.97C110.095 7.86 110.05 7.725 110 7.565C109.95 7.405 109.925 7.23 109.925 7.04C109.925 6.8 109.985 6.575 110.105 6.365C110.225 6.145 110.39 5.93 110.6 5.72C110.81 5.51 111.045 5.29 111.305 5.06C111.665 4.75 111.94 4.495 112.13 4.295C112.32 4.085 112.45 3.885 112.52 3.695C112.59 3.495 112.625 3.255 112.625 2.975C112.625 2.455 112.465 2.085 112.145 1.865C111.835 1.645 111.345 1.535 110.675 1.535C110.475 1.535 110.23 1.555 109.94 1.595C109.66 1.625 109.38 1.67 109.1 1.73C108.82 1.78 108.575 1.83 108.365 1.88L108.275 0.935C108.495 0.865 108.755 0.794999 109.055 0.724999C109.355 0.654999 109.66 0.595 109.97 0.545C110.28 0.495 110.555 0.47 110.795 0.47C111.805 0.47 112.56 0.655 113.06 1.025C113.57 1.395 113.825 2.015 113.825 2.885C113.825 3.315 113.79 3.67 113.72 3.95C113.65 4.23 113.515 4.495 113.315 4.745C113.115 4.985 112.82 5.27 112.43 5.6C111.99 5.97 111.66 6.29 111.44 6.56C111.22 6.82 111.11 7.115 111.11 7.445V7.97H110.135ZM109.97 10.985V9.26H111.23V10.985H109.97Z" fill="#3F3A3A"/>
</svg>
