<svg width="169" height="25" viewBox="0 0 169 25" fill="none" xmlns="http://www.w3.org/2000/svg">
<path d="M7.60491 19.234C6.25291 19.234 5.13491 19.026 4.25091 18.61C3.36691 18.194 2.66491 17.5873 2.14491 16.79C1.62491 15.9927 1.26091 15.022 1.05291 13.878C0.844906 12.734 0.740906 11.4427 0.740906 10.004C0.740906 8.548 0.844906 7.248 1.05291 6.104C1.26091 4.94267 1.61624 3.95467 2.11891 3.14C2.62157 2.32533 3.31491 1.70133 4.19891 1.268C5.08291 0.834666 6.21824 0.618 7.60491 0.618C8.28091 0.618 8.97424 0.652666 9.68491 0.722C10.4129 0.791332 11.0976 0.877999 11.7389 0.982C12.3976 1.086 12.9436 1.19 13.3769 1.294L13.2989 2.464C12.8309 2.36 12.2676 2.26467 11.6089 2.178C10.9502 2.074 10.2742 1.98733 9.58091 1.918C8.88757 1.84867 8.25491 1.814 7.68291 1.814C6.52157 1.814 5.57691 1.996 4.84891 2.36C4.12091 2.724 3.55757 3.26133 3.15891 3.972C2.76024 4.68267 2.48291 5.54067 2.32691 6.546C2.17091 7.55133 2.09291 8.704 2.09291 10.004C2.09291 11.72 2.24024 13.176 2.53491 14.372C2.82957 15.568 3.37557 16.4867 4.17291 17.128C4.97024 17.752 6.13157 18.064 7.65691 18.064C8.12491 18.064 8.62757 18.038 9.16491 17.986C9.71957 17.934 10.2569 17.8733 10.7769 17.804C11.2969 17.7173 11.7302 17.648 12.0769 17.596V11.122H8.48891V9.926H13.3769V18.61C13.1342 18.662 12.7789 18.7227 12.3109 18.792C11.8429 18.8613 11.3229 18.9307 10.7509 19C10.1962 19.0693 9.64157 19.1213 9.08691 19.156C8.53224 19.208 8.03824 19.234 7.60491 19.234ZM17.3592 19V0.124H18.6072V19H17.3592ZM25.4417 19.234C24.3324 19.234 23.4657 18.9133 22.8417 18.272C22.2351 17.6307 21.9317 16.6687 21.9317 15.386C21.9317 14.606 22.0617 13.956 22.3217 13.436C22.5817 12.916 22.9891 12.5087 23.5437 12.214C24.0984 11.902 24.8091 11.7027 25.6757 11.616L30.3037 11.122V9.848C30.3037 8.808 30.0784 8.06267 29.6277 7.612C29.1771 7.144 28.5011 6.91 27.5997 6.91C27.1491 6.91 26.6204 6.936 26.0137 6.988C25.4244 7.04 24.8351 7.10067 24.2457 7.17C23.6564 7.222 23.1364 7.274 22.6857 7.326L22.6077 6.26C23.0237 6.19067 23.5264 6.12133 24.1157 6.052C24.7051 5.96533 25.3117 5.896 25.9357 5.844C26.5597 5.792 27.1317 5.766 27.6517 5.766C28.5704 5.766 29.3157 5.922 29.8877 6.234C30.4597 6.52867 30.8844 6.97933 31.1617 7.586C31.4391 8.17533 31.5777 8.92933 31.5777 9.848V17.05C31.6124 17.4313 31.8117 17.7087 32.1757 17.882C32.5397 18.038 32.9384 18.1333 33.3717 18.168L33.3197 19.234C32.9904 19.234 32.6784 19.208 32.3837 19.156C32.1064 19.1213 31.8377 19.052 31.5777 18.948C31.3697 18.8613 31.1704 18.7573 30.9797 18.636C30.8064 18.4973 30.6417 18.3413 30.4857 18.168C30.1217 18.3067 29.6624 18.4627 29.1077 18.636C28.5531 18.8093 27.9551 18.948 27.3137 19.052C26.6724 19.1733 26.0484 19.234 25.4417 19.234ZM25.5457 18.142C26.1177 18.142 26.6984 18.09 27.2877 17.986C27.8771 17.882 28.4404 17.752 28.9777 17.596C29.5151 17.44 29.9571 17.2927 30.3037 17.154V12.188L25.8057 12.63C24.8697 12.7167 24.2111 12.9853 23.8297 13.436C23.4484 13.8867 23.2577 14.528 23.2577 15.36C23.2577 16.244 23.4484 16.9287 23.8297 17.414C24.2284 17.8993 24.8004 18.142 25.5457 18.142ZM39.6395 19.234C39.2409 19.234 38.8335 19.1993 38.4175 19.13C38.0015 19.0607 37.5942 18.9133 37.1955 18.688C36.8142 18.4453 36.4675 18.09 36.1555 17.622C35.8435 17.154 35.5922 16.5213 35.4015 15.724C35.2109 14.9093 35.1155 13.8953 35.1155 12.682C35.1155 11.174 35.2802 9.90867 35.6095 8.886C35.9562 7.846 36.5282 7.066 37.3255 6.546C38.1229 6.026 39.2149 5.766 40.6015 5.766C41.1735 5.766 41.7889 5.80933 42.4475 5.896C43.1062 5.96533 43.6002 6.026 43.9295 6.078V0.124H45.2035V19H43.9555V17.986C43.6609 18.1593 43.2709 18.35 42.7855 18.558C42.3175 18.7487 41.8062 18.9047 41.2515 19.026C40.7142 19.1647 40.1769 19.234 39.6395 19.234ZM39.7175 18.09C40.2375 18.09 40.7575 18.0293 41.2775 17.908C41.8149 17.7693 42.3175 17.6047 42.7855 17.414C43.2535 17.2233 43.6349 17.0413 43.9295 16.868V7.196C43.7215 7.16133 43.4182 7.118 43.0195 7.066C42.6209 7.014 42.2049 6.97067 41.7715 6.936C41.3382 6.90133 40.9569 6.884 40.6275 6.884C39.5009 6.884 38.6342 7.10933 38.0275 7.56C37.4382 8.01067 37.0222 8.66933 36.7795 9.536C36.5542 10.3853 36.4415 11.434 36.4415 12.682C36.4415 13.9127 36.5369 14.892 36.7275 15.62C36.9355 16.3307 37.1955 16.868 37.5075 17.232C37.8369 17.5787 38.1922 17.8127 38.5735 17.934C38.9549 18.038 39.3362 18.09 39.7175 18.09ZM59.0163 19.26C58.2016 19.26 57.5429 19.13 57.0403 18.87C56.5549 18.61 56.1996 18.1507 55.9743 17.492C55.7489 16.816 55.6363 15.854 55.6363 14.606V7.118H53.6343V6H55.6363V1.84H56.8843V6H61.4083V7.118H56.8843V13.722C56.8843 14.9007 56.9276 15.8107 57.0143 16.452C57.1183 17.076 57.3263 17.5093 57.6383 17.752C57.9676 17.9947 58.4529 18.116 59.0943 18.116C59.2676 18.116 59.5016 18.1073 59.7963 18.09C60.0909 18.0727 60.3943 18.0467 60.7063 18.012C61.0356 17.9773 61.3216 17.9513 61.5643 17.934L61.6683 19.026C61.2869 19.078 60.8363 19.13 60.3163 19.182C59.7963 19.234 59.3629 19.26 59.0163 19.26ZM68.7071 19.234C67.2858 19.234 66.1851 19.0087 65.4051 18.558C64.6251 18.1073 64.0878 17.3707 63.7931 16.348C63.4985 15.3253 63.3511 13.9733 63.3511 12.292C63.3511 10.7147 63.5245 9.44933 63.8711 8.496C64.2178 7.54267 64.7811 6.84933 65.5611 6.416C66.3585 5.98267 67.4071 5.766 68.7071 5.766C70.0245 5.766 71.0731 5.98267 71.8531 6.416C72.6505 6.84933 73.2225 7.54267 73.5691 8.496C73.9158 9.44933 74.0891 10.7147 74.0891 12.292C74.0891 13.9733 73.9418 15.3253 73.6471 16.348C73.3525 17.3707 72.8151 18.1073 72.0351 18.558C71.2725 19.0087 70.1631 19.234 68.7071 19.234ZM68.7071 18.116C69.9031 18.116 70.7871 17.9253 71.3591 17.544C71.9485 17.1627 72.3298 16.5473 72.5031 15.698C72.6765 14.8313 72.7631 13.696 72.7631 12.292C72.7631 10.9227 72.6418 9.848 72.3991 9.068C72.1565 8.27067 71.7405 7.70733 71.1511 7.378C70.5791 7.04867 69.7645 6.884 68.7071 6.884C67.6671 6.884 66.8525 7.04867 66.2631 7.378C65.6738 7.70733 65.2578 8.27067 65.0151 9.068C64.7725 9.848 64.6511 10.9227 64.6511 12.292C64.6511 13.696 64.7378 14.8313 64.9111 15.698C65.1018 16.5473 65.4831 17.1627 66.0551 17.544C66.6271 17.9253 67.5111 18.116 68.7071 18.116ZM87.117 19.234C86.7356 19.234 86.2763 19.208 85.739 19.156C85.219 19.1213 84.6903 19.0693 84.153 19C83.6156 18.9307 83.139 18.8613 82.723 18.792L82.827 17.674C83.243 17.726 83.711 17.7867 84.231 17.856C84.7683 17.9253 85.2883 17.986 85.791 18.038C86.2936 18.0727 86.701 18.09 87.013 18.09C87.793 18.09 88.4603 18.0207 89.015 17.882C89.587 17.726 90.0203 17.4487 90.315 17.05C90.627 16.634 90.783 16.0533 90.783 15.308C90.783 14.7533 90.6703 14.32 90.445 14.008C90.2196 13.696 89.8296 13.462 89.275 13.306C88.7376 13.1327 87.9576 12.968 86.935 12.812C85.947 12.656 85.1236 12.4653 84.465 12.24C83.8236 12.0147 83.347 11.6853 83.035 11.252C82.723 10.8013 82.567 10.1687 82.567 9.354C82.567 8.418 82.7923 7.69 83.243 7.17C83.6936 6.65 84.2656 6.286 84.959 6.078C85.6523 5.87 86.363 5.766 87.091 5.766C87.5763 5.766 88.0963 5.792 88.651 5.844C89.223 5.87867 89.769 5.93067 90.289 6C90.8263 6.06933 91.277 6.13 91.641 6.182L91.589 7.326C91.1903 7.25667 90.7223 7.196 90.185 7.144C89.665 7.07467 89.1276 7.02267 88.573 6.988C88.0356 6.936 87.5503 6.91 87.117 6.91C86.5796 6.91 86.0596 6.97933 85.557 7.118C85.0543 7.23933 84.647 7.47333 84.335 7.82C84.023 8.14933 83.867 8.63467 83.867 9.276C83.867 9.77867 83.9623 10.1773 84.153 10.472C84.3436 10.7493 84.699 10.9833 85.219 11.174C85.739 11.3473 86.4843 11.512 87.455 11.668C88.5816 11.8413 89.483 12.0493 90.159 12.292C90.835 12.5347 91.3203 12.8813 91.615 13.332C91.927 13.7653 92.083 14.398 92.083 15.23C92.083 16.7553 91.641 17.804 90.757 18.376C89.8903 18.948 88.677 19.234 87.117 19.234ZM99.7501 19.234C98.4675 19.234 97.4621 18.974 96.7341 18.454C96.0061 17.934 95.4948 17.1713 95.2001 16.166C94.9055 15.1607 94.7581 13.9473 94.7581 12.526C94.7581 10.8273 94.9921 9.49267 95.4601 8.522C95.9281 7.534 96.5521 6.832 97.3321 6.416C98.1295 5.98267 99.0481 5.766 100.088 5.766C101.717 5.766 102.957 6.24267 103.806 7.196C104.673 8.14933 105.106 9.73533 105.106 11.954L105.08 13.02H96.0581C96.0755 14.6667 96.3528 15.932 96.8901 16.816C97.4275 17.6827 98.4068 18.116 99.8281 18.116C100.296 18.116 100.816 18.1073 101.388 18.09C101.96 18.0553 102.532 18.0207 103.104 17.986C103.676 17.9513 104.17 17.9167 104.586 17.882L104.638 18.948C104.222 18.9827 103.719 19.026 103.13 19.078C102.558 19.13 101.969 19.1647 101.362 19.182C100.773 19.2167 100.235 19.234 99.7501 19.234ZM96.0581 11.928H103.806C103.806 10.056 103.503 8.74733 102.896 8.002C102.307 7.23933 101.371 6.858 100.088 6.858C98.8401 6.858 97.8521 7.248 97.1241 8.028C96.4135 8.79067 96.0581 10.0907 96.0581 11.928ZM112.826 19.234C111.544 19.234 110.538 18.974 109.81 18.454C109.082 17.934 108.571 17.1713 108.276 16.166C107.982 15.1607 107.834 13.9473 107.834 12.526C107.834 10.8273 108.068 9.49267 108.536 8.522C109.004 7.534 109.628 6.832 110.408 6.416C111.206 5.98267 112.124 5.766 113.164 5.766C114.794 5.766 116.033 6.24267 116.882 7.196C117.749 8.14933 118.182 9.73533 118.182 11.954L118.156 13.02H109.134C109.152 14.6667 109.429 15.932 109.966 16.816C110.504 17.6827 111.483 18.116 112.904 18.116C113.372 18.116 113.892 18.1073 114.464 18.09C115.036 18.0553 115.608 18.0207 116.18 17.986C116.752 17.9513 117.246 17.9167 117.662 17.882L117.714 18.948C117.298 18.9827 116.796 19.026 116.206 19.078C115.634 19.13 115.045 19.1647 114.438 19.182C113.849 19.2167 113.312 19.234 112.826 19.234ZM109.134 11.928H116.882C116.882 10.056 116.579 8.74733 115.972 8.002C115.383 7.23933 114.447 6.858 113.164 6.858C111.916 6.858 110.928 7.248 110.2 8.028C109.49 8.79067 109.134 10.0907 109.134 11.928ZM129.743 24.902L131.563 19H129.873L125.947 6H127.247L130.861 17.882H131.875L135.515 6H136.815L131.043 24.902H129.743ZM144.371 19.234C142.95 19.234 141.849 19.0087 141.069 18.558C140.289 18.1073 139.752 17.3707 139.457 16.348C139.163 15.3253 139.015 13.9733 139.015 12.292C139.015 10.7147 139.189 9.44933 139.535 8.496C139.882 7.54267 140.445 6.84933 141.225 6.416C142.023 5.98267 143.071 5.766 144.371 5.766C145.689 5.766 146.737 5.98267 147.517 6.416C148.315 6.84933 148.887 7.54267 149.233 8.496C149.58 9.44933 149.753 10.7147 149.753 12.292C149.753 13.9733 149.606 15.3253 149.311 16.348C149.017 17.3707 148.479 18.1073 147.699 18.558C146.937 19.0087 145.827 19.234 144.371 19.234ZM144.371 18.116C145.567 18.116 146.451 17.9253 147.023 17.544C147.613 17.1627 147.994 16.5473 148.167 15.698C148.341 14.8313 148.427 13.696 148.427 12.292C148.427 10.9227 148.306 9.848 148.063 9.068C147.821 8.27067 147.405 7.70733 146.815 7.378C146.243 7.04867 145.429 6.884 144.371 6.884C143.331 6.884 142.517 7.04867 141.927 7.378C141.338 7.70733 140.922 8.27067 140.679 9.068C140.437 9.848 140.315 10.9227 140.315 12.292C140.315 13.696 140.402 14.8313 140.575 15.698C140.766 16.5473 141.147 17.1627 141.719 17.544C142.291 17.9253 143.175 18.116 144.371 18.116ZM157.12 19.234C156.028 19.234 155.187 19.026 154.598 18.61C154.026 18.194 153.636 17.5093 153.428 16.556C153.22 15.6027 153.116 14.3373 153.116 12.76V6H154.364V12.734C154.364 14.0687 154.433 15.126 154.572 15.906C154.728 16.686 155.023 17.2493 155.456 17.596C155.889 17.9253 156.531 18.09 157.38 18.09C158.281 18.09 159.087 17.96 159.798 17.7C160.526 17.4227 161.107 17.1627 161.54 16.92V6H162.788V19H161.54V18.012C161.055 18.2893 160.457 18.5667 159.746 18.844C159.035 19.104 158.16 19.234 157.12 19.234ZM167.221 13.306L167.169 0.877999H168.469L168.443 13.306H167.221ZM167.143 19V16.634H168.547V19H167.143Z" fill="white"/>
</svg>
