<svg width="302" height="72" viewBox="0 0 302 72" fill="none" xmlns="http://www.w3.org/2000/svg">
<g filter="url(#filter0_d_270_3)">
<path d="M7 15C7 9.47715 11.4772 5 17 5H277C282.523 5 287 9.47715 287 15V45C287 50.5228 282.523 55 277 55H17C11.4771 55 7 50.5228 7 45V15Z" stroke="white" stroke-width="1.4" shape-rendering="crispEdges"/>
</g>
<path d="M24.998 33V21.976H29.062C29.9047 21.976 30.598 22.1093 31.142 22.376C31.686 22.632 32.0913 23.0267 32.358 23.56C32.6247 24.0933 32.758 24.7813 32.758 25.624C32.758 26.456 32.6247 27.1547 32.358 27.72C32.0913 28.2853 31.686 28.712 31.142 29C30.598 29.288 29.9047 29.432 29.062 29.432H26.534V33H24.998ZM26.534 28.136H29.046C29.8033 28.136 30.3473 27.9227 30.678 27.496C31.0193 27.0587 31.19 26.4347 31.19 25.624C31.19 24.8133 31.0193 24.2213 30.678 23.848C30.3473 23.4747 29.8033 23.288 29.046 23.288H26.534V28.136ZM36.162 33.16C35.4047 33.16 34.8287 32.952 34.434 32.536C34.0393 32.12 33.842 31.5067 33.842 30.696C33.842 30.152 33.938 29.7147 34.13 29.384C34.322 29.0427 34.6047 28.7867 34.978 28.616C35.362 28.4453 35.8367 28.344 36.402 28.312L38.722 28.088V27.464C38.722 26.9627 38.61 26.6107 38.386 26.408C38.162 26.1947 37.826 26.088 37.378 26.088C37.1007 26.088 36.7753 26.0987 36.402 26.12C36.0287 26.1413 35.6607 26.168 35.298 26.2C34.9353 26.232 34.61 26.264 34.322 26.296L34.258 25.208C34.5247 25.144 34.8393 25.0853 35.202 25.032C35.5753 24.9787 35.9647 24.9307 36.37 24.888C36.7753 24.8453 37.1487 24.824 37.49 24.824C38.1193 24.824 38.6367 24.9147 39.042 25.096C39.4473 25.2773 39.746 25.56 39.938 25.944C40.13 26.328 40.226 26.824 40.226 27.432V31.368C40.2473 31.5813 40.3327 31.7413 40.482 31.848C40.642 31.944 40.8393 32.008 41.074 32.04L41.026 33.144C40.7913 33.144 40.5673 33.1333 40.354 33.112C40.1513 33.1013 39.9647 33.0693 39.794 33.016C39.6233 32.9733 39.4687 32.9147 39.33 32.84C39.202 32.7547 39.0793 32.6587 38.962 32.552C38.77 32.6373 38.5193 32.728 38.21 32.824C37.9007 32.92 37.57 33 37.218 33.064C36.866 33.128 36.514 33.16 36.162 33.16ZM36.466 31.976C36.7327 31.976 37.0047 31.9493 37.282 31.896C37.57 31.8427 37.842 31.784 38.098 31.72C38.354 31.6453 38.562 31.5813 38.722 31.528V29.128L36.594 29.336C36.146 29.368 35.826 29.496 35.634 29.72C35.442 29.9333 35.346 30.2427 35.346 30.648C35.346 31.064 35.4367 31.3893 35.618 31.624C35.81 31.8587 36.0927 31.976 36.466 31.976ZM45.055 33.16C44.7777 33.16 44.4577 33.144 44.095 33.112C43.743 33.08 43.391 33.0427 43.039 33C42.6977 32.9467 42.399 32.8933 42.143 32.84L42.207 31.64C42.4737 31.672 42.7777 31.7093 43.119 31.752C43.4603 31.7947 43.791 31.832 44.111 31.864C44.4417 31.8853 44.703 31.896 44.895 31.896C45.3003 31.896 45.6363 31.8587 45.903 31.784C46.1697 31.7093 46.3723 31.5867 46.511 31.416C46.6497 31.2347 46.719 30.9893 46.719 30.68C46.719 30.4347 46.6657 30.248 46.559 30.12C46.4523 29.9813 46.255 29.8693 45.967 29.784C45.679 29.688 45.2577 29.5973 44.703 29.512C44.1057 29.416 43.6097 29.2987 43.215 29.16C42.8203 29.0107 42.527 28.7867 42.335 28.488C42.143 28.1893 42.047 27.7733 42.047 27.24C42.047 26.6213 42.1857 26.1413 42.463 25.8C42.751 25.448 43.119 25.1973 43.567 25.048C44.0257 24.8987 44.5057 24.824 45.007 24.824C45.327 24.824 45.6683 24.84 46.031 24.872C46.4043 24.904 46.7617 24.9467 47.103 25C47.4443 25.0533 47.7377 25.1013 47.983 25.144L47.935 26.36C47.679 26.3173 47.3803 26.28 47.039 26.248C46.6977 26.2053 46.3563 26.1733 46.015 26.152C45.6737 26.1307 45.375 26.12 45.119 26.12C44.8203 26.12 44.5483 26.152 44.303 26.216C44.0683 26.2693 43.8817 26.376 43.743 26.536C43.615 26.6853 43.551 26.904 43.551 27.192C43.551 27.4053 43.599 27.576 43.695 27.704C43.791 27.832 43.983 27.944 44.271 28.04C44.559 28.1253 44.9697 28.2107 45.503 28.296C46.1643 28.4027 46.6923 28.536 47.087 28.696C47.4817 28.856 47.7697 29.0853 47.951 29.384C48.1323 29.6827 48.223 30.0933 48.223 30.616C48.223 31.5653 47.9403 32.2267 47.375 32.6C46.8203 32.9733 46.047 33.16 45.055 33.16ZM52.5394 33.16C52.262 33.16 51.942 33.144 51.5794 33.112C51.2274 33.08 50.8754 33.0427 50.5234 33C50.182 32.9467 49.8834 32.8933 49.6274 32.84L49.6914 31.64C49.958 31.672 50.262 31.7093 50.6034 31.752C50.9447 31.7947 51.2754 31.832 51.5954 31.864C51.926 31.8853 52.1874 31.896 52.3794 31.896C52.7847 31.896 53.1207 31.8587 53.3874 31.784C53.654 31.7093 53.8567 31.5867 53.9954 31.416C54.134 31.2347 54.2034 30.9893 54.2034 30.68C54.2034 30.4347 54.15 30.248 54.0434 30.12C53.9367 29.9813 53.7394 29.8693 53.4514 29.784C53.1634 29.688 52.742 29.5973 52.1874 29.512C51.59 29.416 51.094 29.2987 50.6994 29.16C50.3047 29.0107 50.0114 28.7867 49.8194 28.488C49.6274 28.1893 49.5314 27.7733 49.5314 27.24C49.5314 26.6213 49.67 26.1413 49.9474 25.8C50.2354 25.448 50.6034 25.1973 51.0514 25.048C51.51 24.8987 51.99 24.824 52.4914 24.824C52.8114 24.824 53.1527 24.84 53.5154 24.872C53.8887 24.904 54.246 24.9467 54.5874 25C54.9287 25.0533 55.222 25.1013 55.4674 25.144L55.4194 26.36C55.1634 26.3173 54.8647 26.28 54.5234 26.248C54.182 26.2053 53.8407 26.1733 53.4994 26.152C53.158 26.1307 52.8594 26.12 52.6034 26.12C52.3047 26.12 52.0327 26.152 51.7874 26.216C51.5527 26.2693 51.366 26.376 51.2274 26.536C51.0994 26.6853 51.0354 26.904 51.0354 27.192C51.0354 27.4053 51.0834 27.576 51.1794 27.704C51.2754 27.832 51.4674 27.944 51.7554 28.04C52.0434 28.1253 52.454 28.2107 52.9874 28.296C53.6487 28.4027 54.1767 28.536 54.5714 28.696C54.966 28.856 55.254 29.0853 55.4354 29.384C55.6167 29.6827 55.7074 30.0933 55.7074 30.616C55.7074 31.5653 55.4247 32.2267 54.8594 32.6C54.3047 32.9733 53.5314 33.16 52.5394 33.16ZM58.5998 33L56.8078 24.984H58.3438L59.7518 31.72H60.0238L61.7358 25.16H63.2398L64.9678 31.72H65.2238L66.6478 24.984H68.1358L66.3598 33H63.9758L62.4558 27.096L60.9518 33H58.5998ZM72.8498 33.16C71.9538 33.16 71.2498 33.0107 70.7378 32.712C70.2258 32.4027 69.8631 31.9333 69.6497 31.304C69.4364 30.6747 69.3298 29.8747 69.3298 28.904C69.3298 27.976 69.4418 27.2133 69.6658 26.616C69.9004 26.0187 70.2738 25.5707 70.7858 25.272C71.3084 24.9733 71.9964 24.824 72.8498 24.824C73.7138 24.824 74.4018 24.9733 74.9138 25.272C75.4258 25.5707 75.7938 26.0187 76.0178 26.616C76.2524 27.2133 76.3698 27.976 76.3698 28.904C76.3698 29.8747 76.2631 30.6747 76.0498 31.304C75.8471 31.9333 75.4898 32.4027 74.9778 32.712C74.4658 33.0107 73.7564 33.16 72.8498 33.16ZM72.8498 31.896C73.4151 31.896 73.8418 31.7947 74.1298 31.592C74.4178 31.3893 74.6098 31.0693 74.7058 30.632C74.8018 30.184 74.8498 29.608 74.8498 28.904C74.8498 28.2107 74.7911 27.6613 74.6738 27.256C74.5564 26.84 74.3538 26.5413 74.0658 26.36C73.7778 26.1787 73.3724 26.088 72.8498 26.088C72.3378 26.088 71.9324 26.1787 71.6338 26.36C71.3458 26.5413 71.1431 26.84 71.0258 27.256C70.9084 27.6613 70.8498 28.2107 70.8498 28.904C70.8498 29.608 70.8978 30.184 70.9938 30.632C71.0898 31.0693 71.2764 31.3893 71.5538 31.592C71.8418 31.7947 72.2738 31.896 72.8498 31.896ZM78.197 33V24.984H79.685V26.024C79.877 25.8853 80.1223 25.736 80.421 25.576C80.7197 25.416 81.045 25.2667 81.397 25.128C81.7597 24.9787 82.117 24.872 82.469 24.808V26.296C82.1277 26.36 81.7757 26.4507 81.413 26.568C81.061 26.6853 80.7303 26.8133 80.421 26.952C80.1223 27.08 79.877 27.1973 79.685 27.304V33H78.197ZM86.3511 33.16C86.0205 33.16 85.7058 33.1227 85.4071 33.048C85.1085 32.9733 84.8365 32.8507 84.5911 32.68C84.3565 32.4987 84.1485 32.2533 83.9671 31.944C83.7965 31.6347 83.6631 31.2453 83.5671 30.776C83.4818 30.296 83.4391 29.72 83.4391 29.048C83.4391 28.1093 83.5511 27.3307 83.7751 26.712C83.9991 26.0827 84.3565 25.6133 84.8471 25.304C85.3378 24.984 85.9938 24.824 86.8151 24.824C87.1031 24.824 87.4338 24.8507 87.8071 24.904C88.1805 24.9467 88.4685 24.984 88.6711 25.016V21.576H90.1751V33H88.7031L88.6871 32.488C88.5271 32.584 88.3138 32.6853 88.0471 32.792C87.7911 32.8987 87.5138 32.984 87.2151 33.048C86.9165 33.1227 86.6285 33.16 86.3511 33.16ZM86.6231 31.864C86.8791 31.864 87.1351 31.8373 87.3911 31.784C87.6471 31.72 87.8871 31.6453 88.1111 31.56C88.3458 31.4747 88.5325 31.4 88.6711 31.336V26.264C88.5538 26.2427 88.3885 26.2213 88.1751 26.2C87.9725 26.1787 87.7591 26.1573 87.5351 26.136C87.3218 26.1147 87.1245 26.104 86.9431 26.104C86.4418 26.104 86.0471 26.216 85.7591 26.44C85.4711 26.664 85.2631 26.9947 85.1351 27.432C85.0178 27.8693 84.9591 28.408 84.9591 29.048C84.9591 29.6453 85.0018 30.1253 85.0871 30.488C85.1725 30.8507 85.2898 31.1333 85.4391 31.336C85.5991 31.5387 85.7805 31.6773 85.9831 31.752C86.1858 31.8267 86.3991 31.864 86.6231 31.864Z" fill="white"/>
<defs>
<filter id="filter0_d_270_3" x="0.300049" y="0.299988" width="301.4" height="71.4" filterUnits="userSpaceOnUse" color-interpolation-filters="sRGB">
<feFlood flood-opacity="0" result="BackgroundImageFix"/>
<feColorMatrix in="SourceAlpha" type="matrix" values="0 0 0 0 0 0 0 0 0 0 0 0 0 0 0 0 0 0 127 0" result="hardAlpha"/>
<feOffset dx="4" dy="6"/>
<feGaussianBlur stdDeviation="5"/>
<feComposite in2="hardAlpha" operator="out"/>
<feColorMatrix type="matrix" values="0 0 0 0 0.266667 0 0 0 0 0.301961 0 0 0 0 0.333333 0 0 0 1 0"/>
<feBlend mode="normal" in2="BackgroundImageFix" result="effect1_dropShadow_270_3"/>
<feBlend mode="normal" in="SourceGraphic" in2="effect1_dropShadow_270_3" result="shape"/>
</filter>
</defs>
</svg>
