<svg width="300" height="70" viewBox="0 0 300 70" fill="none" xmlns="http://www.w3.org/2000/svg">
<g filter="url(#filter0_d_270_6)">
<path d="M7 17C7 11.4772 11.4772 7 17 7H277C282.523 7 287 11.4772 287 17V47C287 52.5228 282.523 57 277 57H17C11.4771 57 7 52.5228 7 47V17Z" fill="#F3F9FF"/>
</g>
<path d="M124.342 37V25.976H125.878V35.656H130.566V37H124.342ZM135.022 37.16C134.126 37.16 133.422 37.0107 132.91 36.712C132.398 36.4027 132.035 35.9333 131.822 35.304C131.608 34.6747 131.502 33.8747 131.502 32.904C131.502 31.976 131.614 31.2133 131.838 30.616C132.072 30.0187 132.446 29.5707 132.958 29.272C133.48 28.9733 134.168 28.824 135.022 28.824C135.886 28.824 136.574 28.9733 137.086 29.272C137.598 29.5707 137.966 30.0187 138.19 30.616C138.424 31.2133 138.542 31.976 138.542 32.904C138.542 33.8747 138.435 34.6747 138.222 35.304C138.019 35.9333 137.662 36.4027 137.15 36.712C136.638 37.0107 135.928 37.16 135.022 37.16ZM135.022 35.896C135.587 35.896 136.014 35.7947 136.302 35.592C136.59 35.3893 136.782 35.0693 136.878 34.632C136.974 34.184 137.022 33.608 137.022 32.904C137.022 32.2107 136.963 31.6613 136.846 31.256C136.728 30.84 136.526 30.5413 136.238 30.36C135.95 30.1787 135.544 30.088 135.022 30.088C134.51 30.088 134.104 30.1787 133.806 30.36C133.518 30.5413 133.315 30.84 133.198 31.256C133.08 31.6613 133.022 32.2107 133.022 32.904C133.022 33.608 133.07 34.184 133.166 34.632C133.262 35.0693 133.448 35.3893 133.726 35.592C134.014 35.7947 134.446 35.896 135.022 35.896ZM143.585 40.728C142.742 40.728 142.06 40.6587 141.537 40.52C141.014 40.3813 140.63 40.136 140.385 39.784C140.14 39.4427 140.017 38.968 140.017 38.36C140.017 38.0507 140.06 37.784 140.145 37.56C140.241 37.3467 140.38 37.1493 140.561 36.968C140.753 36.776 140.988 36.5787 141.265 36.376C141.116 36.2693 140.998 36.1147 140.913 35.912C140.838 35.7093 140.801 35.4853 140.801 35.24C140.801 35.1227 140.865 34.936 140.993 34.68C141.121 34.424 141.249 34.1947 141.377 33.992C141.153 33.8853 140.945 33.7413 140.753 33.56C140.572 33.368 140.422 33.112 140.305 32.792C140.188 32.472 140.129 32.0667 140.129 31.576C140.129 30.584 140.406 29.88 140.961 29.464C141.526 29.0373 142.278 28.824 143.217 28.824C143.505 28.824 143.809 28.8453 144.129 28.888C144.449 28.9307 144.7 28.9787 144.881 29.032L147.329 28.968V30.136L145.905 30.104C146.044 30.2427 146.156 30.4293 146.241 30.664C146.337 30.8987 146.385 31.2027 146.385 31.576C146.385 32.28 146.268 32.8347 146.033 33.24C145.798 33.6347 145.441 33.912 144.961 34.072C144.492 34.2213 143.9 34.296 143.185 34.296C143.11 34.296 142.988 34.2907 142.817 34.28C142.657 34.2587 142.534 34.2427 142.449 34.232C142.385 34.3707 142.321 34.5307 142.257 34.712C142.204 34.8827 142.177 35.0053 142.177 35.08C142.177 35.2613 142.214 35.4 142.289 35.496C142.374 35.592 142.55 35.656 142.817 35.688C143.094 35.72 143.526 35.736 144.113 35.736C144.881 35.736 145.494 35.8053 145.953 35.944C146.412 36.072 146.737 36.3067 146.929 36.648C147.121 36.9787 147.217 37.464 147.217 38.104C147.217 39.032 146.897 39.6987 146.257 40.104C145.617 40.52 144.726 40.728 143.585 40.728ZM143.569 39.528C144.316 39.528 144.865 39.4267 145.217 39.224C145.569 39.0213 145.745 38.6853 145.745 38.216C145.745 37.8533 145.686 37.5867 145.569 37.416C145.462 37.2453 145.27 37.1333 144.993 37.08C144.716 37.0267 144.348 37 143.889 37C143.793 37 143.66 37 143.489 37C143.329 36.9893 143.158 36.984 142.977 36.984C142.806 36.9733 142.652 36.9627 142.513 36.952C142.374 36.9413 142.278 36.936 142.225 36.936C141.926 37.1493 141.718 37.3413 141.601 37.512C141.484 37.6933 141.425 37.9227 141.425 38.2C141.425 38.52 141.489 38.776 141.617 38.968C141.745 39.1707 141.964 39.3147 142.273 39.4C142.582 39.4853 143.014 39.528 143.569 39.528ZM143.217 33.176C143.836 33.176 144.273 33.0533 144.529 32.808C144.796 32.5627 144.929 32.152 144.929 31.576C144.929 31 144.796 30.5893 144.529 30.344C144.273 30.0987 143.836 29.976 143.217 29.976C142.641 29.976 142.225 30.0987 141.969 30.344C141.724 30.5893 141.601 31 141.601 31.576C141.601 32.152 141.724 32.5627 141.969 32.808C142.225 33.0533 142.641 33.176 143.217 33.176ZM148.681 37V28.984H150.169V37H148.681ZM148.681 27.368V25.816H150.169V27.368H148.681ZM152.306 37V28.984H153.794V29.544C153.965 29.4373 154.184 29.3307 154.45 29.224C154.717 29.1173 155 29.0267 155.298 28.952C155.597 28.8667 155.885 28.824 156.162 28.824C156.909 28.824 157.48 28.9573 157.874 29.224C158.269 29.48 158.541 29.9013 158.69 30.488C158.85 31.064 158.93 31.8267 158.93 32.776V37H157.426V32.856C157.426 32.1947 157.389 31.6667 157.314 31.272C157.24 30.8773 157.09 30.5947 156.866 30.424C156.642 30.2427 156.306 30.152 155.858 30.152C155.613 30.152 155.357 30.1787 155.09 30.232C154.834 30.2853 154.589 30.3547 154.354 30.44C154.13 30.5253 153.944 30.6053 153.794 30.68V37H152.306Z" fill="#574ADD"/>
<defs>
<filter id="filter0_d_270_6" x="0" y="0" width="300" height="70" filterUnits="userSpaceOnUse" color-interpolation-filters="sRGB">
<feFlood flood-opacity="0" result="BackgroundImageFix"/>
<feColorMatrix in="SourceAlpha" type="matrix" values="0 0 0 0 0 0 0 0 0 0 0 0 0 0 0 0 0 0 127 0" result="hardAlpha"/>
<feOffset dx="3" dy="3"/>
<feGaussianBlur stdDeviation="5"/>
<feComposite in2="hardAlpha" operator="out"/>
<feColorMatrix type="matrix" values="0 0 0 0 0.266667 0 0 0 0 0.301961 0 0 0 0 0.333333 0 0 0 1 0"/>
<feBlend mode="normal" in2="BackgroundImageFix" result="effect1_dropShadow_270_6"/>
<feBlend mode="normal" in="SourceGraphic" in2="effect1_dropShadow_270_6" result="shape"/>
</filter>
</defs>
</svg>
