<svg width="264" height="63" viewBox="0 0 264 63" fill="none" xmlns="http://www.w3.org/2000/svg">
<path d="M110.831 19V8.635H117.056V9.7H112.031V13.69H116.276V14.755H112.031V19H110.831ZM121.426 19.15C120.586 19.15 119.931 19.005 119.461 18.715C119.001 18.425 118.676 17.985 118.486 17.395C118.306 16.805 118.216 16.06 118.216 15.16C118.216 14.3 118.316 13.59 118.516 13.03C118.726 12.47 119.066 12.05 119.536 11.77C120.006 11.49 120.636 11.35 121.426 11.35C122.226 11.35 122.861 11.49 123.331 11.77C123.801 12.05 124.136 12.47 124.336 13.03C124.546 13.59 124.651 14.3 124.651 15.16C124.651 16.06 124.556 16.805 124.366 17.395C124.186 17.985 123.861 18.425 123.391 18.715C122.931 19.005 122.276 19.15 121.426 19.15ZM121.426 18.145C122.006 18.145 122.441 18.045 122.731 17.845C123.021 17.635 123.211 17.31 123.301 16.87C123.401 16.43 123.451 15.86 123.451 15.16C123.451 14.47 123.391 13.92 123.271 13.51C123.151 13.1 122.946 12.805 122.656 12.625C122.366 12.445 121.956 12.355 121.426 12.355C120.906 12.355 120.496 12.445 120.196 12.625C119.906 12.805 119.701 13.1 119.581 13.51C119.461 13.92 119.401 14.47 119.401 15.16C119.401 15.86 119.446 16.43 119.536 16.87C119.636 17.31 119.831 17.635 120.121 17.845C120.411 18.045 120.846 18.145 121.426 18.145ZM126.486 19V11.5H127.641V12.505C127.831 12.375 128.071 12.235 128.361 12.085C128.651 11.925 128.971 11.775 129.321 11.635C129.671 11.495 130.021 11.395 130.371 11.335V12.52C130.031 12.59 129.686 12.685 129.336 12.805C128.986 12.915 128.661 13.035 128.361 13.165C128.071 13.295 127.831 13.41 127.641 13.51V19H126.486ZM134.581 22.525C133.801 22.525 133.171 22.455 132.691 22.315C132.221 22.185 131.876 21.955 131.656 21.625C131.446 21.295 131.341 20.845 131.341 20.275C131.341 19.985 131.386 19.735 131.476 19.525C131.566 19.325 131.696 19.14 131.866 18.97C132.046 18.79 132.266 18.605 132.526 18.415C132.396 18.315 132.291 18.175 132.211 17.995C132.141 17.805 132.106 17.595 132.106 17.365C132.106 17.255 132.161 17.08 132.271 16.84C132.391 16.59 132.506 16.37 132.616 16.18C132.406 16.08 132.211 15.945 132.031 15.775C131.861 15.595 131.721 15.355 131.611 15.055C131.501 14.755 131.446 14.375 131.446 13.915C131.446 12.995 131.706 12.34 132.226 11.95C132.746 11.55 133.421 11.35 134.251 11.35C134.521 11.35 134.806 11.37 135.106 11.41C135.406 11.45 135.641 11.495 135.811 11.545L138.046 11.485V12.475L136.636 12.445C136.776 12.585 136.891 12.77 136.981 13C137.081 13.23 137.131 13.535 137.131 13.915C137.131 14.565 137.021 15.075 136.801 15.445C136.581 15.815 136.256 16.075 135.826 16.225C135.396 16.375 134.856 16.45 134.206 16.45C134.136 16.45 134.016 16.445 133.846 16.435C133.686 16.415 133.566 16.4 133.486 16.39C133.426 16.53 133.366 16.69 133.306 16.87C133.246 17.05 133.216 17.175 133.216 17.245C133.216 17.435 133.251 17.58 133.321 17.68C133.391 17.78 133.551 17.845 133.801 17.875C134.061 17.905 134.466 17.92 135.016 17.92C135.736 17.92 136.311 17.98 136.741 18.1C137.171 18.22 137.476 18.44 137.656 18.76C137.846 19.07 137.941 19.525 137.941 20.125C137.941 20.975 137.646 21.585 137.056 21.955C136.466 22.335 135.641 22.525 134.581 22.525ZM134.596 21.535C135.336 21.535 135.881 21.43 136.231 21.22C136.581 21.01 136.756 20.665 136.756 20.185C136.756 19.815 136.696 19.54 136.576 19.36C136.466 19.19 136.276 19.075 136.006 19.015C135.736 18.965 135.376 18.94 134.926 18.94C134.836 18.94 134.711 18.94 134.551 18.94C134.391 18.93 134.226 18.925 134.056 18.925C133.886 18.915 133.731 18.905 133.591 18.895C133.461 18.885 133.371 18.88 133.321 18.88C133.011 19.1 132.796 19.295 132.676 19.465C132.556 19.645 132.496 19.88 132.496 20.17C132.496 20.5 132.556 20.765 132.676 20.965C132.796 21.165 133.006 21.31 133.306 21.4C133.616 21.49 134.046 21.535 134.596 21.535ZM134.251 15.52C134.871 15.52 135.311 15.4 135.571 15.16C135.831 14.91 135.961 14.495 135.961 13.915C135.961 13.335 135.831 12.92 135.571 12.67C135.311 12.42 134.871 12.295 134.251 12.295C133.671 12.295 133.251 12.42 132.991 12.67C132.741 12.92 132.616 13.335 132.616 13.915C132.616 14.495 132.741 14.91 132.991 15.16C133.251 15.4 133.671 15.52 134.251 15.52ZM142.286 19.15C141.446 19.15 140.791 19.005 140.321 18.715C139.861 18.425 139.536 17.985 139.346 17.395C139.166 16.805 139.076 16.06 139.076 15.16C139.076 14.3 139.176 13.59 139.376 13.03C139.586 12.47 139.926 12.05 140.396 11.77C140.866 11.49 141.496 11.35 142.286 11.35C143.086 11.35 143.721 11.49 144.191 11.77C144.661 12.05 144.996 12.47 145.196 13.03C145.406 13.59 145.511 14.3 145.511 15.16C145.511 16.06 145.416 16.805 145.226 17.395C145.046 17.985 144.721 18.425 144.251 18.715C143.791 19.005 143.136 19.15 142.286 19.15ZM142.286 18.145C142.866 18.145 143.301 18.045 143.591 17.845C143.881 17.635 144.071 17.31 144.161 16.87C144.261 16.43 144.311 15.86 144.311 15.16C144.311 14.47 144.251 13.92 144.131 13.51C144.011 13.1 143.806 12.805 143.516 12.625C143.226 12.445 142.816 12.355 142.286 12.355C141.766 12.355 141.356 12.445 141.056 12.625C140.766 12.805 140.561 13.1 140.441 13.51C140.321 13.92 140.261 14.47 140.261 15.16C140.261 15.86 140.306 16.43 140.396 16.87C140.496 17.31 140.691 17.635 140.981 17.845C141.271 18.045 141.706 18.145 142.286 18.145ZM149.805 19.165C149.285 19.165 148.87 19.085 148.56 18.925C148.26 18.765 148.045 18.49 147.915 18.1C147.785 17.7 147.72 17.14 147.72 16.42V12.505H146.655V11.5H147.72V9.205H148.875V11.5H151.23V12.505H148.875V16.075C148.875 16.605 148.895 17.02 148.935 17.32C148.985 17.61 149.085 17.815 149.235 17.935C149.385 18.055 149.62 18.115 149.94 18.115C150.04 18.115 150.17 18.11 150.33 18.1C150.49 18.09 150.65 18.08 150.81 18.07C150.98 18.05 151.13 18.035 151.26 18.025L151.335 19C151.115 19.03 150.855 19.065 150.555 19.105C150.255 19.145 150.005 19.165 149.805 19.165ZM156.08 19V8.635H159.875C160.635 8.635 161.26 8.76 161.75 9.01C162.24 9.25 162.605 9.62 162.845 10.12C163.085 10.61 163.205 11.235 163.205 11.995C163.205 12.745 163.085 13.385 162.845 13.915C162.605 14.435 162.24 14.835 161.75 15.115C161.26 15.385 160.635 15.52 159.875 15.52H157.28V19H156.08ZM157.28 14.47H159.875C160.615 14.47 161.15 14.255 161.48 13.825C161.81 13.395 161.975 12.785 161.975 11.995C161.975 11.195 161.81 10.61 161.48 10.24C161.15 9.87 160.615 9.685 159.875 9.685H157.28V14.47ZM166.412 19.15C165.722 19.15 165.197 18.955 164.837 18.565C164.477 18.175 164.297 17.605 164.297 16.855C164.297 16.365 164.382 15.965 164.552 15.655C164.722 15.345 164.977 15.11 165.317 14.95C165.667 14.78 166.097 14.675 166.607 14.635L168.917 14.41V13.765C168.917 13.255 168.802 12.895 168.572 12.685C168.352 12.475 168.022 12.37 167.582 12.37C167.332 12.37 167.032 12.38 166.682 12.4C166.342 12.42 166.002 12.445 165.662 12.475C165.322 12.505 165.022 12.535 164.762 12.565L164.702 11.68C164.942 11.63 165.232 11.58 165.572 11.53C165.912 11.48 166.267 11.44 166.637 11.41C167.007 11.37 167.347 11.35 167.657 11.35C168.227 11.35 168.692 11.44 169.052 11.62C169.412 11.79 169.672 12.055 169.832 12.415C170.002 12.765 170.087 13.215 170.087 13.765V17.56C170.107 17.78 170.192 17.94 170.342 18.04C170.502 18.14 170.702 18.205 170.942 18.235L170.897 19.15C170.677 19.15 170.477 19.135 170.297 19.105C170.117 19.085 169.947 19.05 169.787 19C169.657 18.95 169.532 18.89 169.412 18.82C169.302 18.75 169.192 18.665 169.082 18.565C168.892 18.645 168.647 18.73 168.347 18.82C168.057 18.91 167.742 18.985 167.402 19.045C167.072 19.115 166.742 19.15 166.412 19.15ZM166.607 18.175C166.877 18.175 167.157 18.15 167.447 18.1C167.737 18.05 168.012 17.99 168.272 17.92C168.532 17.85 168.747 17.785 168.917 17.725V15.28L166.742 15.49C166.292 15.53 165.967 15.66 165.767 15.88C165.577 16.1 165.482 16.415 165.482 16.825C165.482 17.245 165.577 17.575 165.767 17.815C165.957 18.055 166.237 18.175 166.607 18.175ZM174.646 19.15C174.416 19.15 174.136 19.135 173.806 19.105C173.486 19.075 173.166 19.04 172.846 19C172.526 18.95 172.241 18.905 171.991 18.865L172.051 17.86C172.301 17.89 172.581 17.925 172.891 17.965C173.211 18.005 173.521 18.04 173.821 18.07C174.121 18.09 174.361 18.1 174.541 18.1C174.951 18.1 175.291 18.065 175.561 17.995C175.831 17.915 176.036 17.785 176.176 17.605C176.316 17.425 176.386 17.17 176.386 16.84C176.386 16.59 176.331 16.395 176.221 16.255C176.121 16.115 175.926 16 175.636 15.91C175.356 15.82 174.946 15.735 174.406 15.655C173.846 15.565 173.376 15.455 172.996 15.325C172.626 15.185 172.351 14.98 172.171 14.71C171.991 14.44 171.901 14.055 171.901 13.555C171.901 12.995 172.031 12.555 172.291 12.235C172.551 11.915 172.886 11.69 173.296 11.56C173.716 11.42 174.151 11.35 174.601 11.35C174.881 11.35 175.186 11.365 175.516 11.395C175.856 11.425 176.186 11.465 176.506 11.515C176.826 11.555 177.101 11.595 177.331 11.635L177.301 12.64C177.061 12.6 176.781 12.565 176.461 12.535C176.141 12.495 175.821 12.465 175.501 12.445C175.181 12.415 174.901 12.4 174.661 12.4C174.361 12.4 174.091 12.435 173.851 12.505C173.611 12.565 173.421 12.675 173.281 12.835C173.141 12.995 173.071 13.22 173.071 13.51C173.071 13.73 173.121 13.91 173.221 14.05C173.321 14.18 173.511 14.29 173.791 14.38C174.071 14.47 174.476 14.56 175.006 14.65C175.626 14.75 176.121 14.875 176.491 15.025C176.871 15.175 177.146 15.385 177.316 15.655C177.486 15.925 177.571 16.305 177.571 16.795C177.571 17.675 177.311 18.29 176.791 18.64C176.271 18.98 175.556 19.15 174.646 19.15ZM181.633 19.15C181.403 19.15 181.123 19.135 180.793 19.105C180.473 19.075 180.153 19.04 179.833 19C179.513 18.95 179.228 18.905 178.978 18.865L179.038 17.86C179.288 17.89 179.568 17.925 179.878 17.965C180.198 18.005 180.508 18.04 180.808 18.07C181.108 18.09 181.348 18.1 181.528 18.1C181.938 18.1 182.278 18.065 182.548 17.995C182.818 17.915 183.023 17.785 183.163 17.605C183.303 17.425 183.373 17.17 183.373 16.84C183.373 16.59 183.318 16.395 183.208 16.255C183.108 16.115 182.913 16 182.623 15.91C182.343 15.82 181.933 15.735 181.393 15.655C180.833 15.565 180.363 15.455 179.983 15.325C179.613 15.185 179.338 14.98 179.158 14.71C178.978 14.44 178.888 14.055 178.888 13.555C178.888 12.995 179.018 12.555 179.278 12.235C179.538 11.915 179.873 11.69 180.283 11.56C180.703 11.42 181.138 11.35 181.588 11.35C181.868 11.35 182.173 11.365 182.503 11.395C182.843 11.425 183.173 11.465 183.493 11.515C183.813 11.555 184.088 11.595 184.318 11.635L184.288 12.64C184.048 12.6 183.768 12.565 183.448 12.535C183.128 12.495 182.808 12.465 182.488 12.445C182.168 12.415 181.888 12.4 181.648 12.4C181.348 12.4 181.078 12.435 180.838 12.505C180.598 12.565 180.408 12.675 180.268 12.835C180.128 12.995 180.058 13.22 180.058 13.51C180.058 13.73 180.108 13.91 180.208 14.05C180.308 14.18 180.498 14.29 180.778 14.38C181.058 14.47 181.463 14.56 181.993 14.65C182.613 14.75 183.108 14.875 183.478 15.025C183.858 15.175 184.133 15.385 184.303 15.655C184.473 15.925 184.558 16.305 184.558 16.795C184.558 17.675 184.298 18.29 183.778 18.64C183.258 18.98 182.543 19.15 181.633 19.15ZM187.436 19L185.666 11.5H186.836L188.306 17.995H188.561L190.316 11.65H191.531L193.286 17.995H193.541L195.011 11.5H196.181L194.411 19H192.476L190.916 13.195L189.371 19H187.436ZM200.601 19.15C199.761 19.15 199.106 19.005 198.636 18.715C198.176 18.425 197.851 17.985 197.661 17.395C197.481 16.805 197.391 16.06 197.391 15.16C197.391 14.3 197.491 13.59 197.691 13.03C197.901 12.47 198.241 12.05 198.711 11.77C199.181 11.49 199.811 11.35 200.601 11.35C201.401 11.35 202.036 11.49 202.506 11.77C202.976 12.05 203.311 12.47 203.511 13.03C203.721 13.59 203.826 14.3 203.826 15.16C203.826 16.06 203.731 16.805 203.541 17.395C203.361 17.985 203.036 18.425 202.566 18.715C202.106 19.005 201.451 19.15 200.601 19.15ZM200.601 18.145C201.181 18.145 201.616 18.045 201.906 17.845C202.196 17.635 202.386 17.31 202.476 16.87C202.576 16.43 202.626 15.86 202.626 15.16C202.626 14.47 202.566 13.92 202.446 13.51C202.326 13.1 202.121 12.805 201.831 12.625C201.541 12.445 201.131 12.355 200.601 12.355C200.081 12.355 199.671 12.445 199.371 12.625C199.081 12.805 198.876 13.1 198.756 13.51C198.636 13.92 198.576 14.47 198.576 15.16C198.576 15.86 198.621 16.43 198.711 16.87C198.811 17.31 199.006 17.635 199.296 17.845C199.586 18.045 200.021 18.145 200.601 18.145ZM205.661 19V11.5H206.816V12.505C207.006 12.375 207.246 12.235 207.536 12.085C207.826 11.925 208.146 11.775 208.496 11.635C208.846 11.495 209.196 11.395 209.546 11.335V12.52C209.206 12.59 208.861 12.685 208.511 12.805C208.161 12.915 207.836 13.035 207.536 13.165C207.246 13.295 207.006 13.41 206.816 13.51V19H205.661ZM213.231 19.15C212.931 19.15 212.646 19.115 212.376 19.045C212.106 18.985 211.856 18.875 211.626 18.715C211.406 18.555 211.211 18.335 211.041 18.055C210.871 17.765 210.741 17.395 210.651 16.945C210.561 16.495 210.516 15.95 210.516 15.31C210.516 14.42 210.621 13.685 210.831 13.105C211.041 12.515 211.376 12.075 211.836 11.785C212.296 11.495 212.906 11.35 213.666 11.35C213.956 11.35 214.281 11.375 214.641 11.425C215.001 11.465 215.281 11.505 215.481 11.545V8.245H216.651V19H215.496V18.505C215.336 18.595 215.126 18.69 214.866 18.79C214.616 18.89 214.346 18.975 214.056 19.045C213.776 19.115 213.501 19.15 213.231 19.15ZM213.381 18.1C213.641 18.1 213.901 18.07 214.161 18.01C214.431 17.95 214.681 17.88 214.911 17.8C215.141 17.71 215.331 17.63 215.481 17.56V12.535C215.361 12.515 215.196 12.495 214.986 12.475C214.776 12.445 214.556 12.42 214.326 12.4C214.106 12.38 213.906 12.37 213.726 12.37C213.216 12.37 212.816 12.48 212.526 12.7C212.236 12.92 212.026 13.25 211.896 13.69C211.776 14.12 211.716 14.66 211.716 15.31C211.716 15.91 211.761 16.395 211.851 16.765C211.941 17.125 212.061 17.405 212.211 17.605C212.371 17.795 212.551 17.925 212.751 17.995C212.951 18.065 213.161 18.1 213.381 18.1ZM220.135 15.97C220.095 15.86 220.05 15.725 220 15.565C219.95 15.405 219.925 15.23 219.925 15.04C219.925 14.8 219.985 14.575 220.105 14.365C220.225 14.145 220.39 13.93 220.6 13.72C220.81 13.51 221.045 13.29 221.305 13.06C221.665 12.75 221.94 12.495 222.13 12.295C222.32 12.085 222.45 11.885 222.52 11.695C222.59 11.495 222.625 11.255 222.625 10.975C222.625 10.455 222.465 10.085 222.145 9.865C221.835 9.645 221.345 9.535 220.675 9.535C220.475 9.535 220.23 9.555 219.94 9.595C219.66 9.625 219.38 9.67 219.1 9.73C218.82 9.78 218.575 9.83 218.365 9.88L218.275 8.935C218.495 8.865 218.755 8.795 219.055 8.725C219.355 8.655 219.66 8.595 219.97 8.545C220.28 8.495 220.555 8.47 220.795 8.47C221.805 8.47 222.56 8.655 223.06 9.025C223.57 9.395 223.825 10.015 223.825 10.885C223.825 11.315 223.79 11.67 223.72 11.95C223.65 12.23 223.515 12.495 223.315 12.745C223.115 12.985 222.82 13.27 222.43 13.6C221.99 13.97 221.66 14.29 221.44 14.56C221.22 14.82 221.11 15.115 221.11 15.445V15.97H220.135ZM219.97 18.985V17.26H221.23V18.985H219.97Z" fill="white"/>
</svg>
