<svg width="306" height="72" viewBox="0 0 306 72" fill="none" xmlns="http://www.w3.org/2000/svg">
<g filter="url(#filter0_d_270_2)">
<path d="M11 15C11 9.47715 15.4772 5 21 5H281C286.523 5 291 9.47715 291 15V45C291 50.5228 286.523 55 281 55H21C15.4771 55 11 50.5228 11 45V15Z" stroke="white" stroke-width="1.4" shape-rendering="crispEdges"/>
</g>
<path d="M28.9043 35V23.976H35.8163V25.304H30.4403V28.76H34.8563V30.056H30.4403V33.672H35.8163V35H28.9043ZM37.572 35V26.984H39.06V27.544C39.3053 27.3947 39.6413 27.24 40.068 27.08C40.5053 26.9093 40.9267 26.824 41.332 26.824C41.8547 26.824 42.276 26.888 42.596 27.016C42.916 27.144 43.1773 27.352 43.38 27.64C43.5827 27.5227 43.8333 27.4 44.132 27.272C44.4413 27.144 44.772 27.0373 45.124 26.952C45.476 26.8667 45.8227 26.824 46.164 26.824C46.9 26.824 47.4653 26.952 47.86 27.208C48.2653 27.464 48.5427 27.8853 48.692 28.472C48.8413 29.048 48.916 29.816 48.916 30.776V35H47.444V30.872C47.444 30.2107 47.4067 29.6827 47.332 29.288C47.2573 28.8933 47.108 28.6053 46.884 28.424C46.6707 28.2427 46.34 28.152 45.892 28.152C45.4973 28.152 45.108 28.2107 44.724 28.328C44.3507 28.4453 44.0573 28.5627 43.844 28.68C43.9187 28.936 43.9667 29.2667 43.988 29.672C44.02 30.0667 44.036 30.472 44.036 30.888V35H42.548V30.92C42.548 30.2373 42.5107 29.6987 42.436 29.304C42.372 28.8987 42.228 28.6053 42.004 28.424C41.78 28.2427 41.4493 28.152 41.012 28.152C40.6387 28.152 40.2653 28.2107 39.892 28.328C39.5293 28.4453 39.252 28.5627 39.06 28.68V35H37.572ZM52.8339 35.16C52.0765 35.16 51.5005 34.952 51.1059 34.536C50.7112 34.12 50.5139 33.5067 50.5139 32.696C50.5139 32.152 50.6099 31.7147 50.8019 31.384C50.9939 31.0427 51.2765 30.7867 51.6499 30.616C52.0339 30.4453 52.5085 30.344 53.0739 30.312L55.3939 30.088V29.464C55.3939 28.9627 55.2819 28.6107 55.0579 28.408C54.8339 28.1947 54.4979 28.088 54.0499 28.088C53.7725 28.088 53.4472 28.0987 53.0739 28.12C52.7005 28.1413 52.3325 28.168 51.9699 28.2C51.6072 28.232 51.2819 28.264 50.9939 28.296L50.9299 27.208C51.1965 27.144 51.5112 27.0853 51.8739 27.032C52.2472 26.9787 52.6365 26.9307 53.0419 26.888C53.4472 26.8453 53.8205 26.824 54.1619 26.824C54.7912 26.824 55.3085 26.9147 55.7139 27.096C56.1192 27.2773 56.4179 27.56 56.6099 27.944C56.8019 28.328 56.8979 28.824 56.8979 29.432V33.368C56.9192 33.5813 57.0045 33.7413 57.1539 33.848C57.3139 33.944 57.5112 34.008 57.7459 34.04L57.6979 35.144C57.4632 35.144 57.2392 35.1333 57.0259 35.112C56.8232 35.1013 56.6365 35.0693 56.4659 35.016C56.2952 34.9733 56.1405 34.9147 56.0019 34.84C55.8739 34.7547 55.7512 34.6587 55.6339 34.552C55.4419 34.6373 55.1912 34.728 54.8819 34.824C54.5725 34.92 54.2419 35 53.8899 35.064C53.5379 35.128 53.1859 35.16 52.8339 35.16ZM53.1379 33.976C53.4045 33.976 53.6765 33.9493 53.9539 33.896C54.2419 33.8427 54.5139 33.784 54.7699 33.72C55.0259 33.6453 55.2339 33.5813 55.3939 33.528V31.128L53.2659 31.336C52.8179 31.368 52.4979 31.496 52.3059 31.72C52.1139 31.9333 52.0179 32.2427 52.0179 32.648C52.0179 33.064 52.1085 33.3893 52.2899 33.624C52.4819 33.8587 52.7645 33.976 53.1379 33.976ZM59.1189 35V26.984H60.6069V35H59.1189ZM59.1189 25.368V23.816H60.6069V25.368H59.1189ZM62.8399 35V23.576H64.3119V35H62.8399ZM70.2324 35V23.976H71.7684V35H70.2324ZM74.2793 35V23.976H78.2953C79.1166 23.976 79.7993 24.104 80.3433 24.36C80.8979 24.616 81.3353 24.9787 81.6553 25.448C81.9753 25.9173 82.1993 26.4827 82.3273 27.144C82.4659 27.7947 82.5353 28.52 82.5353 29.32C82.5353 30.1307 82.4713 30.8827 82.3433 31.576C82.2153 32.2587 81.9913 32.8613 81.6713 33.384C81.3513 33.896 80.9193 34.296 80.3753 34.584C79.8313 34.8613 79.1433 35 78.3113 35H74.2793ZM75.8153 33.672H78.2793C78.8339 33.672 79.2819 33.5547 79.6233 33.32C79.9753 33.0853 80.2473 32.7653 80.4393 32.36C80.6313 31.9547 80.7646 31.496 80.8393 30.984C80.9139 30.4613 80.9513 29.9067 80.9513 29.32C80.9513 28.744 80.9139 28.216 80.8393 27.736C80.7646 27.2453 80.6313 26.8187 80.4393 26.456C80.2473 26.0933 79.9753 25.816 79.6233 25.624C79.2819 25.4213 78.8339 25.32 78.2793 25.32H75.8153V33.672Z" fill="white"/>
<defs>
<filter id="filter0_d_270_2" x="4.30005" y="0.299988" width="301.4" height="71.4" filterUnits="userSpaceOnUse" color-interpolation-filters="sRGB">
<feFlood flood-opacity="0" result="BackgroundImageFix"/>
<feColorMatrix in="SourceAlpha" type="matrix" values="0 0 0 0 0 0 0 0 0 0 0 0 0 0 0 0 0 0 127 0" result="hardAlpha"/>
<feOffset dx="4" dy="6"/>
<feGaussianBlur stdDeviation="5"/>
<feComposite in2="hardAlpha" operator="out"/>
<feColorMatrix type="matrix" values="0 0 0 0 0.315017 0 0 0 0 0.555425 0 0 0 0 0.795833 0 0 0 1 0"/>
<feBlend mode="normal" in2="BackgroundImageFix" result="effect1_dropShadow_270_2"/>
<feBlend mode="normal" in="SourceGraphic" in2="effect1_dropShadow_270_2" result="shape"/>
</filter>
</defs>
</svg>
