<svg width="119" height="24" viewBox="0 0 119 24" fill="none" xmlns="http://www.w3.org/2000/svg">
<path d="M3.91217 20L0.664172 0.875999H4.55617L6.90817 16.276H7.58017L10.4922 1.072H14.8322L17.8002 16.276H18.4722L20.6842 0.875999H24.6042L21.4122 20H15.2802L12.5642 4.824H12.7042L9.96017 20H3.91217ZM32.4564 20.308C30.9071 20.308 29.6751 20.0467 28.7604 19.524C27.8644 19.0013 27.2204 18.208 26.8284 17.144C26.4364 16.08 26.2404 14.7453 26.2404 13.14C26.2404 11.404 26.4831 9.98533 26.9684 8.884C27.4724 7.78267 28.2004 6.97067 29.1524 6.448C30.1044 5.90667 31.2804 5.636 32.6804 5.636C34.7524 5.636 36.3111 6.15867 37.3564 7.204C38.4204 8.24933 38.9524 9.90133 38.9524 12.16L38.7844 14.232H29.9924C30.0111 15.2773 30.2258 16.0613 30.6364 16.584C31.0471 17.1067 31.7564 17.368 32.7644 17.368C33.3431 17.368 33.9778 17.3587 34.6684 17.34C35.3591 17.3027 36.0404 17.2653 36.7124 17.228C37.4031 17.1907 37.9911 17.1533 38.4764 17.116L38.5604 19.72C38.0938 19.7947 37.5058 19.8787 36.7964 19.972C36.0871 20.0653 35.3498 20.14 34.5844 20.196C33.8378 20.2707 33.1284 20.308 32.4564 20.308ZM29.9924 11.852H35.2284C35.2284 10.5827 35.0231 9.696 34.6124 9.192C34.2204 8.688 33.5764 8.436 32.6804 8.436C31.8031 8.436 31.1311 8.69733 30.6644 9.22C30.2164 9.74267 29.9924 10.62 29.9924 11.852ZM41.5407 20V0.204H45.2647V20H41.5407ZM54.196 20.308C52.5907 20.308 51.3307 20.0653 50.416 19.58C49.52 19.076 48.8853 18.2733 48.512 17.172C48.1573 16.0707 47.98 14.624 47.98 12.832C47.98 11.0587 48.1853 9.64933 48.596 8.604C49.0067 7.54 49.6693 6.784 50.584 6.336C51.5173 5.86933 52.7307 5.636 54.224 5.636C54.616 5.636 55.0733 5.664 55.596 5.72C56.1187 5.776 56.6413 5.85067 57.164 5.944C57.7053 6.01867 58.1627 6.09333 58.536 6.168L58.396 9.164C58.0413 9.12667 57.64 9.09867 57.192 9.08C56.744 9.04267 56.3053 9.01467 55.876 8.996C55.4653 8.95867 55.1293 8.94 54.868 8.94C54.0653 8.94 53.4307 9.07067 52.964 9.332C52.516 9.57467 52.1987 9.98533 52.012 10.564C51.844 11.124 51.76 11.88 51.76 12.832C51.76 13.8587 51.844 14.68 52.012 15.296C52.18 15.912 52.4787 16.3507 52.908 16.612C53.356 16.8733 54.0093 17.004 54.868 17.004C55.1293 17.004 55.4747 16.9947 55.904 16.976C56.3333 16.9387 56.772 16.9013 57.22 16.864C57.6867 16.8267 58.0973 16.7987 58.452 16.78L58.564 19.776C58.1907 19.8507 57.7427 19.9253 57.22 20C56.6973 20.0933 56.1653 20.168 55.624 20.224C55.1013 20.28 54.6253 20.308 54.196 20.308ZM67.0275 20.308C65.4408 20.308 64.1621 20.0467 63.1915 19.524C62.2395 19.0013 61.5488 18.1987 61.1195 17.116C60.6901 16.0147 60.4755 14.596 60.4755 12.86C60.4755 11.18 60.6995 9.81733 61.1475 8.772C61.5955 7.708 62.3048 6.924 63.2755 6.42C64.2461 5.89733 65.4968 5.636 67.0275 5.636C68.5768 5.636 69.8275 5.89733 70.7795 6.42C71.7501 6.924 72.4595 7.708 72.9075 8.772C73.3741 9.81733 73.6075 11.18 73.6075 12.86C73.6075 14.596 73.3928 16.0147 72.9635 17.116C72.5341 18.1987 71.8341 19.0013 70.8635 19.524C69.9115 20.0467 68.6328 20.308 67.0275 20.308ZM67.0275 17.228C67.8115 17.228 68.3995 17.088 68.7915 16.808C69.1835 16.5093 69.4448 16.0427 69.5755 15.408C69.7248 14.7547 69.7995 13.9053 69.7995 12.86C69.7995 11.8333 69.7155 11.0213 69.5475 10.424C69.3795 9.808 69.0995 9.36933 68.7075 9.108C68.3155 8.84667 67.7555 8.716 67.0275 8.716C66.3181 8.716 65.7581 8.84667 65.3475 9.108C64.9555 9.36933 64.6755 9.808 64.5075 10.424C64.3395 11.0213 64.2555 11.8333 64.2555 12.86C64.2555 13.9053 64.3208 14.7547 64.4515 15.408C64.6008 16.0427 64.8715 16.5093 65.2635 16.808C65.6555 17.088 66.2435 17.228 67.0275 17.228ZM76.1552 20V5.944H79.8792V6.84C80.3086 6.57867 80.8872 6.31733 81.6152 6.056C82.3432 5.776 83.0339 5.636 83.6872 5.636C84.5459 5.636 85.2459 5.75733 85.7872 6C86.3286 6.224 86.7766 6.56 87.1312 7.008C87.4672 6.80267 87.8872 6.59733 88.3912 6.392C88.8952 6.18667 89.4459 6.00933 90.0432 5.86C90.6406 5.71067 91.2192 5.636 91.7792 5.636C93.1606 5.636 94.2152 5.87867 94.9432 6.364C95.6712 6.84933 96.1752 7.61467 96.4552 8.66C96.7352 9.68667 96.8752 11.0307 96.8752 12.692V20H93.1512V13.028C93.1512 12.0573 93.0952 11.2733 92.9832 10.676C92.8899 10.06 92.6846 9.612 92.3672 9.332C92.0686 9.052 91.6112 8.912 90.9952 8.912C90.4539 8.912 89.9219 8.98667 89.3992 9.136C88.8766 9.28533 88.4659 9.43467 88.1672 9.584C88.2606 9.976 88.3259 10.48 88.3632 11.096C88.4192 11.712 88.4472 12.356 88.4472 13.028V20H84.7232V13.084C84.7232 12.0947 84.6672 11.292 84.5552 10.676C84.4619 10.06 84.2566 9.612 83.9392 9.332C83.6219 9.052 83.1646 8.912 82.5672 8.912C82.0446 8.912 81.5312 8.98667 81.0272 9.136C80.5419 9.28533 80.1592 9.43467 79.8792 9.584V20H76.1552ZM105.519 20.308C103.97 20.308 102.738 20.0467 101.823 19.524C100.927 19.0013 100.283 18.208 99.8909 17.144C99.4989 16.08 99.3029 14.7453 99.3029 13.14C99.3029 11.404 99.5456 9.98533 100.031 8.884C100.535 7.78267 101.263 6.97067 102.215 6.448C103.167 5.90667 104.343 5.636 105.743 5.636C107.815 5.636 109.374 6.15867 110.419 7.204C111.483 8.24933 112.015 9.90133 112.015 12.16L111.847 14.232H103.055C103.074 15.2773 103.288 16.0613 103.699 16.584C104.11 17.1067 104.819 17.368 105.827 17.368C106.406 17.368 107.04 17.3587 107.731 17.34C108.422 17.3027 109.103 17.2653 109.775 17.228C110.466 17.1907 111.054 17.1533 111.539 17.116L111.623 19.72C111.156 19.7947 110.568 19.8787 109.859 19.972C109.15 20.0653 108.412 20.14 107.647 20.196C106.9 20.2707 106.191 20.308 105.519 20.308ZM103.055 11.852H108.291C108.291 10.5827 108.086 9.696 107.675 9.192C107.283 8.688 106.639 8.436 105.743 8.436C104.866 8.436 104.194 8.69733 103.727 9.22C103.279 9.74267 103.055 10.62 103.055 11.852ZM113.679 23.22L114.687 16.052H118.775L116.759 23.22H113.679Z" fill="white"/>
</svg>
